<?xml version="1.0" encoding="utf-8"?>
<!-- Generator: Adobe Illustrator 16.0.0, SVG Export Plug-In . SVG Version: 6.00 Build 0)  -->
<!DOCTYPE svg PUBLIC "-//W3C//DTD SVG 1.1//EN" "http://www.w3.org/Graphics/SVG/1.1/DTD/svg11.dtd">
<svg version="1.1" id="Layer_1" xmlns="http://www.w3.org/2000/svg" xmlns:xlink="http://www.w3.org/1999/xlink" x="0px" y="0px"
	 width="12.957px" height="12.223px" viewBox="0 0 12.957 12.223" enable-background="new 0 0 12.957 12.223" xml:space="preserve">
<g>
	<path fill="#FFFFFF" d="M12.228,8.146c0.086,0,0.17-0.036,0.235-0.098c0.065-0.065,0.098-0.148,0.099-0.233l0.039-3.346
		c0.002-0.084-0.029-0.169-0.095-0.233c-0.063-0.063-0.146-0.094-0.23-0.096L0.916,4.206C0.833,4.207,0.748,4.24,0.683,4.303
		C0.617,4.368,0.584,4.452,0.584,4.536l-0.04,3.346C0.543,7.965,0.574,8.049,0.638,8.114c0.063,0.063,0.147,0.095,0.231,0.095
		L12.228,8.146z"/>
	<path fill="#FFFFFF" d="M8.639,0.484c0.002-0.083-0.03-0.167-0.093-0.231C8.48,0.188,8.399,0.156,8.313,0.157L4.969,0.177
		c-0.085,0-0.169,0.034-0.235,0.099C4.669,0.339,4.637,0.423,4.636,0.506l-0.131,11.36c-0.002,0.083,0.029,0.168,0.093,0.23
		s0.147,0.097,0.232,0.096l3.346-0.02c0.082-0.002,0.169-0.034,0.234-0.099c0.063-0.064,0.097-0.15,0.097-0.233L8.639,0.484z"/>
</g>
</svg>
