<?xml version="1.0" encoding="utf-8"?>
<!-- Generator: Adobe Illustrator 16.0.0, SVG Export Plug-In . SVG Version: 6.00 Build 0)  -->
<!DOCTYPE svg PUBLIC "-//W3C//DTD SVG 1.1//EN" "http://www.w3.org/Graphics/SVG/1.1/DTD/svg11.dtd">
<svg version="1.1" id="Layer_1" xmlns="http://www.w3.org/2000/svg" xmlns:xlink="http://www.w3.org/1999/xlink" x="0px" y="0px"
	 width="9.492px" height="11.381px" viewBox="0 0 9.492 11.381" enable-background="new 0 0 9.492 11.381" xml:space="preserve">
<path fill="#FFFFFF" d="M0.147,6.991l4.242,4.242c0.092,0.092,0.217,0.148,0.356,0.148s0.265-0.057,0.356-0.148l4.242-4.242
	c0.141-0.14,0.189-0.355,0.109-0.549S9.186,6.131,8.988,6.131H7.812V0.503c0-0.128-0.05-0.257-0.147-0.355
	C7.565,0.049,7.437,0,7.308,0H2.185C2.056,0,1.927,0.049,1.827,0.147C1.729,0.246,1.681,0.375,1.681,0.503v5.628H0.503
	c-0.197,0-0.385,0.117-0.465,0.311S0.007,6.851,0.147,6.991z"/>
</svg>
