<?xml version="1.0" encoding="utf-8"?>
<!-- Generator: Adobe Illustrator 16.0.0, SVG Export Plug-In . SVG Version: 6.00 Build 0)  -->
<!DOCTYPE svg PUBLIC "-//W3C//DTD SVG 1.1//EN" "http://www.w3.org/Graphics/SVG/1.1/DTD/svg11.dtd">
<svg version="1.1" id="Layer_1" xmlns="http://www.w3.org/2000/svg" xmlns:xlink="http://www.w3.org/1999/xlink" x="0px" y="0px"
	 width="21px" height="21px" viewBox="0 0 21 21" enable-background="new 0 0 21 21" xml:space="preserve">
<g>
	<path fill-rule="evenodd" clip-rule="evenodd" fill="#FFFFFF" d="M10.489,0.91c2.896,0,5.797-0.002,8.698,0
		c0.798,0,1.438,0.502,1.666,1.297c0.231,0.813-0.025,1.678-0.643,2.165c-0.313,0.246-0.664,0.335-1.049,0.335
		c-4.446-0.004-8.894-0.002-13.343-0.002c-1.333,0-2.665,0.002-3.996-0.002c-1.038,0-1.777-0.799-1.773-1.908
		C0.055,1.703,0.796,0.91,1.817,0.91C4.709,0.908,7.6,0.91,10.489,0.91z"/>
	<path fill-rule="evenodd" clip-rule="evenodd" fill="#FFFFFF" d="M10.488,8.5c2.897,0,5.798-0.002,8.699,0
		c0.798,0.003,1.437,0.502,1.666,1.297c0.231,0.813-0.025,1.678-0.643,2.165c-0.313,0.247-0.664,0.336-1.049,0.336
		c-4.429-0.004-8.859-0.002-13.291-0.002c-1.35,0-2.699,0.002-4.048-0.002c-1.038,0-1.777-0.798-1.773-1.908
		C0.055,9.294,0.796,8.503,1.817,8.5C4.709,8.499,7.6,8.5,10.488,8.5z"/>
	<path fill-rule="evenodd" clip-rule="evenodd" fill="#FFFFFF" d="M10.489,16.092c2.898,0,5.797,0,8.698,0
		c0.798,0.002,1.438,0.502,1.666,1.297c0.231,0.812-0.025,1.677-0.643,2.164c-0.313,0.247-0.664,0.337-1.049,0.337
		c-4.503-0.002-9.004-0.002-13.508-0.002c-1.277,0-2.555,0.002-3.833,0c-1.037-0.003-1.775-0.801-1.771-1.911
		c0.005-1.089,0.746-1.883,1.77-1.885C4.709,16.092,7.6,16.092,10.489,16.092z"/>
</g>
</svg>
