<?xml version="1.0" encoding="utf-8"?>
<!-- Generator: Adobe Illustrator 16.0.0, SVG Export Plug-In . SVG Version: 6.00 Build 0)  -->
<!DOCTYPE svg PUBLIC "-//W3C//DTD SVG 1.1//EN" "http://www.w3.org/Graphics/SVG/1.1/DTD/svg11.dtd">
<svg version="1.1" id="Layer_1" xmlns="http://www.w3.org/2000/svg" xmlns:xlink="http://www.w3.org/1999/xlink" x="0px" y="0px"
	 width="34px" height="34px" viewBox="0 0 34 34" enable-background="new 0 0 34 34" xml:space="preserve">
<g>
	<path fill="#FFFFFF" d="M26.515,8.368h-2.881V7.04c0-0.369-0.297-0.666-0.664-0.666c-0.369,0-0.666,0.297-0.666,0.666v1.328h-3.986
		V7.04c0-0.369-0.297-0.666-0.666-0.666c-0.365,0-0.664,0.297-0.664,0.666v1.328h-3.986V7.04c0-0.369-0.297-0.666-0.666-0.666
		c-0.365,0-0.664,0.297-0.664,0.666v1.328H8.792c-0.979,0-1.773,0.793-1.773,1.771v15.729c0,0.979,0.794,1.773,1.773,1.773h17.723
		c0.979,0,1.771-0.795,1.771-1.773V10.139C28.286,9.161,27.493,8.368,26.515,8.368z M26.956,25.868c0,0.246-0.197,0.443-0.441,0.443
		H8.792c-0.245,0-0.444-0.197-0.444-0.443V10.139c0-0.244,0.199-0.441,0.444-0.441h2.879v1.328c0,0.367,0.299,0.664,0.664,0.664
		c0.369,0,0.666-0.297,0.666-0.664V9.698h3.986v1.328c0,0.367,0.299,0.664,0.664,0.664c0.369,0,0.666-0.297,0.666-0.664V9.698h3.986
		v1.328c0,0.367,0.297,0.664,0.666,0.664c0.367,0,0.664-0.297,0.664-0.664V9.698h2.881c0.244,0,0.441,0.197,0.441,0.441V25.868z"/>
	<rect x="11.671" y="14.348" fill="#FFFFFF" width="2.658" height="1.994"/>
	<rect x="11.671" y="17.672" fill="#FFFFFF" width="2.658" height="1.994"/>
	<rect x="11.671" y="20.995" fill="#FFFFFF" width="2.658" height="1.994"/>
	<rect x="16.323" y="20.995" fill="#FFFFFF" width="2.657" height="1.994"/>
	<rect x="16.323" y="17.672" fill="#FFFFFF" width="2.657" height="1.994"/>
	<rect x="16.323" y="14.348" fill="#FFFFFF" width="2.657" height="1.994"/>
	<rect x="20.976" y="20.995" fill="#FFFFFF" width="2.658" height="1.994"/>
	<rect x="20.976" y="17.672" fill="#FFFFFF" width="2.658" height="1.994"/>
	<rect x="20.976" y="14.348" fill="#FFFFFF" width="2.658" height="1.994"/>
</g>
</svg>
