<?xml version="1.0" encoding="utf-8"?>
<!-- Generator: Adobe Illustrator 16.0.0, SVG Export Plug-In . SVG Version: 6.00 Build 0)  -->
<!DOCTYPE svg PUBLIC "-//W3C//DTD SVG 1.1//EN" "http://www.w3.org/Graphics/SVG/1.1/DTD/svg11.dtd">
<svg version="1.1" id="Layer_1" xmlns="http://www.w3.org/2000/svg" xmlns:xlink="http://www.w3.org/1999/xlink" x="0px" y="0px"
	 width="19px" height="19px" viewBox="0 0 19 19" enable-background="new 0 0 19 19" xml:space="preserve">
<g>
	<g id="calendar_8_">
		<path fill="#FFFFFF" d="M15.379,3.598h-1.912V2.717c0-0.244-0.195-0.439-0.442-0.439c-0.241,0-0.439,0.195-0.439,0.439v0.881H9.94
			V2.717c0-0.244-0.197-0.439-0.442-0.439c-0.241,0-0.438,0.195-0.438,0.439v0.881H6.411V2.717c0-0.244-0.194-0.439-0.438-0.439
			c-0.245,0-0.442,0.195-0.442,0.439v0.881H3.619c-0.648,0-1.174,0.525-1.174,1.172v10.416c0,0.648,0.525,1.174,1.174,1.174h11.76
			c0.65,0,1.176-0.525,1.176-1.174V4.77C16.555,4.124,16.029,3.598,15.379,3.598z M15.673,15.186c0,0.162-0.132,0.293-0.294,0.293
			H3.619c-0.161,0-0.294-0.131-0.294-0.293V4.77c0-0.16,0.133-0.293,0.294-0.293h1.912v0.881c0,0.242,0.197,0.439,0.442,0.439
			c0.243,0,0.438-0.197,0.438-0.439V4.477H9.06v0.881c0,0.242,0.197,0.439,0.438,0.439c0.245,0,0.442-0.197,0.442-0.439V4.477h2.645
			v0.881c0,0.242,0.198,0.439,0.439,0.439c0.247,0,0.442-0.197,0.442-0.439V4.477h1.912c0.162,0,0.294,0.133,0.294,0.293V15.186z"/>
		<rect x="5.531" y="7.557" fill="#FFFFFF" width="1.763" height="1.32"/>
		<rect x="5.531" y="9.758" fill="#FFFFFF" width="1.763" height="1.32"/>
		<rect x="5.531" y="11.959" fill="#FFFFFF" width="1.763" height="1.32"/>
		<rect x="8.617" y="11.959" fill="#FFFFFF" width="1.764" height="1.32"/>
		<rect x="8.617" y="9.758" fill="#FFFFFF" width="1.764" height="1.32"/>
		<rect x="8.617" y="7.557" fill="#FFFFFF" width="1.764" height="1.32"/>
		<rect x="11.704" y="11.959" fill="#FFFFFF" width="1.763" height="1.32"/>
		<rect x="11.704" y="9.758" fill="#FFFFFF" width="1.763" height="1.32"/>
		<rect x="11.704" y="7.557" fill="#FFFFFF" width="1.763" height="1.32"/>
	</g>
</g>
</svg>
