<?xml version="1.0" encoding="utf-8"?>
<!-- Generator: Adobe Illustrator 16.0.0, SVG Export Plug-In . SVG Version: 6.00 Build 0)  -->
<!DOCTYPE svg PUBLIC "-//W3C//DTD SVG 1.1//EN" "http://www.w3.org/Graphics/SVG/1.1/DTD/svg11.dtd">
<svg version="1.1" id="Layer_1" xmlns="http://www.w3.org/2000/svg" xmlns:xlink="http://www.w3.org/1999/xlink" x="0px" y="0px"
	 width="15px" height="14px" viewBox="0 0 15 14" enable-background="new 0 0 15 14" xml:space="preserve">
<path fill-rule="evenodd" clip-rule="evenodd" fill="#FFFFFF" d="M0.045,13.844c0-3.829,0-7.644,0-11.474c0.566,0,1.126,0,1.705,0
	c0-0.193,0-0.375,0-0.569c0.394,0,0.766,0,1.15,0c0,0.181,0,0.359,0,0.549c0.577,0,1.143,0,1.73,0c0-0.367-0.008-0.736,0.002-1.104
	C4.639,1.081,4.656,0.91,4.702,0.753C4.831,0.33,5.167,0.071,5.609,0.07c1.219-0.008,2.439-0.012,3.66,0
	c0.622,0.006,1.088,0.501,1.1,1.142c0.009,0.375,0.002,0.751,0.002,1.14c0.575,0,1.139,0,1.715,0c0-0.178,0-0.355,0-0.547
	c0.388,0,0.761,0,1.153,0c0,0.178,0,0.359,0,0.554c0.579,0,1.138,0,1.712,0c0,3.833,0,7.653,0,11.485
	C9.989,13.844,5.025,13.844,0.045,13.844z M0.618,13.27c4.597,0,9.181,0,13.758,0c0-2.684,0-5.357,0-8.024c-4.593,0-9.17,0-13.758,0
	C0.618,7.923,0.618,10.59,0.618,13.27z M12.098,2.952c-3.077,0-6.128,0-9.195,0c0,0.19,0,0.367,0,0.551c-0.385,0-0.757,0-1.149,0
	c0-0.194,0-0.375,0-0.555c-0.388,0-0.759,0-1.131,0c0,0.574,0,1.139,0,1.702c4.593,0,9.177,0,13.761,0c0-0.572,0-1.133,0-1.7
	c-0.381,0-0.754,0-1.147,0c0,0.193,0,0.374,0,0.554c-0.389,0-0.756,0-1.138,0C12.098,3.319,12.098,3.142,12.098,2.952z M9.797,2.358
	c0-0.371,0.007-0.724-0.002-1.075c-0.008-0.403-0.254-0.64-0.66-0.642c-1.13-0.003-2.26-0.001-3.392,0
	c-0.328,0-0.495,0.119-0.517,0.441C5.197,1.505,5.219,1.929,5.219,2.358C6.741,2.358,8.258,2.358,9.797,2.358z"/>
</svg>
