<?xml version="1.0" encoding="utf-8"?>
<!-- Generator: Adobe Illustrator 16.0.0, SVG Export Plug-In . SVG Version: 6.00 Build 0)  -->
<!DOCTYPE svg PUBLIC "-//W3C//DTD SVG 1.1//EN" "http://www.w3.org/Graphics/SVG/1.1/DTD/svg11.dtd">
<svg version="1.1" id="Layer_1" xmlns="http://www.w3.org/2000/svg" xmlns:xlink="http://www.w3.org/1999/xlink" x="0px" y="0px"
	 width="12.957px" height="26.194px" viewBox="0 -13.388 12.957 26.194" enable-background="new 0 -13.388 12.957 26.194"
	 xml:space="preserve">
<g>
	<path fill="#FFFFFF" d="M12.845,3.28c0.069-0.069,0.112-0.166,0.112-0.271c0-0.107-0.043-0.203-0.112-0.273l-2.773-2.772
		c-0.069-0.07-0.166-0.113-0.272-0.113C9.692-0.15,9.597-0.107,9.526-0.039L0.113,9.375C0.044,9.445,0,9.541,0,9.648
		s0.043,0.203,0.113,0.271l2.771,2.773c0.069,0.069,0.166,0.113,0.272,0.112c0.106,0,0.203-0.043,0.272-0.112L12.845,3.28z"/>
	<path fill="#FFFFFF" d="M3.43-0.039C3.361-0.107,3.264-0.15,3.158-0.15c-0.107,0-0.203,0.042-0.273,0.112L0.113,2.735
		C0.043,2.805,0,2.902,0,3.008S0.043,3.21,0.112,3.28l9.415,9.414c0.068,0.07,0.166,0.113,0.271,0.112
		c0.105,0,0.203-0.042,0.273-0.113l2.771-2.772c0.07-0.069,0.113-0.167,0.113-0.273c0-0.105-0.043-0.203-0.113-0.271L3.43-0.039z"/>
</g>
<g>
	<path fill="#F05656" d="M12.844-9.957c0.07-0.069,0.113-0.166,0.113-0.271c0-0.107-0.043-0.203-0.113-0.273l-2.773-2.772
		c-0.068-0.07-0.166-0.113-0.271-0.113c-0.107,0.001-0.203,0.044-0.273,0.112L0.113-3.862C0.043-3.792,0-3.696,0-3.589
		s0.043,0.203,0.113,0.271l2.771,2.773C2.954-0.475,3.05-0.431,3.157-0.432c0.106,0,0.203-0.043,0.272-0.112L12.844-9.957z"/>
	<path fill="#F05656" d="M3.43-13.276c-0.069-0.068-0.166-0.111-0.272-0.111c-0.107,0-0.203,0.042-0.273,0.112l-2.771,2.772
		C0.042-10.432,0-10.335,0-10.229s0.043,0.202,0.112,0.271l9.414,9.414c0.068,0.07,0.166,0.113,0.271,0.112
		c0.105,0,0.203-0.042,0.273-0.113l2.771-2.772c0.07-0.069,0.113-0.167,0.113-0.273c0-0.105-0.043-0.203-0.113-0.271L3.43-13.276z"
		/>
</g>
</svg>
