<?xml version="1.0" encoding="utf-8"?>
<!-- Generator: Adobe Illustrator 16.0.0, SVG Export Plug-In . SVG Version: 6.00 Build 0)  -->
<!DOCTYPE svg PUBLIC "-//W3C//DTD SVG 1.1//EN" "http://www.w3.org/Graphics/SVG/1.1/DTD/svg11.dtd">
<svg version="1.1" id="Layer_1" xmlns="http://www.w3.org/2000/svg" xmlns:xlink="http://www.w3.org/1999/xlink" x="0px" y="0px"
	 width="12.957px" height="12.223px" viewBox="0 0 12.957 12.223" enable-background="new 0 0 12.957 12.223" xml:space="preserve">
<g>
	<path fill="#FFFFFF" d="M12.845,3.43c0.07-0.069,0.113-0.166,0.113-0.272c0-0.107-0.043-0.203-0.113-0.273l-2.773-2.772
		C10.003,0.042,9.906-0.001,9.8-0.001C9.693,0,9.597,0.043,9.527,0.112L0.114,9.526C0.045,9.595,0.001,9.692,0.001,9.798
		c0,0.107,0.043,0.203,0.113,0.272l2.772,2.773c0.069,0.069,0.166,0.113,0.272,0.112c0.106,0,0.203-0.043,0.272-0.112L12.845,3.43z"
		/>
	<path fill="#FFFFFF" d="M3.431,0.112C3.362,0.043,3.265,0,3.159,0C3.052,0,2.956,0.042,2.886,0.113L0.114,2.885
		c-0.07,0.07-0.113,0.167-0.113,0.273c0,0.107,0.043,0.203,0.112,0.272l9.414,9.414c0.069,0.07,0.167,0.113,0.272,0.112
		c0.106,0,0.203-0.042,0.273-0.113l2.771-2.772c0.07-0.07,0.113-0.167,0.113-0.274c0-0.105-0.043-0.203-0.113-0.271L3.431,0.112z"/>
</g>
</svg>
