<?xml version="1.0" encoding="utf-8"?>
<!-- Generator: Adobe Illustrator 16.0.0, SVG Export Plug-In . SVG Version: 6.00 Build 0)  -->
<!DOCTYPE svg PUBLIC "-//W3C//DTD SVG 1.1//EN" "http://www.w3.org/Graphics/SVG/1.1/DTD/svg11.dtd">
<svg version="1.1" id="Layer_1" xmlns="http://www.w3.org/2000/svg" xmlns:xlink="http://www.w3.org/1999/xlink" x="0px" y="0px"
	 width="38.752px" height="27.225px" viewBox="0 0 38.752 27.225" enable-background="new 0 0 38.752 27.225" xml:space="preserve">
<g>
	<g>
		<g>
			<path fill="#49CCDA" d="M31.387,12.451c-0.576-1.505-1.699-2.693-3.172-3.349c-0.779-0.348-1.606-0.525-2.457-0.525
				c-2.323,0-4.439,1.34-5.438,3.429c0.521,0.507,0.978,1.084,1.36,1.716c0.062-0.275,0.148-0.55,0.268-0.818
				c0.672-1.502,2.168-2.47,3.811-2.47c0.589,0,1.16,0.122,1.702,0.363c1.015,0.455,1.794,1.276,2.192,2.317
				c0.351,0.916,0.368,1.905,0.057,2.821c0.458,0.602,0.821,1.276,1.063,2.006c0.185-0.274,0.351-0.568,0.488-0.876
				C31.916,15.593,31.962,13.954,31.387,12.451z"/>
		</g>
		<g>
			<path fill="#49CCDA" d="M31.313,9.279c-0.219,0-0.438-0.079-0.614-0.235c-0.385-0.339-0.421-0.925-0.082-1.31l2.546-2.885
				c0.341-0.385,0.927-0.421,1.312-0.079c0.384,0.339,0.422,0.925,0.081,1.31l-2.548,2.885C31.826,9.172,31.569,9.279,31.313,9.279z
				"/>
			<path fill="#49CCDA" d="M26.561,6.977c-0.166,0.14-0.383,0.226-0.618,0.22c-0.513-0.009-0.921-0.431-0.911-0.943l0.067-3.847
				c0.007-0.513,0.43-0.922,0.944-0.913c0.512,0.009,0.921,0.431,0.911,0.943l-0.066,3.847C26.881,6.564,26.758,6.809,26.561,6.977z
				"/>
			<path fill="#49CCDA" d="M21.571,8.223c-0.038,0.214-0.152,0.415-0.339,0.559c-0.401,0.317-0.986,0.248-1.304-0.156L17.551,5.6
				c-0.316-0.403-0.248-0.986,0.155-1.304c0.404-0.314,0.988-0.244,1.306,0.156l2.377,3.026C21.561,7.697,21.619,7.969,21.571,8.223
				z"/>
			<path fill="#49CCDA" d="M31.968,19.12c-0.038-0.214,0-0.443,0.124-0.644c0.271-0.437,0.841-0.571,1.277-0.302l3.276,2.018
				c0.436,0.272,0.572,0.843,0.304,1.279c-0.27,0.437-0.841,0.571-1.279,0.302l-3.276-2.018
				C32.157,19.608,32.008,19.373,31.968,19.12z"/>
			<path fill="#49CCDA" d="M33.434,14.002c-0.17-0.141-0.288-0.339-0.325-0.571c-0.082-0.507,0.263-0.983,0.77-1.063l3.8-0.608
				c0.505-0.079,0.983,0.266,1.063,0.772c0.082,0.507-0.265,0.983-0.768,1.063l-3.802,0.608
				C33.896,14.247,33.631,14.164,33.434,14.002z"/>
			<path fill="#49CCDA" d="M31.314,9.279c-0.22,0-0.438-0.076-0.615-0.232c-0.383-0.342-0.421-0.928-0.082-1.313l2.546-2.885
				c0.339-0.385,0.927-0.421,1.312-0.079c0.384,0.339,0.42,0.925,0.081,1.31l-2.548,2.885C31.826,9.172,31.569,9.279,31.314,9.279z"
				/>
		</g>
	</g>
	<g>
		<path fill="#FFFFFF" d="M23.825,26.225H4.746C2.13,26.225,0,24.097,0,21.48s2.13-4.745,4.746-4.745c0.479,0,0.95,0.07,1.4,0.211
			c0.708-3.56,3.875-6.265,7.622-6.265c3.083,0,5.829,1.816,7.072,4.546c0.897-0.528,1.922-0.809,2.984-0.809
			c3.253,0,5.9,2.647,5.9,5.902C29.726,23.578,27.078,26.225,23.825,26.225z M4.746,18.591c-1.594,0-2.888,1.298-2.888,2.889
			s1.294,2.885,2.888,2.885h19.079c2.229,0,4.045-1.813,4.045-4.045c0-2.229-1.816-4.046-4.045-4.046
			c-1.046,0-2.038,0.4-2.794,1.121c-0.236,0.229-0.577,0.314-0.895,0.223c-0.316-0.092-0.563-0.339-0.645-0.66
			c-0.678-2.602-3.031-4.421-5.724-4.421c-3.213,0-5.865,2.617-5.912,5.829c-0.005,0.345-0.198,0.656-0.506,0.812
			c-0.305,0.159-0.673,0.131-0.954-0.064C5.91,18.771,5.339,18.591,4.746,18.591z"/>
	</g>
</g>
</svg>
