<?xml version="1.0" encoding="utf-8"?>
<!-- Generator: Adobe Illustrator 16.0.0, SVG Export Plug-In . SVG Version: 6.00 Build 0)  -->
<!DOCTYPE svg PUBLIC "-//W3C//DTD SVG 1.1//EN" "http://www.w3.org/Graphics/SVG/1.1/DTD/svg11.dtd">
<svg version="1.1" id="Layer_1" xmlns="http://www.w3.org/2000/svg" xmlns:xlink="http://www.w3.org/1999/xlink" x="0px" y="0px"
	 width="12.957px" height="26.193px" viewBox="0 0 12.957 26.193" enable-background="new 0 0 12.957 26.193" xml:space="preserve">
<g>
	<path fill="#00FFF7" d="M12.844,3.137c0.07-0.069,0.113-0.166,0.113-0.271c0-0.106-0.043-0.203-0.113-0.272L10.07-0.179
		C10.003-0.248,9.904-0.291,9.8-0.291C9.693-0.29,9.598-0.247,9.527-0.18L0.113,9.232C0.043,9.302,0,9.398,0,9.506
		c0,0.106,0.043,0.203,0.113,0.271l2.771,2.773c0.07,0.069,0.166,0.113,0.273,0.112c0.106,0,0.203-0.043,0.272-0.111L12.844,3.137z"
		/>
</g>
<g>
	<path fill="#FFFFFF" d="M12.844,16.669c0.07-0.069,0.113-0.166,0.113-0.271c0-0.106-0.043-0.203-0.113-0.272l-2.773-2.772
		C10.003,13.283,9.904,13.24,9.8,13.24c-0.106,0.001-0.202,0.044-0.272,0.111l-9.415,9.412C0.043,22.834,0,22.93,0,23.037
		c0,0.106,0.043,0.203,0.113,0.271l2.771,2.773c0.07,0.069,0.166,0.113,0.273,0.112c0.106,0,0.203-0.043,0.272-0.111L12.844,16.669z
		"/>
</g>
</svg>
