<?xml version="1.0" encoding="utf-8"?>
<!-- Generator: Adobe Illustrator 16.0.0, SVG Export Plug-In . SVG Version: 6.00 Build 0)  -->
<!DOCTYPE svg PUBLIC "-//W3C//DTD SVG 1.1//EN" "http://www.w3.org/Graphics/SVG/1.1/DTD/svg11.dtd">
<svg version="1.1" id="Layer_1" xmlns="http://www.w3.org/2000/svg" xmlns:xlink="http://www.w3.org/1999/xlink" x="0px" y="0px"
	 width="19px" height="19px" viewBox="0 0 19 19" enable-background="new 0 0 19 19" xml:space="preserve">
<g>
	<path fill-rule="evenodd" clip-rule="evenodd" fill="#FFFFFF" d="M13.184,7.252c-0.434,0-0.84,0-1.26,0c0-1.046,0-2.083,0-3.134
		c-2.299,0-4.584,0-6.9,0c0.063,0.047,0.107,0.086,0.158,0.118c0.508,0.341,1.012,0.685,1.525,1.016
		C6.828,5.33,6.871,5.411,6.871,5.553c-0.006,2.803-0.006,5.606-0.006,8.409c0,0.076,0,0.154,0,0.241c1.688,0,3.355,0,5.049,0
		c0-1.042,0-2.084,0-3.138c0.43,0,0.84,0,1.27,0c0,0.064,0,0.122,0,0.179c0,1.276,0,2.553,0,3.83c0,0.3-0.102,0.401-0.4,0.401
		c-1.889,0.001-3.775,0-5.664,0c-0.076,0-0.154,0-0.246,0c0,0.845,0,1.671,0,2.524c-0.082-0.034-0.137-0.057-0.195-0.083
		c-1.484-0.744-2.971-1.488-4.455-2.232c-0.084-0.04-0.182-0.072-0.236-0.137c-0.074-0.089-0.123-0.203-0.172-0.312
		c-0.018-0.038-0.002-0.089-0.002-0.136c0-3.935,0-7.87,0-11.805c0-0.376,0.078-0.455,0.465-0.455c3.486,0,6.973,0,10.459,0
		c0.365,0,0.447,0.084,0.447,0.454c0,1.243,0,2.488,0,3.731C13.184,7.098,13.184,7.167,13.184,7.252z"/>
	<path fill-rule="evenodd" clip-rule="evenodd" fill="#FFFFFF" d="M14.451,8.527c0-0.639,0-1.248,0-1.836
		c0.822,0.825,1.654,1.655,2.467,2.47c-0.805,0.802-1.637,1.634-2.465,2.463c0-0.586,0-1.194,0-1.834c-0.088,0-0.164,0-0.238,0
		c-1.889,0-3.777,0-5.666,0c-0.324,0-0.418-0.095-0.422-0.423c0-0.158,0-0.315,0.004-0.475C8.133,8.63,8.242,8.527,8.525,8.527
		c1.889,0,3.775,0,5.666,0C14.27,8.527,14.344,8.527,14.451,8.527z"/>
</g>
</svg>
