<?xml version="1.0" encoding="utf-8"?>
<!-- Generator: Adobe Illustrator 16.0.0, SVG Export Plug-In . SVG Version: 6.00 Build 0)  -->
<!DOCTYPE svg PUBLIC "-//W3C//DTD SVG 1.1//EN" "http://www.w3.org/Graphics/SVG/1.1/DTD/svg11.dtd">
<svg version="1.1" id="Layer_1" xmlns="http://www.w3.org/2000/svg" xmlns:xlink="http://www.w3.org/1999/xlink" x="0px" y="0px"
	 width="25px" height="18px" viewBox="0 0 25 18" enable-background="new 0 0 25 18" xml:space="preserve">
<path fill="none" stroke="#FFFFFF" stroke-width="0.7" stroke-miterlimit="10" d="M1.964,16.323c0-4.961,0-9.922,0-14.884
	c1.959,0,3.918,0.003,5.876-0.004c0.161-0.001,0.255,0.053,0.346,0.178C8.769,2.4,9.363,3.18,9.944,3.967
	c0.098,0.133,0.199,0.183,0.365,0.183c3.22-0.005,6.439-0.004,9.659-0.004c0.083,0,0.165,0,0.246,0c0,0.466,0,0.904,0,1.354
	c-5.187,0-10.359,0-15.543,0c-0.095,0.3-0.188,0.594-0.28,0.889c-0.454,1.449-0.908,2.898-1.358,4.349
	c-0.021,0.066-0.036,0.171-0.001,0.21c0.188,0.212,0.396,0.409,0.615,0.631c0.028-0.076,0.045-0.113,0.056-0.152
	c0.526-1.678,1.053-3.354,1.57-5.035c0.055-0.176,0.133-0.219,0.308-0.219c6.011,0.004,12.021,0.004,18.032,0.004
	c0,0.014,0,0.028,0,0.042c-0.025,0.057-0.057,0.113-0.075,0.172c-1.075,3.227-2.153,6.453-3.22,9.683
	c-0.067,0.203-0.156,0.257-0.367,0.257C13.955,16.322,7.96,16.323,1.964,16.323z"/>
</svg>
