<?xml version="1.0" encoding="utf-8"?>
<!-- Generator: Adobe Illustrator 16.0.0, SVG Export Plug-In . SVG Version: 6.00 Build 0)  -->
<!DOCTYPE svg PUBLIC "-//W3C//DTD SVG 1.1//EN" "http://www.w3.org/Graphics/SVG/1.1/DTD/svg11.dtd">
<svg version="1.1" id="Layer_1" xmlns="http://www.w3.org/2000/svg" xmlns:xlink="http://www.w3.org/1999/xlink" x="0px" y="0px"
	 width="34px" height="34px" viewBox="0 0 34 34" enable-background="new 0 0 34 34" xml:space="preserve">
<path fill-rule="evenodd" clip-rule="evenodd" fill="#FDFDFD" d="M26.438,6.608c-6.066,0-12.133,0-18.201,0
	c-0.799,0.066-1.232,0.5-1.299,1.301c0,0.107,0,0.215,0,0.324c2.283,2.529,4.562,5.064,6.857,7.58
	c0.266,0.291,0.334,0.582,0.332,0.949c-0.008,2.137-0.008,4.273-0.002,6.41c0.002,1.563,0.555,2.367,2.023,2.965
	c1.045,0.426,2.092,0.848,3.139,1.27c0.217,0,0.434,0,0.65,0c0.809-0.375,0.865-1.109,0.867-1.857
	c0.009-2.814,0.004-5.631,0.002-8.445c0-0.469,0.045-0.904,0.387-1.281c1.522-1.686,3.059-3.361,4.553-5.072
	c0.699-0.803,1.613-1.455,1.99-2.518c0-0.109,0-0.217,0-0.324C27.67,7.108,27.236,6.674,26.438,6.608z M18.946,25.54
	c-0.938-0.383-1.79-0.699-2.613-1.076c-0.416-0.189-0.61-0.572-0.61-1.057c0.01-2.215,0.011-4.428-0.002-6.643
	c-0.005-0.4,0.078-0.604,0.528-0.563c0.878,0.08,2-0.361,2.563,0.184c0.412,0.396,0.129,1.529,0.133,2.334
	C18.951,20.954,18.946,23.186,18.946,25.54z M20.055,14.37c-0.215,0.24-0.467,0.217-0.736,0.217c-1.324-0.004-2.648,0-3.974-0.002
	c-0.235,0-0.476,0.051-0.673-0.17c-1.811-2.023-3.631-4.043-5.529-6.154c5.498,0,10.861,0,16.385,0
	C23.646,10.358,21.845,12.358,20.055,14.37z"/>
</svg>
