<?xml version="1.0" encoding="utf-8"?>
<!-- Generator: Adobe Illustrator 16.0.0, SVG Export Plug-In . SVG Version: 6.00 Build 0)  -->
<!DOCTYPE svg PUBLIC "-//W3C//DTD SVG 1.1//EN" "http://www.w3.org/Graphics/SVG/1.1/DTD/svg11.dtd">
<svg version="1.1" id="Layer_1" xmlns="http://www.w3.org/2000/svg" xmlns:xlink="http://www.w3.org/1999/xlink" x="0px" y="0px"
	 width="19px" height="19px" viewBox="0 0 19 19" enable-background="new 0 0 19 19" xml:space="preserve">
<g>
	<path fill-rule="evenodd" clip-rule="evenodd" fill="#FFFFFF" d="M4.122,6.216C4.071,5.143,4.134,4.098,4.558,3.108
		c0.504-1.162,1.41-1.879,2.604-2.215c1.547-0.438,3.111-0.465,4.645,0.056c1.266,0.429,2.279,1.199,2.764,2.499
		c0.555,1.491,0.48,2.941-0.543,4.215c-0.445,0.553-1.029,0.992-1.559,1.474c-0.199,0.179-0.428,0.325-0.639,0.486
		c-0.625,0.471-0.945,1.094-0.957,1.879c0,0.21,0.018,0.424-0.02,0.629c-0.02,0.102-0.121,0.203-0.207,0.272
		c-0.059,0.044-0.162,0.037-0.246,0.041c-0.75,0.036-1.502,0.07-2.258,0.104c-0.066,0.002-0.137,0.002-0.207-0.006
		c-0.248-0.026-0.279-0.072-0.283-0.319c-0.018-0.626,0.037-1.246,0.188-1.855c0.219-0.884,0.785-1.526,1.453-2.092
		c0.35-0.293,0.721-0.56,1.08-0.84c0.598-0.46,1.025-1.044,1.133-1.79c0.176-1.231-0.734-2.437-2.01-2.474
		c-1.387-0.04-2.213,1.082-2.158,2.205C7.349,5.602,7.358,5.826,7.37,6.067C6.288,6.117,5.218,6.166,4.122,6.216z"/>
	<path fill-rule="evenodd" clip-rule="evenodd" fill="#FFFFFF" d="M11.337,16.038c0.051,1.164-0.713,1.984-1.898,2.038
		c-1.164,0.052-2.037-0.725-2.08-1.844c-0.041-1.156,0.748-2.025,1.887-2.075C10.421,14.104,11.286,14.882,11.337,16.038z"/>
</g>
</svg>
