<?xml version="1.0" encoding="utf-8"?>
<!-- Generator: Adobe Illustrator 16.0.0, SVG Export Plug-In . SVG Version: 6.00 Build 0)  -->
<!DOCTYPE svg PUBLIC "-//W3C//DTD SVG 1.1//EN" "http://www.w3.org/Graphics/SVG/1.1/DTD/svg11.dtd">
<svg version="1.1" id="Layer_1" xmlns="http://www.w3.org/2000/svg" xmlns:xlink="http://www.w3.org/1999/xlink" x="0px" y="0px"
	 width="57px" height="56.5px" viewBox="0 -12.5 57 56.5" enable-background="new 0 -12.5 57 56.5" xml:space="preserve">
<g id="_x23_ffffffff">
	<path fill="#FFFFFF" d="M18.658-9.167h8.815c0.638,0.26,1.9,0.778,2.538,1.037c3.624,1.573,6.653,3.939,8.533,6.882
		c0.365,0.853,0.752,1.689,1.169,2.525c0.565,2.533,0.605,5.101,0.115,7.642c-1.421,1.974-3.343,3.663-5.505,5.134
		c1.16,1.656,2.478,3.237,3.739,4.851c4.815,5.801,9.631,11.614,14.341,17.477v3.261l-0.586-0.011l-0.072,0.536h-6.35
		c-1.129-1.196-2.121-2.458-3.145-3.703c-1.337-1.699-2.777-3.337-4.167-5.01c-1.337-1.706-2.768-3.36-4.188-5.017
		c-0.879-1.188-1.818-2.333-2.706-3.512c-1.556-1.322-2.955-2.76-4.145-4.305c-3.5,1.168-7.239,0.508-10.727-0.319
		c-3.604-1.604-6.632-3.963-8.648-6.848c-0.752-1.589-1.514-3.168-2.267-4.75V3.259c1.17-1.823,1.838-3.922,3.75-5.386
		C10.636-5.596,14.574-7.828,18.658-9.167 M13.989-4.802c-3.687,2.266-3.833,6.305-2.058,9.465c0.261,0.452,0.793,1.338,1.065,1.781
		c1.89,2.901,4.961,5.293,8.585,6.807c3.133,1.053,6.517,1.32,9.629,0.049c2.496-1.037,4.563-2.617,6.245-4.406
		c0.93-2.508,0.689-5.117,0.177-7.667c-1.878-4.006-5.91-7.017-10.777-8.68C22.313-7.828,17.269-7.753,13.989-4.802 M9.707,5.283
		C10.459,5.75,10.459,5.75,9.707,5.283z"/>
</g>
</svg>
