<?xml version="1.0" encoding="utf-8"?>
<!-- Generator: Adobe Illustrator 16.0.0, SVG Export Plug-In . SVG Version: 6.00 Build 0)  -->
<!DOCTYPE svg PUBLIC "-//W3C//DTD SVG 1.1//EN" "http://www.w3.org/Graphics/SVG/1.1/DTD/svg11.dtd">
<svg version="1.1" id="Layer_1" xmlns="http://www.w3.org/2000/svg" xmlns:xlink="http://www.w3.org/1999/xlink" x="0px" y="0px"
	 width="16.428px" height="15.354px" viewBox="-3.471 -3.132 16.428 15.354" enable-background="new -3.471 -3.132 16.428 15.354"
	 xml:space="preserve">
<g>
	<title></title>
	<desc></desc>
	<g id="Page-1_4_">
		<g id="Icons-AV_4_" transform="translate(-168.000000, -85.000000)">
			<g id="play-circle-outline_1_" transform="translate(168.000000, 85.000000)">
				<path id="Shape_4_" fill="#FFFFFF" d="M3.101,7.907l4.927-3.426L3.101,1.055V7.907L3.101,7.907z M4.745-3.132
					c-4.519,0-8.215,3.426-8.215,7.613c0,4.188,3.697,7.614,8.215,7.614c4.518,0,8.212-3.426,8.212-7.614
					C12.957,0.295,9.263-3.132,4.745-3.132L4.745-3.132z M4.745,10.573c-3.615,0-6.573-2.741-6.573-6.092
					c0-3.35,2.958-6.091,6.573-6.091c3.61,0,6.571,2.741,6.571,6.091C11.315,7.832,8.354,10.573,4.745,10.573L4.745,10.573z"/>
			</g>
		</g>
	</g>
</g>
</svg>
