<?xml version="1.0" encoding="utf-8"?>
<!-- Generator: Adobe Illustrator 16.0.0, SVG Export Plug-In . SVG Version: 6.00 Build 0)  -->
<!DOCTYPE svg PUBLIC "-//W3C//DTD SVG 1.1//EN" "http://www.w3.org/Graphics/SVG/1.1/DTD/svg11.dtd">
<svg version="1.1" id="Layer_1" xmlns="http://www.w3.org/2000/svg" xmlns:xlink="http://www.w3.org/1999/xlink" x="0px" y="0px"
	 width="57px" height="44px" viewBox="0 0 57 44" enable-background="new 0 0 57 44" xml:space="preserve">
<g id="_x23_ffffffff">
	<path fill="#FFFFFF" d="M4.227,4.761L4.73,4.336c2.673,0.328,5.294,1.155,7.896,1.958c-0.303,7.889-2.757,15.278-4.57,22.75
		c-1.909,0.208-3.829,0.208-5.744,0.164c-0.343-5.14,0.617-10.153,0.641-15.278C3.758,11.047,3.817,7.807,4.227,4.761z"/>
	<path fill="#FFFFFF" d="M22.548,9.312c2.887-3.337,6.887-4.357,10.699-3.688c0.594,1.185,1.647,1.676,2.62,2.22
		c1.583,0.767,3.124,1.706,4.796,2.175c1.262,1.103,1.736,2.973,2.382,4.626c0.297,1.028,0.604,2.041,0.907,3.069
		c0.936,3.017,1.808,6.07,2.543,9.177c-0.522,0.566-1.043,1.125-1.57,1.669c-3.51-5.252-7.41-10.123-11.689-14.376
		c-1.173-1.065-2.389-2.823-3.972-2.025c-0.676,1.035-1.79,0.565-2.691,0.715c-0.474,0.871-0.937,1.757-1.381,2.651
		c-1.15,1.788-2.769,2.383-4.546,1.803c0.018-1.14,0.036-2.287,0.053-3.434C21.232,12.314,21.867,10.801,22.548,9.312z"/>
	<path fill="#FFFFFF" d="M15.394,6.883c1.997,0,4,0.007,5.999-0.007c-1.228,2.152-2.039,4.596-2.721,7.083
		c0.024,1.051-0.071,2.079-0.278,3.091c0.391,0.813,0.741,1.661,1.256,2.369c1.121,1.394,2.822,0.73,4.227,0.886
		c1.34-1.296,2.715-2.599,3.533-4.506c1.251-0.506,2.768-1.386,3.913-0.067c2.312,2.317,4.647,4.64,6.691,7.338
		c2.157,2.778,4.678,5.415,5.773,9.154c0.285,1.505-0.979,2.309-1.98,2.376c-1.984-2.696-4.166-5.147-6.281-7.679
		c-0.873-0.925-1.519-2.66-2.876-2.184c-1.066,1.646,0.284,3.293,1.274,4.313c2.247,2.354,4.445,4.783,6.484,7.428
		c-0.936,0.751-2.039,2.568-3.165,1.213c-2.406-2.904-5.079-5.43-7.415-8.432c-0.338,0.454-1.008,1.349-1.346,1.795
		c2.099,3.218,4.76,5.698,7.202,8.463c-1.097,0.484-2.377,1.526-3.45,0.372c-2.252-1.75-3.758-4.626-5.613-6.942
		c-0.854-0.343-1.909,0.387-1.832,1.602c1.512,2.31,3.373,4.224,4.831,6.6h-1.434c-3.064-1.497-5.187-4.827-7.783-7.219
		c-3.124-2.546-5.554-6.159-8.648-8.76C12.963,19.078,14.345,13.029,15.394,6.883z"/>
	<path fill="#FFFFFF" d="M43.738,9.855c2.691-1.207,5.542-1.877,8.399-1.416c0.119,0.171,0.355,0.507,0.475,0.678
		c1.713,5.169,2.027,10.831,3.028,16.23v2.578c-2.146-0.045-4.285-0.015-6.431-0.112c-0.362-1.146-0.724-2.288-1.108-3.419
		c-0.184-0.752-0.374-1.497-0.574-2.234c-0.196-0.73-0.398-1.46-0.605-2.183c-0.558-2.003-1.167-3.985-1.772-5.975
		C44.687,12.619,44.225,11.233,43.738,9.855z"/>
</g>
</svg>
