<?xml version="1.0" encoding="utf-8"?>
<!-- Generator: Adobe Illustrator 16.0.0, SVG Export Plug-In . SVG Version: 6.00 Build 0)  -->
<!DOCTYPE svg PUBLIC "-//W3C//DTD SVG 1.1//EN" "http://www.w3.org/Graphics/SVG/1.1/DTD/svg11.dtd">
<svg version="1.1" id="Layer_1" xmlns="http://www.w3.org/2000/svg" xmlns:xlink="http://www.w3.org/1999/xlink" x="0px" y="0px"
	 width="57px" height="44px" viewBox="0 0 57 44" enable-background="new 0 0 57 44" xml:space="preserve">
<g>
	<path fill="#FFFFFF" d="M36.813,4.949c0-0.5-0.009-1,0.002-1.5c0.037-1.602,1.745-2.854,3.865-2.844
		c2.082,0.01,3.767,1.27,3.79,2.854c0.018,1.014,0.021,2.03-0.001,3.044c-0.032,1.573-1.748,2.829-3.834,2.825
		c-2.082-0.003-3.781-1.26-3.819-2.835C36.805,5.979,36.813,5.464,36.813,4.949z"/>
	<path fill="#FFFFFF" d="M17.656,5.013c0,0.484,0.008,0.969-0.001,1.453c-0.032,1.565-1.667,2.821-3.722,2.862
		c-2.083,0.042-3.844-1.166-3.921-2.749c-0.054-1.073-0.054-2.149,0-3.224c0.081-1.583,1.813-2.771,3.923-2.749
		c2.029,0.022,3.688,1.296,3.719,2.862C17.665,3.983,17.656,4.498,17.656,5.013z"/>
	<path fill="none" d="M6.191,13.717c0,7.74,0,15.457,0,23.21c8.069,0,16.12,0,24.164,0c-0.315-0.888-0.486-1.82-0.486-2.784
		c0-5.876,6.275-10.639,14.013-10.639c1.53,0,3.001,0.188,4.376,0.531c0-3.442,0-6.881,0-10.319
		C34.216,13.717,20.218,13.717,6.191,13.717z"/>
	<path fill="#FFFFFF" d="M6.191,36.927c0-7.753,0-15.47,0-23.21c14.027,0,28.024,0,42.066,0c0,3.437,0,6.877,0,10.318
		c2.233,0.557,4.217,1.527,5.796,2.792c0-7.408,0-14.815,0-22.223c0-0.091,0.002-0.181,0-0.272
		c-0.024-0.532-0.378-0.813-1.082-0.815c-2.095-0.006-4.188-0.002-6.282,0c-0.093,0-0.185,0.025-0.299,0.043
		c0,1.201-0.005,2.381,0.001,3.562c0.004,0.842-0.358,1.582-1.125,2.184c-1.665,1.307-3.704,1.736-6.017,1.332
		c-2.946-0.513-4.351-1.882-4.351-4.153c0-0.258,0-0.515,0-0.773c0-0.722,0-1.443,0-2.165c-5.147,0-10.222,0-15.326,0
		c0,1.214-0.003,2.393,0,3.574c0.004,0.878-0.422,1.621-1.227,2.244c-1.769,1.376-4.548,1.794-6.968,1.049
		C9.128,9.722,8.08,8.546,8.08,6.711c0-1.043,0-2.087,0-3.197c-2.123,0-4.175-0.001-6.226,0c-1.174,0-1.438,0.199-1.438,1.091
		c-0.001,11.875,0,23.75,0,35.625c0,0.891,0.262,1.092,1.436,1.092c10.563,0,21.125,0,31.689,0
		c-1.487-1.233-2.592-2.734-3.187-4.396C22.313,36.927,14.26,36.927,6.191,36.927z"/>
	<g>
		<path fill="#FFFFFF" d="M45.398,35.893c-0.009-0.007-0.017-0.012-0.028-0.019C45.38,35.881,45.392,35.886,45.398,35.893
			L45.398,35.893z"/>
		<polygon fill="#FFFFFF" points="45.334,35.85 45.335,35.85 45.335,35.85 		"/>
		<path fill="#FFFFFF" d="M39.208,32.337L39.208,32.337L39.208,32.337z"/>
		<path fill="#FFFFFF" d="M53.24,28.076c-1.359-1.09-3.067-1.923-4.987-2.402c-1.185-0.296-2.452-0.459-3.767-0.459
			c-6.663,0-12.064,4.103-12.064,9.158c0,0.83,0.147,1.633,0.42,2.398c0.511,1.429,1.462,2.721,2.744,3.782
			c2.204,1.829,5.374,2.978,8.9,2.978c6.663,0,12.063-4.101,12.063-9.158C56.549,31.935,55.29,29.719,53.24,28.076z M37.494,33.836
			c0.021-0.221,0.062-0.424,0.137-0.604c0.163-0.391,0.512-0.576,1.181-0.756c0.152-0.036,0.285-0.085,0.399-0.142
			c0.394-0.194,0.591-0.461,0.686-0.709c-0.063-0.059-0.134-0.124-0.211-0.203c-0.023-0.028-0.05-0.055-0.076-0.084
			c-0.132-0.146-0.223-0.316-0.27-0.497c-0.011-0.043-0.022-0.089-0.031-0.136c0,0-0.501-1.241,0.618-1.727
			c0.982-0.313,1.771,0.04,1.995,0.478c0.213,0.409,0.155,0.836,0.018,1.248c-0.009,0.048-0.021,0.092-0.032,0.137
			c-0.043,0.181-0.138,0.35-0.27,0.497c-0.035,0.038-0.069,0.076-0.103,0.11c-0.064,0.067-0.124,0.126-0.184,0.176
			c0.057,0.152,0.146,0.31,0.289,0.448c0.007,0.007,0.014,0.014,0.018,0.018c0.001,0.002,0.006,0.003,0.006,0.005
			c0.09,0.082,0.2,0.156,0.334,0.224c0.013,0.007,0.028,0.013,0.041,0.02c0.044,0.021,0.087,0.037,0.134,0.056
			c0.113,0.039,0.216,0.064,0.216,0.064c0.668,0.179,0.92,0.402,1.15,0.773c0.085,0.134,0.139,0.295,0.172,0.484
			c-0.845,0.582-1.969,0.938-3.199,0.938C39.367,34.654,38.316,34.348,37.494,33.836z M47.011,38.825
			c-1.472,0-2.822-0.395-3.875-1.052c0.025-0.282,0.076-0.543,0.173-0.774c0.211-0.502,0.658-0.74,1.52-0.972
			c0.191-0.045,0.362-0.109,0.513-0.181c0.502-0.25,0.754-0.591,0.877-0.912c-0.083-0.072-0.173-0.16-0.27-0.261
			c-0.031-0.034-0.063-0.069-0.097-0.105c-0.169-0.19-0.286-0.407-0.348-0.638c-0.012-0.058-0.027-0.116-0.039-0.177
			c0,0-0.645-1.594,0.794-2.216c1.261-0.4,2.273,0.051,2.56,0.612c0.272,0.526,0.199,1.075,0.024,1.604
			c-0.014,0.061-0.026,0.119-0.042,0.177c-0.057,0.23-0.179,0.448-0.348,0.638c-0.045,0.049-0.088,0.097-0.131,0.141
			c-0.084,0.087-0.162,0.163-0.232,0.226c0.069,0.195,0.186,0.398,0.369,0.577c0.009,0.009,0.017,0.015,0.023,0.021
			c0.001,0.001,0.005,0.004,0.005,0.005c0.118,0.106,0.259,0.203,0.43,0.288c0.019,0.01,0.035,0.017,0.054,0.025
			c0.053,0.024,0.11,0.048,0.168,0.069c0.148,0.054,0.277,0.085,0.277,0.085c0.862,0.231,1.184,0.518,1.478,0.993
			c0.111,0.171,0.181,0.381,0.224,0.621C50.033,38.368,48.593,38.825,47.011,38.825z"/>
	</g>
	<rect x="15.126" y="16.286" fill="#FFFFFF" width="4.534" height="18.071"/>
	<rect x="24.38" y="16.286" fill="#FFFFFF" width="4.534" height="18.071"/>
	<rect x="33.825" y="16.286" fill="#FFFFFF" width="4.533" height="13.544"/>
	<rect x="10.971" y="20.182" fill="#FFFFFF" width="33.516" height="3.44"/>
	<rect x="10.971" y="26.92" fill="#FFFFFF" width="27.388" height="3.442"/>
</g>
</svg>
