<?xml version="1.0" encoding="utf-8"?>
<!-- Generator: Adobe Illustrator 16.0.0, SVG Export Plug-In . SVG Version: 6.00 Build 0)  -->
<!DOCTYPE svg PUBLIC "-//W3C//DTD SVG 1.1//EN" "http://www.w3.org/Graphics/SVG/1.1/DTD/svg11.dtd">
<svg version="1.1" id="Calque_1" xmlns="http://www.w3.org/2000/svg" xmlns:xlink="http://www.w3.org/1999/xlink" x="0px" y="0px"
	 width="841.89px" height="595.28px" viewBox="0 0 841.89 595.28" enable-background="new 0 0 841.89 595.28" xml:space="preserve">
<rect fill="#1D1D1B" width="841.89" height="595.28"/>
<g>
	<path fill="#FFFFFF" d="M59.983,510.969c5.957,0,10.803,4.846,10.803,10.803s-4.846,10.805-10.803,10.805
		c-5.956,0-10.803-4.848-10.803-10.805S54.027,510.969,59.983,510.969 M59.983,509.852c-6.584,0-11.92,5.338-11.92,11.92
		c0,6.584,5.336,11.922,11.92,11.922c6.585,0,11.921-5.338,11.921-11.922C71.904,515.189,66.568,509.852,59.983,509.852
		L59.983,509.852z"/>
	<path fill="#FFFFFF" d="M66.163,526.945v-4.572c0-2.449-1.308-3.59-3.052-3.59c-1.407,0-2.037,0.773-2.388,1.316v-1.131h-2.651
		c0.034,0.75,0,7.977,0,7.977h2.651v-4.453c0-0.238,0.017-0.479,0.087-0.646c0.191-0.477,0.627-0.969,1.359-0.969
		c0.959,0,1.344,0.73,1.344,1.803v4.266H66.163L66.163,526.945z M55.279,517.881c0.924,0,1.499-0.613,1.499-1.377
		c-0.017-0.783-0.575-1.379-1.482-1.379c-0.906,0-1.498,0.596-1.498,1.377c0,0.766,0.575,1.379,1.465,1.379H55.279L55.279,517.881z
		 M56.604,526.945v-7.977h-2.65v7.977H56.604z"/>
</g>
<g>
	<path fill="#FFFFFF" d="M59.984,419.828c5.808,0,10.532,4.726,10.532,10.533c0,5.807-4.725,10.533-10.532,10.533
		c-5.809,0-10.534-4.727-10.534-10.533C49.45,424.554,54.176,419.828,59.984,419.828 M59.984,418.737
		c-6.42,0-11.623,5.204-11.623,11.624c0,6.418,5.203,11.623,11.623,11.623c6.419,0,11.622-5.205,11.622-11.623
		C71.606,423.942,66.403,418.737,59.984,418.737L59.984,418.737z"/>
	<path fill-rule="evenodd" clip-rule="evenodd" fill="#FFFFFF" d="M63.241,423.836c0,0.723,0,1.436,0,2.168
		c-0.329,0-0.65-0.004-0.972,0.001c-0.187,0.003-0.375,0.005-0.561,0.03c-0.432,0.056-0.619,0.245-0.634,0.677
		c-0.016,0.482-0.003,0.965-0.003,1.465c0.72,0,1.438,0,2.177,0c-0.087,0.738-0.173,1.455-0.258,2.184c-0.642,0-1.271,0-1.917,0
		c0,2.183,0,4.354,0,6.535c-0.951,0-1.884,0-2.829,0c0-2.173,0-4.339,0-6.524c-0.515,0-1.016,0-1.527,0c0-0.735,0-1.452,0-2.183
		c0.503,0,1.001,0,1.522,0c0-0.073,0-0.131,0-0.192c0.012-0.63-0.01-1.262,0.042-1.887c0.08-0.943,0.498-1.693,1.437-2.025
		c0.379-0.134,0.792-0.219,1.194-0.238C61.682,423.81,62.455,423.836,63.241,423.836z"/>
</g>
<g>
	<g>
		<path fill-rule="evenodd" clip-rule="evenodd" fill="#FFFFFF" d="M57.396,462.721c-0.229-0.377-0.307-0.756-0.231-1.146
			c-0.334-0.047-0.668-0.066-0.987-0.141c-1.224-0.287-2.089-1.334-2.109-2.572c-0.017-0.9,0.361-1.641,1.017-2.244
			c0.623-0.578,1.385-0.865,2.215-0.977c0.369-0.049,0.745-0.064,1.121-0.068c1.325-0.006,2.651-0.002,3.978-0.002
			c0.058,0,0.116,0,0.174,0c0.003,0.01,0.006,0.02,0.01,0.029c-0.144,0.08-0.287,0.16-0.432,0.24
			c-0.384,0.211-0.776,0.414-1.155,0.635c-0.222,0.131-0.447,0.213-0.74,0.16c0.053,0.072,0.08,0.113,0.111,0.154
			c0.98,1.238,0.845,2.752-0.344,3.795c-0.204,0.178-0.425,0.338-0.619,0.525c-0.319,0.307-0.303,0.582,0.042,0.863
			c0.386,0.316,0.79,0.613,1.169,0.939c0.48,0.412,0.831,0.914,0.92,1.563c0.135,0.969-0.212,1.764-0.903,2.418
			c-0.644,0.609-1.433,0.932-2.293,1.084c-1.063,0.191-2.119,0.186-3.158-0.143c-0.531-0.168-1.008-0.434-1.384-0.854
			c-0.772-0.865-0.721-2.096,0.116-2.961c0.562-0.58,1.265-0.895,2.032-1.068c0.423-0.096,0.855-0.141,1.285-0.207
			C57.276,462.736,57.323,462.73,57.396,462.721z M57.839,466.938c0.373-0.004,0.796-0.051,1.202-0.209
			c0.996-0.389,1.259-1.525,0.429-2.229c-0.344-0.289-0.714-0.549-1.076-0.816c-0.043-0.031-0.113-0.041-0.17-0.037
			c-0.303,0.012-0.608,0.018-0.91,0.051c-0.527,0.059-1.039,0.174-1.494,0.467c-0.287,0.188-0.499,0.434-0.584,0.773
			c-0.15,0.605,0.122,1.201,0.715,1.559C56.515,466.832,57.137,466.926,57.839,466.938z M59.06,459.326
			c0.002-0.482-0.081-0.875-0.223-1.254c-0.182-0.49-0.429-0.941-0.877-1.242c-0.757-0.51-1.772-0.092-1.906,0.807
			c-0.138,0.93,0.107,1.771,0.719,2.486c0.394,0.463,0.965,0.592,1.507,0.383C58.829,460.293,59.062,459.92,59.06,459.326z"/>
		<path fill-rule="evenodd" clip-rule="evenodd" fill="#FFFFFF" d="M64.201,455.578c0.387,0,0.743,0,1.112,0c0,0.844,0,1.68,0,2.531
			c0.851,0,1.688,0,2.537,0c0,0.377,0,0.738,0,1.111c-0.841,0-1.676,0-2.528,0c0,0.883,0,1.754,0,2.637c-0.378,0-0.738,0-1.111,0
			c0-0.875,0-1.742,0-2.629c-0.872,0-1.732,0-2.603,0c0-0.377,0-0.736,0-1.109c0.861,0,1.718,0,2.593,0
			C64.201,457.27,64.201,456.43,64.201,455.578z"/>
	</g>
	<path fill="#FFFFFF" d="M59.984,449.984c5.911,0,10.72,4.809,10.72,10.721s-4.809,10.721-10.72,10.721
		c-5.912,0-10.722-4.809-10.722-10.721S54.072,449.984,59.984,449.984 M59.984,448.875c-6.534,0-11.83,5.295-11.83,11.83
		c0,6.533,5.296,11.83,11.83,11.83c6.533,0,11.829-5.297,11.829-11.83S66.518,448.875,59.984,448.875L59.984,448.875z"/>
</g>
<g>
	<path fill-rule="evenodd" clip-rule="evenodd" fill="#FFFFFF" d="M52.785,495.783c1.599,0.123,3.032-0.275,4.342-1.262
		c-0.661-0.034-1.229-0.223-1.727-0.6c-0.494-0.373-0.844-0.854-1.045-1.463c0.432,0.063,0.85,0.068,1.289-0.049
		c-1.473-0.446-2.248-1.418-2.353-2.965c0.432,0.224,0.854,0.354,1.355,0.373c-0.655-0.475-1.074-1.068-1.241-1.821
		c-0.167-0.747-0.056-1.457,0.324-2.145c1.61,1.897,3.637,2.935,6.109,3.107c-0.019-0.228-0.052-0.438-0.053-0.65
		c-0.008-1.229,0.689-2.317,1.826-2.771c1.185-0.474,2.266-0.252,3.209,0.607c0.083,0.074,0.154,0.094,0.258,0.07
		c0.596-0.139,1.16-0.359,1.729-0.688c-0.233,0.702-0.652,1.211-1.224,1.612c0.552-0.048,1.068-0.207,1.597-0.396
		c-0.093,0.127-0.181,0.257-0.278,0.38c-0.313,0.389-0.665,0.738-1.065,1.033c-0.082,0.06-0.104,0.121-0.104,0.217
		c0.021,2.526-0.858,4.688-2.663,6.457c-1.272,1.248-2.819,1.947-4.583,2.179c-1.992,0.26-3.854-0.104-5.577-1.146
		C52.868,495.839,52.828,495.811,52.785,495.783z"/>
	<path fill="#FFFFFF" d="M59.984,480.529c5.88,0,10.662,4.784,10.662,10.664s-4.782,10.664-10.662,10.664
		c-5.881,0-10.664-4.784-10.664-10.664S54.104,480.529,59.984,480.529 M59.984,479.426c-6.499,0-11.768,5.269-11.768,11.768
		s5.269,11.767,11.768,11.767c6.5,0,11.767-5.268,11.767-11.767S66.484,479.426,59.984,479.426L59.984,479.426z"/>
</g>
<g>
	<path fill="#FFFFFF" d="M59.983,541.701c5.957,0,10.803,4.847,10.803,10.804s-4.846,10.804-10.803,10.804
		c-5.956,0-10.803-4.847-10.803-10.804S54.027,541.701,59.983,541.701 M59.983,540.584c-6.584,0-11.92,5.338-11.92,11.921
		s5.336,11.921,11.92,11.921c6.585,0,11.921-5.338,11.921-11.921S66.568,540.584,59.983,540.584L59.983,540.584z"/>
	<g>
		<path fill-rule="evenodd" clip-rule="evenodd" fill="#FFFFFF" d="M61.973,550.184c0.045,0.38,0.083,0.761,0.137,1.139
			c0.375,2.697-0.446,4.976-2.401,6.853c-0.202,0.194-0.458,0.335-0.884,0.642c2.953-0.038,4.321-2.28,3.846-5.849
			c0.354-0.147,0.727-0.304,1.097-0.459c1.083,2.229,0.295,5.15-1.776,6.701c-2.008,1.504-5.081,1.328-6.892-0.391
			c-2.003-1.903-2.388-4.994-0.907-7.282c1.423-2.196,4.044-3.099,6.384-2.146c-0.097,0.35-0.197,0.707-0.313,1.122
			c-0.24-0.022-0.457-0.024-0.668-0.063c-2.144-0.39-4.085,0.803-4.728,2.91c-0.642,2.103,0.352,4.366,2.25,5.228
			c0.67,0.305,1.221,0.233,1.792-0.204c1.051-0.805,1.713-1.892,1.989-3.135c0.383-1.722,0.585-3.484,0.863-5.223
			c-0.002-0.001,0.114,0.091,0.231,0.184L61.973,550.184z"/>
		<path fill-rule="evenodd" clip-rule="evenodd" fill="#FFFFFF" d="M61.992,550.209c-0.566-2.02-0.143-2.75,1.777-3.475
			c0.777-0.293,1.449-0.868,2.191-1.329c1.093,1.327,0.926,4.1-0.465,5.375c-0.879,0.807-1.891,0.763-2.988-0.176
			c0.24-0.169,0.468-0.324,0.69-0.485c0.201-0.146,0.398-0.299,0.759-0.571c-0.794,0.252-1.391,0.441-1.986,0.633
			C61.973,550.184,61.992,550.209,61.992,550.209z"/>
		<path fill-rule="evenodd" clip-rule="evenodd" fill="#FFFFFF" d="M59.954,545.005c0.52,1.035,1.038,2.069,1.558,3.104
			c-0.095,0.048-0.19,0.097-0.285,0.146c-0.511-1.039-1.021-2.079-1.531-3.118C59.781,545.093,59.867,545.049,59.954,545.005z"/>
	</g>
</g>
<g>
	<path fill="#00FFFF" d="M548.134,388.637c-4.481,0-8.113,3.631-8.113,8.113c0,4.48,3.632,8.113,8.113,8.113
		s8.113-3.633,8.113-8.113C556.247,392.268,552.615,388.637,548.134,388.637z M548.134,404.213c-4.115,0-7.465-3.348-7.465-7.463
		s3.35-7.465,7.465-7.465s7.465,3.35,7.465,7.465S552.249,404.213,548.134,404.213z"/>
	<polygon fill="#00FFFF" points="552.312,393.563 546.86,399.016 543.958,396.113 543.498,396.574 546.86,399.936 552.77,394.023 	
		"/>
</g>
<g>
	<path fill="#FFFFFF" d="M483.029,462.559c0.069-0.068,0.112-0.166,0.112-0.271c0-0.107-0.043-0.203-0.112-0.273l-2.773-2.771
		c-0.069-0.07-0.165-0.113-0.272-0.113c-0.105,0-0.203,0.043-0.271,0.112l-9.414,9.415c-0.068,0.068-0.113,0.165-0.113,0.271
		c0,0.107,0.044,0.203,0.113,0.272l2.773,2.773c0.068,0.069,0.166,0.112,0.272,0.112s0.202-0.043,0.272-0.112L483.029,462.559z"/>
	<path fill="#FFFFFF" d="M473.615,459.241c-0.069-0.069-0.166-0.112-0.272-0.112s-0.203,0.043-0.272,0.113l-2.772,2.771
		c-0.07,0.07-0.113,0.168-0.113,0.273c0,0.107,0.043,0.203,0.113,0.272l9.414,9.413c0.069,0.07,0.166,0.113,0.271,0.113
		c0.107,0,0.203-0.043,0.273-0.113l2.772-2.771c0.069-0.07,0.113-0.168,0.112-0.274c0.001-0.105-0.043-0.202-0.112-0.271
		L473.615,459.241z"/>
</g>
<path fill="#FFFFFF" d="M472.064,424.445l4.242,4.242c0.092,0.091,0.217,0.147,0.355,0.147c0.141,0,0.266-0.057,0.357-0.147
	l4.242-4.242c0.141-0.141,0.189-0.355,0.109-0.55c-0.08-0.193-0.27-0.311-0.467-0.311h-1.176v-5.628
	c0-0.128-0.049-0.258-0.148-0.355c-0.098-0.099-0.227-0.147-0.355-0.147h-5.123c-0.129,0-0.258,0.049-0.357,0.147
	c-0.098,0.098-0.146,0.228-0.146,0.355v5.628h-1.178c-0.197,0-0.385,0.117-0.465,0.311
	C471.875,424.09,471.924,424.305,472.064,424.445z"/>
<g>
	<path fill="none" stroke="#FFFFFF" stroke-miterlimit="10" d="M469.7,384.674c0,1.373-1.113,2.486-2.488,2.486l0,0
		c-1.373,0-2.487-1.113-2.487-2.486l0,0c0-1.375,1.114-2.488,2.487-2.488l0,0C468.587,382.186,469.7,383.299,469.7,384.674
		L469.7,384.674z"/>
	<path fill="none" stroke="#FFFFFF" stroke-miterlimit="10" d="M479.134,384.672c0,1.375-1.113,2.488-2.487,2.488l0,0
		c-1.374,0-2.487-1.113-2.487-2.488l0,0c0-1.373,1.113-2.488,2.487-2.488l0,0C478.021,382.184,479.134,383.299,479.134,384.672
		L479.134,384.672z"/>
	<path fill="none" stroke="#FFFFFF" stroke-miterlimit="10" d="M488.602,384.629c0,1.375-1.114,2.488-2.487,2.488l0,0
		c-1.374,0-2.488-1.113-2.488-2.488l0,0c0-1.373,1.114-2.486,2.488-2.486l0,0C487.487,382.143,488.602,383.256,488.602,384.629
		L488.602,384.629z"/>
	<path fill="none" stroke="#FFFFFF" stroke-miterlimit="10" d="M479.091,364.26c0,1.375-1.113,2.488-2.487,2.488l0,0
		c-1.374,0-2.487-1.113-2.487-2.488l0,0c0-1.373,1.113-2.488,2.487-2.488l0,0C477.978,361.771,479.091,362.887,479.091,364.26
		L479.091,364.26z"/>
	<line fill="none" stroke="#FFFFFF" stroke-miterlimit="10" x1="476.705" y1="381.896" x2="476.705" y2="366.488"/>
	<line fill="none" stroke="#FFFFFF" stroke-miterlimit="10" x1="468.133" y1="382.346" x2="476.818" y2="373.662"/>
	<line fill="none" stroke="#FFFFFF" stroke-miterlimit="10" x1="476.593" y1="373.727" x2="485.244" y2="382.379"/>
</g>
<g>
	<path fill="#FFFFFF" d="M214.009,259.048h-2.881v-1.329c0-0.368-0.297-0.665-0.664-0.665c-0.369,0-0.666,0.297-0.666,0.665v1.329
		h-3.986v-1.329c0-0.368-0.297-0.665-0.666-0.665c-0.365,0-0.664,0.297-0.664,0.665v1.329h-3.985v-1.329
		c0-0.368-0.297-0.665-0.666-0.665c-0.365,0-0.664,0.297-0.664,0.665v1.329h-2.879c-0.979,0-1.773,0.793-1.773,1.771v15.729
		c0,0.979,0.795,1.771,1.773,1.771h17.722c0.979,0,1.771-0.793,1.771-1.771V260.82C215.78,259.841,214.987,259.048,214.009,259.048z
		 M214.45,276.548c0,0.244-0.197,0.443-0.441,0.443h-17.722c-0.244,0-0.443-0.199-0.443-0.443V260.82
		c0-0.244,0.199-0.442,0.443-0.442h2.879v1.329c0,0.366,0.299,0.664,0.664,0.664c0.369,0,0.666-0.298,0.666-0.664v-1.329h3.985
		v1.329c0,0.366,0.299,0.664,0.664,0.664c0.369,0,0.666-0.298,0.666-0.664v-1.329h3.986v1.329c0,0.366,0.297,0.664,0.666,0.664
		c0.367,0,0.664-0.298,0.664-0.664v-1.329h2.881c0.244,0,0.441,0.198,0.441,0.442V276.548z"/>
	<rect x="199.166" y="265.029" fill="#FFFFFF" width="2.657" height="1.994"/>
	<rect x="199.166" y="268.352" fill="#FFFFFF" width="2.657" height="1.994"/>
	<rect x="199.166" y="271.675" fill="#FFFFFF" width="2.657" height="1.993"/>
	<rect x="203.817" y="271.675" fill="#FFFFFF" width="2.658" height="1.993"/>
	<rect x="203.817" y="268.352" fill="#FFFFFF" width="2.658" height="1.994"/>
	<rect x="203.817" y="265.029" fill="#FFFFFF" width="2.658" height="1.994"/>
	<rect x="208.47" y="271.675" fill="#FFFFFF" width="2.658" height="1.993"/>
	<rect x="208.47" y="268.352" fill="#FFFFFF" width="2.658" height="1.994"/>
	<rect x="208.47" y="265.029" fill="#FFFFFF" width="2.658" height="1.994"/>
</g>
<g>
	<polyline fill="none" stroke="#00FFFF" stroke-width="2" stroke-miterlimit="10" points="286.596,256.596 297.686,267.687 
		286.596,278.778 	"/>
</g>
<g>
	<polyline fill="none" stroke="#00FFFF" stroke-width="2" stroke-miterlimit="10" points="278.507,256.596 267.417,267.687 
		278.507,278.778 	"/>
</g>
<g>
	<path fill="#FFFFFF" d="M305.774,277.675v-2.291l10.884-12.061h-10.884v-2.29h14.561v2.29l-10.926,12.061h10.926v2.291H305.774z"/>
	<path fill="#FFFFFF" d="M338.563,277.675h-12.737c-1.186,0-1.993-0.883-1.993-1.842c0,0,0.025-16.193,0-16.294
		c0-0.958,0.808-1.841,1.993-1.841h12.737c1.16,0,1.992,0.883,1.967,1.841c0,0.101,0,16.294,0,16.294
		C340.529,276.792,339.723,277.675,338.563,277.675z M337.149,260.448h-9.912v14.478h9.912V260.448z"/>
	<path fill="#FFFFFF" d="M356.924,277.675H345.67c-0.987,0-1.638-0.735-1.638-1.533c0,0,0-13.479,0-13.563
		c-0.021-0.798,0.65-1.532,1.638-1.532h12.913v2.288h-11.737v12.052h8.902v-6.929h2.835v7.685
		C358.583,276.94,357.911,277.675,356.924,277.675z"/>
</g>
<g>
	<path fill-rule="evenodd" clip-rule="evenodd" fill="#FFFFFF" d="M249.36,260.044c0,0.234,0.02,0.453-0.002,0.667
		c-0.043,0.376-0.355,0.633-0.762,0.638c-0.457,0.006-0.912,0.001-1.369,0.002c-0.385,0.002-0.592,0.2-0.592,0.582
		c0,4.251,0,8.501,0,12.752c0,0.412,0.195,0.607,0.607,0.607c3.406-0.002,6.813-0.004,10.219-0.006
		c0.387-0.001,0.588-0.195,0.588-0.584c0.002-3.063,0.004-6.125,0.002-9.187c-0.002-1.175-0.008-2.35-0.012-3.524
		c-0.004-0.47-0.174-0.641-0.648-0.641c-0.424,0-0.848,0.003-1.27-0.001c-0.502-0.004-0.799-0.305-0.803-0.804
		c-0.002-0.158,0-0.316,0-0.493c0.072-0.003,0.137-0.009,0.201-0.009c0.883,0,1.771-0.001,2.656,0
		c0.654,0.001,1.148,0.48,1.148,1.131c0.004,4.759,0.004,9.518,0,14.276c0,0.636-0.484,1.108-1.123,1.108
		c-3.908,0.001-7.816,0.001-11.727,0c-0.637-0.001-1.115-0.477-1.115-1.116c-0.002-4.752-0.002-9.504,0-14.257
		c0-0.665,0.49-1.143,1.158-1.143c0.879,0,1.758,0,2.637,0C249.22,260.044,249.284,260.044,249.36,260.044z"/>
	<g>
		<path fill-rule="evenodd" clip-rule="evenodd" fill="#FFFFFF" d="M256.155,263.875c-2.541,0-5.07,0-7.6,0
			c-0.037-0.717,0.396-1.354,1.072-1.576c0.156-0.052,0.314-0.101,0.463-0.168c0.287-0.129,0.426-0.357,0.43-0.674
			c0.004-0.375-0.018-0.756,0.035-1.124c0.141-0.943,0.979-1.58,1.941-1.516c0.891,0.061,1.629,0.826,1.668,1.74
			c0.012,0.29,0.01,0.58,0.002,0.87c-0.008,0.362,0.16,0.601,0.488,0.737c0.092,0.038,0.184,0.075,0.279,0.097
			c0.68,0.16,1.035,0.615,1.168,1.273C256.126,263.644,256.136,263.754,256.155,263.875z M252.339,261.192
			c0.295,0.002,0.547-0.242,0.555-0.536c0.004-0.294-0.238-0.544-0.537-0.551c-0.305-0.008-0.561,0.24-0.561,0.544
			C251.796,260.939,252.048,261.19,252.339,261.192z"/>
		<path fill-rule="evenodd" clip-rule="evenodd" fill="#FFFFFF" d="M256.144,267.068c0,0.21,0,0.406,0,0.611
			c-2.746,0-5.479,0-8.229,0c0-0.197,0-0.397,0-0.611C250.649,267.068,253.39,267.068,256.144,267.068z"/>
		<path fill-rule="evenodd" clip-rule="evenodd" fill="#FFFFFF" d="M254.872,270.871c0,0.21,0,0.404,0,0.609
			c-2.318,0-4.631,0-6.957,0c0-0.195,0-0.396,0-0.609C250.226,270.871,252.542,270.871,254.872,270.871z"/>
		<path fill-rule="evenodd" clip-rule="evenodd" fill="#FFFFFF" d="M254.241,268.969c0,0.21,0,0.405,0,0.61
			c-2.111,0-4.211,0-6.326,0c0-0.196,0-0.396,0-0.61C250.017,268.969,252.12,268.969,254.241,268.969z"/>
		<path fill-rule="evenodd" clip-rule="evenodd" fill="#FFFFFF" d="M253.009,272.772c0,0.208,0,0.403,0,0.609
			c-1.703,0-3.396,0-5.1,0c0-0.205,0-0.399,0-0.609C249.604,272.772,251.298,272.772,253.009,272.772z"/>
		<path fill-rule="evenodd" clip-rule="evenodd" fill="#FFFFFF" d="M247.899,265.773c0-0.177,0-0.341,0-0.505
			c0-0.031,0.004-0.063,0.008-0.104c1.475,0,2.939,0,4.42,0c0,0.195,0,0.396,0,0.609
			C250.862,265.773,249.394,265.773,247.899,265.773z"/>
	</g>
</g>
<g>
	<path fill="#FFFFFF" d="M236.896,271.866c-0.498-1.052-1.034-1.681-2.48-2.189c0,0-0.413-0.132-0.753-0.343
		c-0.038,0.05-3.014,2.536-3.014,2.536h-0.07c-2.656-2.207-2.368-1.976-3.02-2.54c0.004-0.003,0.008-0.005,0.014-0.008
		c-0.253,0.159-0.541,0.3-0.864,0.4c-1.443,0.509-2.194,1.035-2.549,2.144c-0.161,0.512-0.249,1.086-0.29,1.71
		c1.766,1.451,4.036,2.321,6.502,2.321c2.656,0,5.076-1.008,6.899-2.661C237.197,272.707,237.078,272.244,236.896,271.866z"/>
	<g>
		<path fill="#FFFFFF" d="M233.662,269.333c-0.832,0.723-3.014,2.536-3.014,2.536l0.957,0.986c0,0,1.845-2.497,2.385-3.346
			C233.875,269.455,233.766,269.396,233.662,269.333z"/>
		<path fill="#FFFFFF" d="M227.249,269.504c0.656,0.989,2.337,3.352,2.337,3.352l0.992-0.986c-2.652-2.204-2.368-1.976-3.02-2.539
			C227.461,269.392,227.358,269.45,227.249,269.504z"/>
		<path fill="#FFFFFF" d="M233.662,269.333c-0.027-0.019-0.057-0.037-0.088-0.056C233.605,269.297,233.635,269.315,233.662,269.333
			L233.662,269.333z"/>
	</g>
	<path fill="#FFFFFF" d="M233.574,269.278c-0.287-0.188-0.523-0.401-0.719-0.634c0-0.004-0.008-0.008-0.008-0.012
		c-0.017-0.016-0.027-0.032-0.041-0.049c-0.309-0.396-0.504-0.841-0.623-1.272c-0.843,0.972-1.329,0.931-1.57,0.931
		s-0.731,0.04-1.568-0.93c-0.207,0.706-0.631,1.46-1.473,2.01c-0.006,0.003-0.01,0.005-0.014,0.008
		c0.039,0.034,0.074,0.067,0.111,0.096v0.002c0,0,0.004,0.001,0.005,0.003c0.29,0.253,0.388,0.339,0.874,0.749
		c0.369,0.309,0.961,0.802,2.029,1.69h0.07v-0.002c0,0,0.007-0.005,0.015-0.009c0.177-0.148,2.202-1.835,2.999-2.525l0,0
		C233.635,269.315,233.605,269.296,233.574,269.278z"/>
	<path fill="#FFFFFF" d="M232.343,261.204c0,0-1.8,1.568-3.933,0.506c0.158,0.649-0.318,2.591-0.634,2.997
		c0.024,0.133,0.044,0.264,0.069,0.389c0.099,0.509,0.298,0.99,0.581,1.405c0.056,0.082,0.112,0.159,0.165,0.234
		c0.16,0.224,0.309,0.415,0.453,0.577c0.837,0.97,1.327,0.93,1.568,0.93s0.728,0.041,1.57-0.931
		c0.122-0.142,0.255-0.307,0.393-0.498c0.072-0.097,0.146-0.201,0.225-0.313c0.275-0.415,0.481-0.896,0.577-1.405
		c0.024-0.125,0.049-0.256,0.066-0.389C233.588,263.461,233.44,261.957,232.343,261.204z"/>
	<path fill="#FFFFFF" d="M233.444,264.707c0.298-1.169,0.417-2.377-0.035-3.541c-0.483-1.239-2.186-2.236-4.3-1.352
		c-2.413,1.376-1.333,4.893-1.333,4.893l0,0c0.315-0.406,0.792-2.348,0.634-2.997c2.133,1.063,3.933-0.506,3.933-0.506
		C233.44,261.957,233.588,263.461,233.444,264.707L233.444,264.707z"/>
	<circle fill="#FFFFFF" cx="230.589" cy="273.097" r="0.203"/>
	<circle fill="#FFFFFF" cx="230.589" cy="273.958" r="0.203"/>
	<circle fill="#FFFFFF" cx="230.589" cy="274.899" r="0.203"/>
</g>
<g>
	<g id="calendar_8_">
		<path fill="#FFFFFF" d="M482.542,318.717h-1.912v-0.881c0-0.244-0.195-0.439-0.441-0.439c-0.242,0-0.44,0.195-0.44,0.439v0.881
			h-2.644v-0.881c0-0.244-0.198-0.439-0.443-0.439c-0.241,0-0.438,0.195-0.438,0.439v0.881h-2.648v-0.881
			c0-0.244-0.194-0.439-0.438-0.439s-0.441,0.195-0.441,0.439v0.881h-1.912c-0.648,0-1.174,0.525-1.174,1.172v10.416
			c0,0.648,0.525,1.174,1.174,1.174h11.76c0.65,0,1.176-0.525,1.176-1.174v-10.416C483.718,319.242,483.192,318.717,482.542,318.717
			z M482.836,330.305c0,0.162-0.132,0.293-0.294,0.293h-11.76c-0.16,0-0.293-0.131-0.293-0.293v-10.416
			c0-0.16,0.133-0.293,0.293-0.293h1.912v0.881c0,0.242,0.197,0.439,0.441,0.439s0.438-0.197,0.438-0.439v-0.881h2.648v0.881
			c0,0.242,0.197,0.439,0.438,0.439c0.245,0,0.443-0.197,0.443-0.439v-0.881h2.644v0.881c0,0.242,0.198,0.439,0.44,0.439
			c0.246,0,0.441-0.197,0.441-0.439v-0.881h1.912c0.162,0,0.294,0.133,0.294,0.293V330.305z"/>
		<rect x="472.694" y="322.676" fill="#FFFFFF" width="1.763" height="1.32"/>
		<rect x="472.694" y="324.877" fill="#FFFFFF" width="1.763" height="1.32"/>
		<rect x="472.694" y="327.078" fill="#FFFFFF" width="1.763" height="1.32"/>
		<rect x="475.78" y="327.078" fill="#FFFFFF" width="1.764" height="1.32"/>
		<rect x="475.78" y="324.877" fill="#FFFFFF" width="1.764" height="1.32"/>
		<rect x="475.78" y="322.676" fill="#FFFFFF" width="1.764" height="1.32"/>
		<rect x="478.867" y="327.078" fill="#FFFFFF" width="1.763" height="1.32"/>
		<rect x="478.867" y="324.877" fill="#FFFFFF" width="1.763" height="1.32"/>
		<rect x="478.867" y="322.676" fill="#FFFFFF" width="1.763" height="1.32"/>
	</g>
</g>
<g>
	<rect x="471.215" y="277.162" fill="#FFFFFF" width="1.76" height="1.32"/>
	<rect x="471.215" y="279.363" fill="#FFFFFF" width="1.76" height="1.32"/>
	<rect x="471.215" y="281.563" fill="#FFFFFF" width="1.76" height="1.32"/>
	<rect x="474.295" y="281.563" fill="#FFFFFF" width="1.76" height="1.32"/>
	<rect x="474.295" y="279.363" fill="#FFFFFF" width="1.76" height="1.32"/>
	<rect x="474.295" y="277.162" fill="#FFFFFF" width="1.76" height="1.32"/>
	<rect x="477.375" y="279.363" fill="#FFFFFF" width="1.76" height="1.32"/>
	<rect x="477.375" y="277.162" fill="#FFFFFF" width="1.76" height="1.32"/>
	<g>
		<polygon fill="#FFFFFF" points="482.104,284.315 482.096,284.308 482.104,284.315 		"/>
		<polygon fill="#FFFFFF" points="482.085,284.3 482.086,284.3 482.086,284.3 		"/>
		<polygon fill="#FFFFFF" points="480.389,283.018 480.389,283.018 480.389,283.018 		"/>
		<path fill="#FFFFFF" d="M484.275,281.463c-0.377-0.397-0.85-0.702-1.381-0.876c-0.329-0.109-0.68-0.168-1.045-0.168
			c-1.846,0-3.341,1.496-3.341,3.342c0,0.303,0.041,0.596,0.116,0.875c0.141,0.521,0.404,0.992,0.76,1.381
			c0.611,0.666,1.488,1.086,2.465,1.086c1.846,0,3.342-1.496,3.342-3.342C485.191,282.87,484.843,282.062,484.275,281.463z
			 M479.914,283.564c0.006-0.081,0.016-0.155,0.037-0.22c0.045-0.144,0.143-0.211,0.328-0.276c0.041-0.014,0.078-0.031,0.11-0.052
			c0.108-0.072,0.163-0.168,0.189-0.26c-0.019-0.02-0.038-0.045-0.058-0.073c-0.008-0.011-0.014-0.021-0.021-0.03
			c-0.036-0.055-0.063-0.116-0.074-0.182c-0.004-0.016-0.006-0.032-0.01-0.05c0,0-0.139-0.453,0.171-0.63
			c0.272-0.114,0.491,0.014,0.554,0.174c0.059,0.15,0.043,0.305,0.004,0.456c-0.002,0.018-0.005,0.034-0.008,0.05
			c-0.014,0.065-0.039,0.127-0.075,0.182c-0.01,0.014-0.019,0.027-0.028,0.039c-0.018,0.025-0.034,0.047-0.051,0.064
			c0.016,0.057,0.041,0.113,0.08,0.164c0.002,0.002,0.004,0.004,0.005,0.006c0.001,0.001,0.001,0.002,0.001,0.002
			c0.025,0.03,0.057,0.058,0.093,0.082c0.004,0.003,0.008,0.004,0.012,0.008c0.012,0.007,0.024,0.013,0.036,0.02
			c0.033,0.016,0.061,0.023,0.061,0.023c0.186,0.066,0.256,0.146,0.319,0.283c0.023,0.048,0.038,0.107,0.048,0.176
			c-0.234,0.213-0.545,0.343-0.887,0.343C480.433,283.863,480.142,283.751,479.914,283.564z M482.549,285.386
			c-0.406,0-0.781-0.145-1.072-0.385c0.007-0.104,0.021-0.197,0.047-0.282c0.059-0.183,0.184-0.271,0.422-0.354
			c0.053-0.017,0.101-0.04,0.142-0.066c0.14-0.092,0.209-0.215,0.243-0.332c-0.023-0.027-0.047-0.059-0.074-0.096
			c-0.009-0.013-0.018-0.025-0.027-0.039c-0.047-0.068-0.08-0.148-0.096-0.232c-0.004-0.021-0.008-0.042-0.012-0.064
			c0,0-0.178-0.581,0.221-0.808c0.35-0.147,0.629,0.019,0.709,0.223c0.074,0.192,0.055,0.392,0.006,0.585
			c-0.003,0.022-0.007,0.044-0.012,0.064c-0.016,0.084-0.049,0.164-0.096,0.232c-0.012,0.019-0.023,0.036-0.035,0.053
			c-0.023,0.031-0.045,0.059-0.065,0.082c0.02,0.071,0.052,0.145,0.103,0.21c0.002,0.003,0.004,0.006,0.007,0.009l0.001,0.001
			c0.032,0.038,0.071,0.073,0.119,0.104c0.006,0.004,0.01,0.007,0.015,0.01c0.015,0.009,0.03,0.018,0.047,0.025
			c0.04,0.02,0.077,0.031,0.077,0.031c0.238,0.084,0.328,0.188,0.41,0.362c0.029,0.062,0.049,0.14,0.061,0.226
			C483.388,285.218,482.988,285.386,482.549,285.386z"/>
	</g>
	<path fill="#FFFFFF" d="M478.344,285.084h-9.037c-0.16,0-0.293-0.132-0.293-0.294v-10.415c0-0.161,0.133-0.293,0.293-0.293h1.908
		v0.88c0,0.243,0.197,0.44,0.439,0.44c0.244,0,0.439-0.197,0.439-0.44v-0.88h2.643v0.88c0,0.243,0.197,0.44,0.438,0.44
		c0.244,0,0.441-0.197,0.441-0.44v-0.88h2.639v0.88c0,0.243,0.199,0.44,0.441,0.44c0.244,0,0.439-0.197,0.439-0.44v-0.88h1.908
		c0.162,0,0.293,0.132,0.293,0.293v5.716c0.156-0.02,0.31-0.047,0.471-0.047c0.141,0,0.273,0.026,0.41,0.041v-5.71
		c0-0.647-0.523-1.173-1.174-1.173h-1.908v-0.88c0-0.244-0.195-0.44-0.439-0.44c-0.242,0-0.441,0.196-0.441,0.44v0.88h-2.639v-0.88
		c0-0.244-0.197-0.44-0.441-0.44c-0.24,0-0.438,0.196-0.438,0.44v0.88h-2.643v-0.88c0-0.244-0.195-0.44-0.439-0.44
		c-0.242,0-0.439,0.196-0.439,0.44v0.88h-1.908c-0.646,0-1.172,0.525-1.172,1.173v10.415c0,0.648,0.525,1.174,1.172,1.174h9.521
		C478.629,285.694,478.466,285.401,478.344,285.084z"/>
</g>
<g>
	<title></title>
	<desc></desc>
	<g id="miu_5_">
		<g id="Artboard-1_5_" transform="translate(-395.000000, -407.000000)">
			<g id="slice_5_" transform="translate(215.000000, 119.000000)">
			</g>
			<path id="common-logout-signout-exit-glyph_5_" fill="#FFFFFF" d="M997.62,921.69v12.689h8.672v-3.461h-1.156v2.308h-6.357
				v-10.383h6.357v2.308h1.156v-3.461H997.62z M1006.658,925.996l0.816-0.815l2.864,2.854l-2.864,2.854l-0.816-0.815l1.468-1.462
				h-6.457v-1.152h6.459L1006.658,925.996z"/>
		</g>
	</g>
</g>
<g>
	
		<line fill="#FFFFFF" stroke="#FFFFFF" stroke-width="2" stroke-miterlimit="10" x1="144.359" y1="261.24" x2="144.359" y2="274.134"/>
	
		<line fill="#FFFFFF" stroke="#FFFFFF" stroke-width="2" stroke-miterlimit="10" x1="150.778" y1="267.687" x2="137.938" y2="267.687"/>
	<circle fill="none" stroke="#FFFFFF" stroke-width="2" stroke-miterlimit="10" cx="144.358" cy="267.687" r="13.101"/>
</g>
<g>
	<path fill-rule="evenodd" clip-rule="evenodd" fill="#FFFFFF" d="M175.982,258.2c2.896,0,5.795-0.002,8.692,0
		c0.799,0,1.439,0.502,1.666,1.297c0.23,0.813-0.026,1.678-0.642,2.164c-0.314,0.246-0.665,0.336-1.049,0.336
		c-4.444-0.004-8.89-0.002-13.337-0.002c-1.332,0-2.663,0.002-3.993-0.002c-1.037,0-1.776-0.799-1.772-1.908
		c0.005-1.092,0.746-1.885,1.767-1.885C170.204,258.198,173.094,258.2,175.982,258.2z"/>
	<path fill-rule="evenodd" clip-rule="evenodd" fill="#FFFFFF" d="M175.981,265.79c2.897,0,5.796-0.002,8.693,0
		c0.799,0.002,1.438,0.502,1.666,1.297c0.23,0.813-0.026,1.678-0.642,2.164c-0.314,0.246-0.665,0.336-1.049,0.336
		c-4.427-0.004-8.854-0.002-13.284-0.002c-1.349,0-2.698,0.002-4.046-0.002c-1.037,0-1.776-0.799-1.772-1.908
		c0.005-1.092,0.746-1.883,1.767-1.885C170.204,265.788,173.094,265.79,175.981,265.79z"/>
	<path fill-rule="evenodd" clip-rule="evenodd" fill="#FFFFFF" d="M175.982,273.379c2.897,0,5.795,0,8.692,0
		c0.799,0.002,1.439,0.502,1.666,1.297c0.23,0.813-0.026,1.678-0.642,2.164c-0.314,0.246-0.665,0.336-1.049,0.336
		c-4.5-0.002-9-0.002-13.501-0.002c-1.276,0-2.553,0.002-3.831,0c-1.036-0.002-1.774-0.801-1.771-1.91
		c0.005-1.09,0.746-1.883,1.77-1.885C170.204,273.379,173.094,273.379,175.982,273.379z"/>
</g>
<g>
	<path fill-rule="evenodd" clip-rule="evenodd" fill="#FFFFFF" d="M266.839,492.765c5.457,0.002,9.894,4.445,9.892,9.91
		c0,5.471-4.443,9.906-9.922,9.904c-5.467-0.003-9.896-4.451-9.893-9.934C256.922,497.19,261.37,492.762,266.839,492.765z
		 M266.815,511.761c5.02-0.031,9.088-4.033,9.09-9.088c0.002-5.01-4.008-9.066-9.061-9.082c-4.994-0.016-9.089,3.982-9.102,9.066
		C257.731,507.661,261.739,511.714,266.815,511.761z"/>
	<path fill-rule="evenodd" clip-rule="evenodd" fill="#FFFFFF" d="M260.741,502.301c4.057,0,8.101,0,12.162,0
		c0,0.257,0,0.513,0,0.784c-4.049,0-8.099,0-12.162,0C260.741,502.829,260.741,502.579,260.741,502.301z"/>
</g>
<g>
	<title></title>
	<desc></desc>
	<g id="Page-1_4_">
		<g id="Icons-AV_4_" transform="translate(-168.000000, -85.000000)">
			<g id="play-circle-outline_1_" transform="translate(168.000000, 85.000000)">
				<path id="Shape_4_" fill="#FFFFFF" d="M695.322,560.709l6-4.5l-6-4.5V560.709L695.322,560.709z M697.322,546.209
					c-5.5,0-10,4.5-10,10s4.5,10,10,10s10-4.5,10-10S702.822,546.209,697.322,546.209L697.322,546.209z M697.322,564.209
					c-4.399,0-8-3.6-8-8s3.601-8,8-8c4.398,0,8,3.6,8,8S701.721,564.209,697.322,564.209L697.322,564.209z"/>
			</g>
		</g>
	</g>
</g>
<g>
	<g id="packet_1_">
		<path fill="#FFFFFF" d="M709.038,445.943c0-1.171-0.95-2.121-2.121-2.121h-17.466c-1.172,0-2.121,0.95-2.121,2.121v13.82
			c0,1.172,0.949,2.121,2.121,2.121h17.466c1.171,0,2.121-0.949,2.121-2.121V445.943z M689.463,445.518h17.471
			c0.234,0,0.423,0.187,0.423,0.42v0.019l-8.858,8.86c-0.109,0.107-0.234,0.124-0.299,0.124c-0.066,0-0.193-0.017-0.301-0.124
			l-8.861-8.861v-0.018C689.037,445.704,689.229,445.518,689.463,445.518z M706.934,460.191h-17.471
			c-0.234,0-0.426-0.194-0.426-0.428v-11.409l7.662,7.661c0.4,0.4,0.934,0.621,1.5,0.621c0.564,0,1.098-0.221,1.497-0.621l7.66-7.66
			v11.408C707.356,459.997,707.168,460.191,706.934,460.191z"/>
	</g>
	<g id="Layer_1_1_">
	</g>
</g>
<g>
	<polyline fill="none" stroke="#FFFFFF" stroke-width="2" stroke-miterlimit="10" points="737.158,485.945 748.248,497.035 
		737.158,508.127 	"/>
</g>
<g>
	<g>
		<path fill="#FFFFFF" d="M143.885,545.283h-4.508c-0.83,0-1.502,0.673-1.502,1.503c0,0.828,0.672,1.503,1.502,1.503h0.9
			l-3.457,3.456c-0.238,0.24-0.447,0.559-0.447,1.052c0,0.822,0.643,1.503,1.502,1.503c0.48,0,0.787-0.187,1.051-0.451l3.457-3.456
			v0.901c0,0.828,0.672,1.503,1.502,1.503c0.828,0,1.504-0.675,1.504-1.503v-4.508C145.389,545.956,144.713,545.283,143.885,545.283
			z M133.365,555.803c-0.482,0-0.789,0.185-1.053,0.449l-3.455,3.458v-0.902c0-0.828-0.674-1.503-1.502-1.503
			c-0.834,0-1.504,0.675-1.504,1.503v4.51c0,0.828,0.67,1.501,1.504,1.501h4.508c0.828,0,1.502-0.673,1.502-1.501
			c0-0.83-0.674-1.503-1.502-1.503h-0.902l3.457-3.458c0.24-0.24,0.449-0.56,0.449-1.052
			C134.867,556.484,134.223,555.803,133.365,555.803z"/>
	</g>
	<g>
		<path fill="#FFFFFF" d="M125.664,546.786v4.508c0,0.828,0.672,1.503,1.502,1.503c0.832,0,1.504-0.675,1.504-1.503v-0.901
			l3.459,3.456c0.262,0.265,0.568,0.451,1.049,0.451c0.857,0,1.504-0.681,1.504-1.503c0-0.493-0.211-0.812-0.451-1.052l-3.457-3.456
			h0.9c0.834,0,1.504-0.675,1.504-1.503c0-0.83-0.67-1.503-1.504-1.503h-4.508C126.336,545.283,125.664,545.956,125.664,546.786z
			 M136.184,557.305c0,0.492,0.211,0.812,0.451,1.052l3.455,3.458h-0.9c-0.828,0-1.506,0.673-1.506,1.503
			c0,0.828,0.678,1.501,1.506,1.501h4.508c0.83,0,1.502-0.673,1.502-1.501v-4.51c0-0.828-0.672-1.503-1.502-1.503
			s-1.504,0.675-1.504,1.503v0.902l-3.455-3.458c-0.262-0.265-0.57-0.449-1.055-0.449
			C136.828,555.803,136.184,556.484,136.184,557.305z"/>
	</g>
</g>
<g>
	<path fill-rule="evenodd" clip-rule="evenodd" fill="#FEFEFE" d="M217.375,551.675c0.009-1.074-0.351-1.945-1.096-2.689
		c-1.051-1.051-2.124-1.887-3.142-2.969c-0.596-0.633-1.256-1.017-2.119-1.017c-2.49,0-4.982,0-7.476,0
		c-0.755,0-1.534,0.085-2.031,0.817c-0.435,0.641-0.745,1.204-0.743,1.999c0.002,1.486-0.01,2.925,0.002,4.409
		c0.007,0.611-0.218,0.894-0.854,0.851c-0.239-0.018-0.914-0.001-1.156-0.011c-0.635-0.027-1.761,0.188-1.761,0.811
		c0,1.842,0,3.684,0,5.525c0,0.617,1.196,0.771,1.794,0.813c1.543,0.107,1.757-0.096,1.765,1.488
		c0.012,2.094,0.976,3.298,2.984,3.298c3.685,0,7.367,0,11.053,0c1.521,0,2.35-0.841,2.695-2.271
		c0.077-0.318,0.073-0.542,0.073-0.866C217.368,558.432,217.351,555.106,217.375,551.675z M215.441,557.101
		c0,1.57,0.009,3.141-0.003,4.709c-0.006,1.451-0.557,1.99-2.028,1.992c-2.923,0.006-5.848,0.006-8.77,0
		c-1.395-0.004-1.95-0.566-1.979-1.973c-0.045-2.01-0.045-2.01,1.928-2.01c2.381,0,4.764,0.002,7.146-0.002
		c1.129-0.002,1.318-0.195,1.324-1.33c0.006-1.271,0.008-2.543,0-3.816c-0.01-1.061-0.223-1.266-1.307-1.266
		c-2.76-0.004-5.521-0.029-8.283,0.018c-0.703,0.012-0.848-0.203-0.825-0.857c0.051-1.461,0.005-2.924,0.021-4.385
		c0.016-1.396,0.586-1.949,1.993-1.955c1.65-0.008,3.303,0.016,4.953-0.014c0.647-0.012,0.974,0.236,0.993,0.875
		c0.027,0.975,0.061,1.947,0.061,2.92c0,0.68,0.311,0.996,0.982,0.996c0.895-0.002,1.789-0.023,2.679,0.029
		c0.953,0.057,1.112,0.258,1.115,1.197C215.445,553.853,215.441,555.478,215.441,557.101z"/>
	<g>
		<path d="M201.953,558.734l-0.365-0.731c-0.15-0.282-0.246-0.492-0.359-0.726h-0.012c-0.084,0.233-0.186,0.443-0.313,0.726
			l-0.336,0.731h-1.043l1.17-2.045l-1.129-1.997h1.051l0.354,0.738c0.119,0.245,0.209,0.443,0.305,0.671h0.014
			c0.096-0.258,0.174-0.438,0.275-0.671l0.342-0.738h1.043l-1.139,1.973l1.199,2.069H201.953z"/>
		<path d="M206.92,557.188c-0.018-0.486-0.035-1.073-0.035-1.661h-0.018c-0.127,0.516-0.295,1.091-0.449,1.564l-0.492,1.577h-0.715
			l-0.432-1.564c-0.131-0.474-0.27-1.05-0.365-1.577h-0.012c-0.023,0.546-0.043,1.169-0.072,1.673l-0.072,1.535h-0.846l0.258-4.042
			h1.219l0.395,1.35c0.127,0.468,0.252,0.972,0.342,1.445h0.018c0.115-0.468,0.252-1.002,0.385-1.451l0.432-1.344h1.193l0.223,4.042
			h-0.895L206.92,557.188z"/>
		<path d="M208.578,554.692h0.918v3.274h1.607v0.768h-2.525V554.692z"/>
	</g>
</g>
<g>
	<path fill-rule="evenodd" clip-rule="evenodd" fill="#FEFEFE" d="M181.178,551.559c0.008-1.074-0.352-1.945-1.097-2.689
		c-1.05-1.051-2.125-1.829-3.143-2.911c-0.595-0.633-1.256-0.958-2.119-0.958c-2.491,0-4.982,0-7.474,0
		c-0.756,0-1.537,0.026-2.033,0.759c-0.434,0.641-0.744,1.177-0.743,1.972c0.003,1.486-0.01,2.909,0.003,4.394
		c0.006,0.611-0.219,0.886-0.854,0.843c-0.242-0.018-0.814-0.004-1.058-0.014c-0.634-0.027-1.661,0.184-1.661,0.807
		c0,1.842,0,3.684,0,5.525c0,0.617,1.098,0.771,1.695,0.813c1.543,0.107,1.707-0.038,1.715,1.546
		c0.012,2.094,0.925,3.356,2.936,3.356c3.683,0,7.365,0,11.049,0c1.522,0,2.352-0.899,2.699-2.329
		c0.076-0.318,0.071-0.569,0.071-0.894C181.17,558.346,181.151,554.99,181.178,551.559z M179.242,556.984
		c0,1.57,0.009,3.141-0.002,4.709c-0.007,1.451-0.558,1.99-2.029,1.992c-2.923,0.006-5.847,0.006-8.77,0
		c-1.394-0.004-1.949-0.566-1.98-1.973c-0.043-2.01-0.043-2.01,1.929-2.01c2.382,0,4.764,0.002,7.146-0.002
		c1.129-0.002,1.319-0.195,1.324-1.33c0.006-1.271,0.008-2.543,0-3.816c-0.009-1.061-0.222-1.266-1.307-1.266
		c-2.76-0.004-5.521-0.029-8.282,0.018c-0.703,0.012-0.848-0.203-0.824-0.857c0.049-1.461,0.003-2.924,0.019-4.385
		c0.016-1.396,0.587-1.949,1.993-1.955c1.65-0.008,3.303,0.016,4.953-0.014c0.647-0.012,0.975,0.236,0.994,0.875
		c0.027,0.975,0.061,1.947,0.061,2.92c0,0.68,0.31,0.996,0.982,0.996c0.895-0.002,1.788-0.023,2.678,0.029
		c0.954,0.057,1.113,0.258,1.115,1.197C179.246,553.736,179.242,555.361,179.242,556.984z"/>
	<g>
		<path d="M167.255,558.154c-0.168,0.084-0.546,0.174-1.036,0.174c-1.398,0-2.118-0.869-2.118-2.021
			c0-1.379,0.983-2.146,2.207-2.146c0.474,0,0.833,0.096,0.995,0.18l-0.186,0.726c-0.187-0.078-0.444-0.15-0.768-0.15
			c-0.726,0-1.29,0.438-1.29,1.338c0,0.81,0.48,1.319,1.296,1.319c0.275,0,0.581-0.061,0.762-0.132L167.255,558.154z"/>
		<path d="M167.887,557.327c0.246,0.126,0.625,0.252,1.014,0.252c0.42,0,0.642-0.174,0.642-0.438c0-0.252-0.192-0.396-0.678-0.57
			c-0.672-0.233-1.109-0.605-1.109-1.193c0-0.689,0.575-1.217,1.529-1.217c0.455,0,0.79,0.096,1.031,0.203l-0.204,0.738
			c-0.162-0.078-0.449-0.192-0.846-0.192c-0.396,0-0.588,0.18-0.588,0.39c0,0.258,0.229,0.372,0.75,0.57
			c0.713,0.264,1.049,0.636,1.049,1.205c0,0.678-0.521,1.253-1.631,1.253c-0.461,0-0.918-0.119-1.145-0.245L167.887,557.327z"/>
		<path d="M172.05,558.269l-1.296-4.042h1.002l0.49,1.709c0.141,0.48,0.266,0.941,0.361,1.445h0.018
			c0.103-0.485,0.228-0.965,0.365-1.427l0.517-1.728h0.972l-1.361,4.042H172.05z"/>
	</g>
</g>
<g>
	<polygon fill="#FFFFFF" points="92.674,544.756 109.869,554.683 92.674,564.611 	"/>
	
		<line fill="none" stroke="#FFFFFF" stroke-width="4" stroke-miterlimit="10" x1="109.869" y1="544.757" x2="109.869" y2="564.924"/>
</g>
<g>
	<path fill="#FFFFFF" d="M249.86,559.702h-3.691l-2.518-3.328l-2.648,3.328h-3.712l4.604-5.406l-3.714-4.728h3.747l1.738,2.571
		l1.854-2.571h3.813l-3.895,4.728L249.86,559.702 M254.731,564.322h-21.927v-19.565h21.927V564.322z M234.91,562.354h17.712v-15.629
		H234.91"/>
</g>
<rect x="270.525" y="544.619" fill="#00FF8D" width="20" height="20"/>
<polygon fill="#F15A59" points="306.32,564.322 317.867,544.322 329.414,564.322 "/>
<g>
	<path fill="#FFFFFF" d="M206.924,496.534h-10.297v-0.396c0-0.875-0.709-1.584-1.584-1.584h-3.96c-0.876,0-1.584,0.709-1.584,1.584
		v1.979v2.773v8.316c0,0.873,0.708,1.584,1.584,1.584h15.841c0.874,0,1.584-0.711,1.584-1.584v-11.09
		C208.508,497.241,207.798,496.534,206.924,496.534z M190.292,496.138c0-0.438,0.355-0.793,0.792-0.793h3.96
		c0.438,0,0.793,0.355,0.793,0.793v0.396v0.791h0.791h10.297c0.437,0,0.792,0.355,0.792,0.791v0.793h-17.425v-0.793V496.138z
		 M206.924,509.997h-15.841c-0.437,0-0.792-0.355-0.792-0.791v-8.316V499.7h17.424v9.506
		C207.715,509.642,207.361,509.997,206.924,509.997z"/>
</g>
<g>
	<path fill-rule="evenodd" clip-rule="evenodd" fill="#FFFFFF" d="M215.541,502.608c0-2.439,0-4.877,0-7.316
		c0-0.746,0.407-1.158,1.15-1.158c2.328,0,4.653,0.004,6.981-0.004c0.345,0,0.612,0.113,0.842,0.367
		c1.184,1.305,2.373,2.607,3.566,3.906c0.23,0.252,0.27,0.551,0.271,0.865c0.001,1.49,0,2.979,0,4.469
		c0,2.068,0.004,4.137-0.004,6.203c-0.003,0.219-0.038,0.447-0.116,0.648c-0.146,0.383-0.431,0.611-0.859,0.621
		c-0.074,0.002-0.148,0.002-0.223,0.002c-3.431,0.002-6.861,0.002-10.294,0.002c-0.863,0-1.314-0.451-1.314-1.313
		C215.541,507.47,215.541,505.038,215.541,502.608z M226.913,500.45c-0.115,0-0.204,0-0.291,0c-0.846,0-1.691,0-2.535,0
		c-0.844-0.002-1.383-0.545-1.383-1.395c-0.003-1.074,0-2.148,0-3.223c0-0.086,0-0.172,0-0.258c-1.932,0-3.824,0-5.724,0
		c0,4.742,0,9.465,0,14.201c3.317,0,6.618,0,9.933,0C226.913,506.667,226.913,503.575,226.913,500.45z M226.694,499.015
		c-0.865-0.947-1.692-1.854-2.551-2.791c0,0.967,0,1.873,0,2.791C224.987,499.015,225.812,499.015,226.694,499.015z"/>
	<rect x="218.079" y="507.97" fill="#FFFFFF" width="7.834" height="0.625"/>
	<rect x="218.079" y="505.927" fill="#FFFFFF" width="7.834" height="0.625"/>
	<rect x="218.079" y="503.593" fill="#FFFFFF" width="7.834" height="0.625"/>
	<rect x="218.079" y="501.552" fill="#FFFFFF" width="7.834" height="0.625"/>
	<rect x="218.079" y="498.718" fill="#FFFFFF" width="3.867" height="0.625"/>
	<rect x="218.079" y="496.858" fill="#FFFFFF" width="3.867" height="0.625"/>
</g>
<g>
	<path fill-rule="evenodd" clip-rule="evenodd" fill="#00FFFF" d="M169.656,502.608c0-2.438,0-4.877,0-7.315
		c0-0.747,0.407-1.159,1.15-1.159c2.328,0,4.653,0.004,6.981-0.003c0.345-0.001,0.612,0.113,0.842,0.366
		c1.184,1.306,2.373,2.608,3.566,3.906c0.23,0.252,0.27,0.551,0.271,0.866c0.001,1.489,0,2.979,0,4.469
		c0,2.067,0.004,4.136-0.004,6.203c-0.003,0.218-0.038,0.446-0.116,0.648c-0.146,0.383-0.431,0.611-0.859,0.621
		c-0.074,0.002-0.148,0.002-0.223,0.002c-3.431,0.001-6.861,0.001-10.294,0.001c-0.863,0-1.314-0.45-1.314-1.313
		C169.656,507.47,169.656,505.039,169.656,502.608z M181.028,500.45c-0.115,0-0.204,0-0.291,0c-0.846,0-1.691,0.001-2.535,0
		s-1.383-0.544-1.383-1.394c-0.003-1.074,0-2.149,0-3.224c0-0.085,0-0.171,0-0.258c-1.932,0-3.824,0-5.724,0
		c0,4.742,0,9.466,0,14.201c3.317,0,6.618,0,9.933,0C181.028,506.668,181.028,503.575,181.028,500.45z M180.809,499.015
		c-0.865-0.947-1.692-1.854-2.551-2.791c0,0.967,0,1.874,0,2.791C179.102,499.015,179.927,499.015,180.809,499.015z"/>
	<rect x="172.194" y="507.97" fill="#00FFFF" width="7.834" height="0.625"/>
	<rect x="172.194" y="505.928" fill="#00FFFF" width="7.834" height="0.625"/>
	<rect x="172.194" y="503.594" fill="#00FFFF" width="7.834" height="0.625"/>
	<rect x="172.194" y="501.553" fill="#00FFFF" width="7.834" height="0.625"/>
	<rect x="172.194" y="498.719" fill="#00FFFF" width="3.867" height="0.625"/>
	<rect x="172.194" y="496.859" fill="#00FFFF" width="3.867" height="0.625"/>
</g>
<g>
	<path fill="none" stroke="#FFFFFF" stroke-width="0.7" stroke-miterlimit="10" d="M140.974,510.113c0-4.961,0-9.922,0-14.884
		c1.959,0,3.918,0.003,5.876-0.004c0.161-0.001,0.255,0.053,0.346,0.178c0.583,0.787,1.178,1.566,1.759,2.354
		c0.098,0.133,0.199,0.183,0.365,0.183c3.22-0.005,6.439-0.004,9.659-0.004c0.083,0,0.165,0,0.246,0c0,0.466,0,0.904,0,1.354
		c-5.187,0-10.359,0-15.543,0c-0.095,0.3-0.188,0.594-0.28,0.889c-0.454,1.449-0.908,2.898-1.358,4.349
		c-0.021,0.066-0.036,0.171-0.001,0.21c0.188,0.212,0.396,0.409,0.615,0.631c0.028-0.076,0.045-0.113,0.056-0.152
		c0.526-1.678,1.053-3.354,1.57-5.035c0.055-0.176,0.133-0.219,0.308-0.219c6.011,0.004,12.021,0.004,18.032,0.004
		c0,0.014,0,0.028,0,0.042c-0.025,0.057-0.057,0.113-0.075,0.172c-1.075,3.227-2.153,6.453-3.22,9.683
		c-0.067,0.203-0.156,0.257-0.367,0.257C152.965,510.112,146.97,510.113,140.974,510.113z"/>
</g>
<g>
	<line fill="#FFFFFF" stroke="#FFFFFF" stroke-miterlimit="10" x1="130.899" y1="502.672" x2="125.051" y2="502.672"/>
	<circle fill="none" stroke="#FFFFFF" stroke-miterlimit="10" cx="127.975" cy="502.672" r="5.967"/>
</g>
<g>
	<g>
		<g>
			<g>
				<path fill="#49CCDA" d="M310.59,326.924c-0.576-1.505-1.699-2.693-3.171-3.35c-0.78-0.348-1.607-0.525-2.457-0.525
					c-2.324,0-4.44,1.341-5.439,3.43c0.521,0.506,0.978,1.084,1.36,1.716c0.062-0.274,0.149-0.55,0.268-0.818
					c0.672-1.503,2.168-2.47,3.811-2.47c0.588,0,1.16,0.121,1.702,0.363c1.015,0.455,1.794,1.275,2.192,2.316
					c0.351,0.916,0.368,1.906,0.057,2.822c0.458,0.602,0.821,1.275,1.063,2.006c0.185-0.275,0.351-0.568,0.488-0.877
					C311.119,330.066,311.165,328.426,310.59,326.924z"/>
			</g>
			<g>
				<path fill="#49CCDA" d="M310.517,323.752c-0.219,0-0.438-0.08-0.614-0.235c-0.385-0.339-0.421-0.925-0.082-1.31l2.546-2.886
					c0.341-0.385,0.926-0.421,1.312-0.079c0.384,0.339,0.422,0.925,0.081,1.31l-2.547,2.886
					C311.029,323.645,310.772,323.752,310.517,323.752z"/>
				<path fill="#49CCDA" d="M305.764,321.449c-0.166,0.141-0.383,0.227-0.618,0.221c-0.513-0.01-0.921-0.432-0.911-0.943
					l0.067-3.848c0.007-0.514,0.43-0.922,0.944-0.913c0.511,0.009,0.921,0.431,0.911,0.943l-0.067,3.847
					C306.084,321.037,305.96,321.281,305.764,321.449z"/>
				<path fill="#49CCDA" d="M300.774,322.695c-0.038,0.214-0.152,0.415-0.339,0.559c-0.401,0.317-0.986,0.248-1.304-0.156
					l-2.378-3.025c-0.316-0.402-0.248-0.986,0.155-1.304c0.404-0.314,0.988-0.244,1.306,0.155l2.377,3.026
					C300.764,322.17,300.822,322.441,300.774,322.695z"/>
				<path fill="#49CCDA" d="M311.171,333.592c-0.039-0.213,0-0.442,0.124-0.644c0.271-0.437,0.841-0.571,1.278-0.302l3.276,2.018
					c0.436,0.271,0.572,0.843,0.304,1.279c-0.27,0.437-0.841,0.57-1.279,0.303l-3.276-2.019
					C311.36,334.081,311.211,333.846,311.171,333.592z"/>
				<path fill="#49CCDA" d="M312.637,328.475c-0.17-0.141-0.288-0.338-0.325-0.57c-0.082-0.507,0.263-0.983,0.77-1.063l3.8-0.607
					c0.505-0.08,0.983,0.266,1.063,0.771c0.082,0.508-0.265,0.984-0.768,1.063l-3.801,0.608
					C313.1,328.719,312.834,328.637,312.637,328.475z"/>
				<path fill="#49CCDA" d="M310.518,323.752c-0.22,0-0.438-0.076-0.615-0.232c-0.383-0.342-0.421-0.928-0.082-1.313l2.546-2.886
					c0.339-0.385,0.926-0.421,1.312-0.079c0.384,0.339,0.42,0.925,0.081,1.31l-2.547,2.886
					C311.029,323.645,310.772,323.752,310.518,323.752z"/>
			</g>
		</g>
		<g>
			<path fill="#FFFFFF" d="M303.028,340.697h-19.079c-2.616,0-4.746-2.128-4.746-4.744c0-2.617,2.13-4.746,4.746-4.746
				c0.479,0,0.95,0.07,1.4,0.211c0.708-3.56,3.875-6.265,7.622-6.265c3.083,0,5.829,1.816,7.072,4.546
				c0.897-0.527,1.921-0.809,2.984-0.809c3.253,0,5.9,2.646,5.9,5.902C308.929,338.051,306.281,340.697,303.028,340.697z
				 M283.949,333.064c-1.594,0-2.888,1.297-2.888,2.889c0,1.59,1.294,2.885,2.888,2.885h19.079c2.229,0,4.045-1.813,4.045-4.045
				c0-2.229-1.816-4.047-4.045-4.047c-1.046,0-2.038,0.4-2.794,1.121c-0.236,0.229-0.577,0.314-0.895,0.223
				c-0.316-0.092-0.563-0.338-0.645-0.659c-0.678-2.602-3.031-4.421-5.724-4.421c-3.213,0-5.865,2.616-5.912,5.828
				c-0.005,0.346-0.198,0.656-0.506,0.813c-0.305,0.158-0.673,0.131-0.954-0.064C285.113,333.244,284.542,333.064,283.949,333.064z"
				/>
		</g>
	</g>
	<path fill="#FFFFFF" d="M335.59,320.418c-4.481,0-8.113,3.633-8.113,8.113c0,4.482,3.632,8.113,8.113,8.113
		s8.113-3.631,8.113-8.113C343.703,324.051,340.071,320.418,335.59,320.418z M335.59,335.996c-4.115,0-7.465-3.35-7.465-7.465
		s3.35-7.463,7.465-7.463s7.465,3.348,7.465,7.463S339.705,335.996,335.59,335.996z"/>
</g>
<g>
	<g>
		<path fill="#FFFFFF" d="M406.828,331.028h-15.972c-2.148,0-3.896-1.749-3.896-3.896c0-2.148,1.747-3.897,3.896-3.897
			c0.423,0,0.836,0.068,1.23,0.199c0.555-2.982,3.193-5.266,6.323-5.266c2.581,0,4.874,1.537,5.887,3.837
			c0.756-0.46,1.627-0.707,2.532-0.707c2.683,0,4.865,2.181,4.865,4.865C411.693,328.845,409.511,331.028,406.828,331.028z
			 M390.856,324.639c-1.375,0-2.492,1.117-2.492,2.493c0,1.374,1.117,2.493,2.492,2.493h15.972c1.906,0,3.461-1.553,3.461-3.462
			s-1.555-3.464-3.461-3.464c-0.895,0-1.742,0.342-2.39,0.961c-0.182,0.172-0.438,0.234-0.68,0.166
			c-0.237-0.068-0.422-0.26-0.485-0.498c-0.577-2.211-2.577-3.756-4.864-3.756c-2.731,0-4.985,2.221-5.025,4.953
			c-0.002,0.26-0.15,0.496-0.382,0.613c-0.231,0.119-0.508,0.099-0.72-0.049C391.861,324.795,391.367,324.639,390.856,324.639z"/>
		<path fill="#FFFFFF" d="M392.348,339.262c-0.322,0.687-1.137,0.984-1.825,0.662c-0.687-0.32-0.983-1.138-0.664-1.824
			c0.32-0.684,1.568-1.186,2.791-2.737C392.314,337.314,392.669,338.575,392.348,339.262z"/>
		<path fill="#FFFFFF" d="M397.201,333.855c-0.232,0.496-0.825,0.713-1.323,0.48c-0.498-0.231-0.712-0.822-0.479-1.322
			c0.23-0.498,1.134-0.861,2.023-1.985C397.178,332.445,397.435,333.355,397.201,333.855z"/>
		<path fill="#FFFFFF" d="M405.974,333.855c-0.232,0.496-0.825,0.713-1.322,0.48c-0.5-0.231-0.714-0.822-0.483-1.322
			c0.232-0.498,1.137-0.861,2.023-1.985C405.948,332.445,406.205,333.355,405.974,333.855z"/>
		<path fill="#FFFFFF" d="M401.12,339.262c-0.32,0.687-1.137,0.984-1.825,0.662c-0.686-0.32-0.983-1.138-0.663-1.824
			c0.321-0.684,1.568-1.186,2.791-2.737C401.087,337.314,401.44,338.575,401.12,339.262z"/>
	</g>
	<g>
		<path fill="#00FFFF" d="M429.406,319.576c-4.482,0-8.114,3.633-8.114,8.113c0,4.482,3.631,8.113,8.114,8.113
			c4.48,0,8.113-3.631,8.113-8.113C437.52,323.209,433.887,319.576,429.406,319.576z M429.406,335.154
			c-4.115,0-7.465-3.35-7.465-7.465s3.35-7.463,7.465-7.463s7.465,3.348,7.465,7.463S433.521,335.154,429.406,335.154z"/>
		<polygon fill="#00FFFF" points="433.584,324.504 428.133,329.955 425.23,327.055 424.771,327.516 428.133,330.877 
			434.041,324.965 		"/>
	</g>
</g>
<g>
	<g>
		<path fill="#F3C451" d="M196.204,335.111c-3.739,0-6.781-3.041-6.781-6.778c0-3.741,3.042-6.781,6.781-6.781l0,0
			c1.81,0,3.513,0.704,4.793,1.985c1.281,1.281,1.985,2.983,1.985,4.796C202.982,332.07,199.94,335.111,196.204,335.111z
			 M196.204,323.261c-2.796,0-5.074,2.276-5.074,5.072s2.278,5.069,5.074,5.069c2.795,0,5.069-2.273,5.069-5.069
			c0-1.354-0.527-2.63-1.485-3.587C198.831,323.787,197.557,323.261,196.204,323.261z"/>
		<g>
			<path fill="#F3C451" d="M198.939,320.465c-0.084,0-0.171-0.012-0.254-0.039c-0.452-0.14-0.701-0.618-0.563-1.07l1.258-4.031
				c0.141-0.449,0.618-0.701,1.07-0.559c0.45,0.139,0.701,0.617,0.562,1.069l-1.258,4.029
				C199.64,320.229,199.302,320.465,198.939,320.465z"/>
			<path fill="#F3C451" d="M193.195,320.574c-0.065,0.054-0.138,0.098-0.22,0.134c-0.434,0.185-0.936-0.015-1.12-0.452l-1.657-3.883
				c-0.186-0.434,0.018-0.937,0.452-1.121c0.434-0.187,0.935,0.019,1.121,0.452l1.655,3.884
				C193.576,319.941,193.472,320.34,193.195,320.574z"/>
			<path fill="#F3C451" d="M188.97,324.238c-0.016,0.083-0.044,0.164-0.086,0.24c-0.218,0.42-0.735,0.58-1.151,0.359l-3.738-1.967
				c-0.417-0.217-0.58-0.734-0.36-1.152c0.223-0.42,0.739-0.576,1.155-0.359l3.738,1.967
				C188.866,323.504,189.035,323.879,188.97,324.238z"/>
			<path fill="#F3C451" d="M188.056,329.955c0.042,0.072,0.074,0.154,0.095,0.238c0.105,0.461-0.181,0.921-0.642,1.025l-4.113,0.95
				c-0.46,0.104-0.921-0.181-1.025-0.639c-0.107-0.464,0.18-0.921,0.64-1.028l4.114-0.947
				C187.499,329.468,187.873,329.641,188.056,329.955z"/>
			<path fill="#F3C451" d="M190.95,334.764c0.079,0.029,0.154,0.07,0.224,0.125c0.375,0.287,0.444,0.822,0.156,1.197l-2.573,3.349
				c-0.287,0.371-0.825,0.442-1.198,0.154c-0.374-0.285-0.444-0.823-0.156-1.198l2.575-3.346
				C190.21,334.742,190.608,334.639,190.95,334.764z"/>
			<path fill="#F3C451" d="M196.364,336.641c0.079-0.029,0.164-0.047,0.252-0.053c0.471-0.021,0.872,0.342,0.893,0.814l0.203,4.219
				c0.022,0.47-0.342,0.871-0.814,0.892c-0.469,0.024-0.869-0.339-0.893-0.812l-0.201-4.219
				C195.786,337.102,196.022,336.766,196.364,336.641z"/>
			<path fill="#F3C451" d="M201.664,334.609c0.042-0.075,0.094-0.144,0.157-0.203c0.348-0.32,0.889-0.3,1.208,0.048l2.866,3.105
				c0.319,0.345,0.297,0.886-0.049,1.206c-0.346,0.321-0.887,0.297-1.208-0.051l-2.863-3.102
				C201.514,335.334,201.479,334.924,201.664,334.609z"/>
			<path fill="#F3C451" d="M204.417,329.688c-0.013-0.083-0.013-0.169-0.004-0.258c0.064-0.467,0.493-0.797,0.959-0.731l4.188,0.556
				c0.468,0.063,0.796,0.49,0.732,0.957c-0.061,0.469-0.49,0.797-0.958,0.734l-4.187-0.553
				C204.767,330.339,204.479,330.047,204.417,329.688z"/>
			<path fill="#F3C451" d="M203.319,324.004c-0.065-0.054-0.123-0.119-0.172-0.193c-0.257-0.396-0.146-0.924,0.248-1.184
				l3.538-2.309c0.396-0.255,0.923-0.145,1.183,0.247c0.257,0.396,0.147,0.925-0.248,1.183l-3.538,2.309
				C204.008,324.268,203.601,324.235,203.319,324.004z"/>
			<path fill="#F3C451" d="M198.939,320.465c-0.084,0-0.171-0.012-0.256-0.039c-0.45-0.14-0.702-0.618-0.561-1.07l1.26-4.031
				c0.14-0.449,0.617-0.701,1.068-0.559c0.45,0.139,0.701,0.617,0.562,1.069l-1.258,4.029
				C199.637,320.229,199.302,320.465,198.939,320.465z"/>
		</g>
	</g>
	<path fill="#FFFFFF" d="M227.832,320.219c-4.482,0-8.113,3.631-8.113,8.113c0,4.48,3.631,8.113,8.113,8.113
		c4.481,0,8.113-3.633,8.113-8.113C235.945,323.85,232.313,320.219,227.832,320.219z M227.832,335.795
		c-4.116,0-7.465-3.348-7.465-7.463s3.349-7.465,7.465-7.465c4.115,0,7.465,3.35,7.465,7.465S231.947,335.795,227.832,335.795z"/>
</g>
<g>
	<path fill="#FFFFFF" d="M215.598,375.507c-4.481,0-8.113,3.632-8.113,8.113s3.632,8.113,8.113,8.113s8.113-3.632,8.113-8.113
		S220.08,375.507,215.598,375.507z M215.598,391.084c-4.115,0-7.465-3.349-7.465-7.464s3.35-7.464,7.465-7.464
		s7.465,3.349,7.465,7.464S219.713,391.084,215.598,391.084z"/>
	<polygon fill="#00FF8D" points="174.253,392.404 177.961,392.404 177.961,386.604 174.253,389.525 	"/>
	<polygon fill="#00FF8D" points="193.169,382.702 193.169,392.404 196.877,392.404 196.877,379.78 	"/>
	<polygon fill="#00FF8D" points="188.496,386.443 188.44,386.487 188.44,392.404 192.148,392.404 192.148,383.506 188.467,386.406 	
		"/>
	<polygon fill="#00FF8D" points="185.325,388.881 185.325,388.882 183.711,386.835 183.711,392.404 187.419,392.404 
		187.419,387.283 185.342,388.903 	"/>
	<polygon fill="#00FF8D" points="178.982,385.8 178.982,392.404 182.69,392.404 182.69,385.504 181.421,383.878 	"/>
	<polygon fill="#00FF8D" points="198.056,369.799 192.674,370.612 194.824,373.306 193.169,374.609 192.148,375.414 188.44,378.335 
		187.419,379.139 186.006,380.252 184.564,378.402 184.616,378.361 183.711,377.213 182.69,375.917 182.14,375.219 178.982,377.707 
		177.961,378.512 174.253,381.434 170.848,384.115 173.324,387.258 174.253,386.525 177.961,383.604 178.982,382.8 181.421,380.878 
		182.69,382.504 182.864,382.728 182.848,382.74 183.711,383.835 185.325,385.882 185.325,385.881 185.342,385.903 187.419,384.283 
		188.44,383.487 188.496,383.443 188.467,383.406 192.148,380.506 193.169,379.702 196.877,376.78 197.319,376.433 199.465,379.121 
		201.451,374.053 203.439,368.984 	"/>
</g>
<g>
	<g>
		<g>
			<path fill="#00FFFF" d="M316.604,375.507c-4.481,0-8.113,3.632-8.113,8.113s3.632,8.113,8.113,8.113s8.113-3.632,8.113-8.113
				S321.085,375.507,316.604,375.507z M316.604,391.084c-4.115,0-7.465-3.349-7.465-7.464s3.35-7.464,7.465-7.464
				c4.115,0,7.465,3.349,7.465,7.464S320.718,391.084,316.604,391.084z"/>
			<polygon fill="#00FFFF" points="320.781,380.434 315.33,385.886 312.428,382.984 311.968,383.445 315.33,386.807 
				321.239,380.895 			"/>
		</g>
	</g>
	<polygon fill="#F15A59" points="274.948,381.702 274.948,391.404 271.24,391.404 271.24,378.78 	"/>
	<polygon fill="#F15A59" points="279.621,385.443 279.677,385.487 279.677,391.404 275.969,391.404 275.969,382.506 279.65,385.406 
			"/>
	<polygon fill="#F15A59" points="282.792,387.881 282.792,387.882 284.406,385.835 284.406,391.404 280.698,391.404 
		280.698,386.283 282.775,387.903 	"/>
	<polygon fill="#F15A59" points="289.135,384.8 289.135,391.404 285.427,391.404 285.427,384.504 286.696,382.878 	"/>
	<polygon fill="#F15A59" points="298.418,389.443 293.036,388.629 295.186,385.936 293.531,384.632 292.51,383.828 288.802,380.906 
		287.781,380.102 286.369,378.989 284.926,380.839 284.978,380.88 284.073,382.028 283.052,383.324 282.502,384.021 
		279.344,381.533 278.323,380.729 274.615,377.809 271.21,375.125 273.687,371.984 274.615,372.716 278.323,375.637 
		279.344,376.441 281.784,378.363 283.052,376.737 283.227,376.514 283.21,376.501 284.073,375.406 285.687,373.359 
		285.688,373.359 285.705,373.338 287.781,374.957 288.802,375.754 288.858,375.798 288.83,375.835 292.51,378.734 293.531,379.539 
		297.239,382.461 297.681,382.809 299.827,380.12 301.813,385.189 303.801,390.258 	"/>
</g>
<g>
	<g>
		<path fill="#FFFFFF" d="M419.634,375.507c-4.481,0-8.113,3.632-8.113,8.113s3.632,8.113,8.113,8.113
			c4.481,0,8.114-3.632,8.114-8.113S424.115,375.507,419.634,375.507z M419.634,391.084c-4.115,0-7.465-3.349-7.465-7.464
			s3.35-7.464,7.465-7.464c4.116,0,7.465,3.349,7.465,7.464S423.75,391.084,419.634,391.084z"/>
	</g>
	<rect x="392.143" y="382.318" fill="#FFFFFF" width="4.834" height="8.299"/>
	<rect x="385.511" y="382.313" fill="#FFFFFF" width="4.834" height="8.305"/>
	<rect x="378.879" y="382.252" fill="#FFFFFF" width="4.834" height="8.365"/>
	<rect x="372.247" y="382.271" fill="#FFFFFF" width="4.835" height="8.346"/>
	<polygon fill="#FFFFFF" points="404.752,375.67 400.088,372.979 400.088,376.496 372.229,376.397 372.216,380.414 400.088,380.514 
		400.088,383.748 404.752,381.055 409.417,378.363 	"/>
</g>
<g>
	<path fill="#FFFFFF" d="M404.722,435.716h-3.27l-2.229-3.154l-2.345,3.154h-3.284l4.074-5.124l-3.289-4.48h3.317l1.54,2.437
		l1.643-2.437h3.375l-3.448,4.48L404.722,435.716 M409.034,440.095h-19.415v-18.544h19.415V440.095z M391.484,438.229h15.683
		v-14.813h-15.683"/>
</g>
<g>
	<title></title>
	<desc></desc>
	<g id="Page-1_1_">
		<g id="Icons-AV_1_" transform="translate(-168.000000, -85.000000)">
			<g id="play-circle-outline_2_" transform="translate(168.000000, 85.000000)">
				<path id="Shape_1_" fill="#FFFFFF" d="M469.085,561.18l6-4.5l-6-4.5V561.18L469.085,561.18z M471.085,546.68
					c-5.5,0-10,4.5-10,10s4.5,10,10,10s10-4.5,10-10S476.585,546.68,471.085,546.68L471.085,546.68z M471.085,564.68
					c-4.399,0-8-3.6-8-8s3.601-8,8-8c4.398,0,8,3.6,8,8S475.483,564.68,471.085,564.68L471.085,564.68z"/>
			</g>
		</g>
	</g>
</g>
<g>
	<title></title>
	<desc></desc>
	<g id="Page-1_3_">
		<g id="Icons-AV_3_" transform="translate(-2.000000, -127.000000)">
			<g id="replay_2_" transform="translate(2.000000, 127.000000)">
				<path id="Shape_3_" fill="#FFFFFF" d="M514.733,549.613v-4.267l-5.334,5.334l5.334,5.333v-4.267c3.52,0,6.399,2.88,6.399,6.399
					s-2.88,6.4-6.399,6.4s-6.4-2.881-6.4-6.4H506.2c0,4.694,3.84,8.533,8.533,8.533c4.689,0,8.533-3.839,8.533-8.533
					C523.267,553.453,519.423,549.613,514.733,549.613L514.733,549.613z"/>
			</g>
		</g>
	</g>
</g>
<g>
	<g id="packet_2_">
		<path fill="#FFFFFF" d="M569.842,550.281c0-1.171-0.95-2.121-2.121-2.121h-17.466c-1.172,0-2.121,0.95-2.121,2.121v13.82
			c0,1.172,0.949,2.121,2.121,2.121h17.466c1.171,0,2.121-0.949,2.121-2.121V550.281z M550.267,549.855h17.471
			c0.234,0,0.423,0.187,0.423,0.42v0.019l-8.858,8.86c-0.109,0.107-0.234,0.124-0.299,0.124c-0.066,0-0.194-0.017-0.301-0.124
			l-8.862-8.861v-0.018C549.84,550.042,550.032,549.855,550.267,549.855z M567.737,564.528h-17.471
			c-0.234,0-0.427-0.193-0.427-0.428v-11.408l7.663,7.661c0.4,0.4,0.934,0.621,1.5,0.621c0.564,0,1.098-0.221,1.497-0.621l7.66-7.66
			v11.407C568.16,564.335,567.972,564.528,567.737,564.528z"/>
	</g>
	<g id="Layer_1_2_">
	</g>
</g>
<g>
	<path fill-rule="evenodd" clip-rule="evenodd" fill="#FDFDFD" d="M666.676,553.204c0.009-1.073-0.351-1.944-1.095-2.689
		c-1.051-1.051-2.125-2.151-3.144-3.233c-0.596-0.635-1.256-1.281-2.119-1.281c-2.49,0-4.982,0-7.475,0
		c-0.755,0-1.535,0.35-2.031,1.08c-0.435,0.641-0.745,1.339-0.744,2.136c0.003,1.484-0.01,2.988,0.003,4.474
		c0.007,0.611-0.219,0.926-0.854,0.883c-0.241-0.018-0.065,0.017-0.308,0.005c-0.635-0.027-0.91,0.205-0.91,0.829
		c0,1.842,0,3.684,0,5.525c0,0.617,0.346,0.771,0.943,0.813c1.543,0.107,1.332-0.363,1.34,1.223
		c0.012,2.094,0.551,3.033,2.561,3.033c3.684,0,7.367,0,11.051,0c1.521,0,2.352-0.576,2.697-2.006
		c0.077-0.318,0.073-0.407,0.073-0.731C666.669,559.831,666.65,556.636,666.676,553.204z M664.742,558.631
		c0,1.569,0.008,3.14-0.003,4.709c-0.007,1.451-0.558,1.99-2.028,1.992c-2.924,0.005-5.848,0.006-8.771,0
		c-1.394-0.004-1.951-0.567-1.979-1.973c-0.044-2.011-0.044-2.011,1.928-2.011c2.382,0,4.764,0.003,7.146-0.002
		c1.13-0.002,1.319-0.195,1.324-1.329c0.006-1.272,0.008-2.544,0-3.816c-0.009-1.061-0.222-1.266-1.307-1.267
		c-2.76-0.003-5.521-0.028-8.282,0.018c-0.703,0.012-0.848-0.202-0.825-0.857c0.051-1.46,0.004-2.923,0.02-4.384
		c0.016-1.397,0.586-1.949,1.994-1.955c1.65-0.008,3.303,0.016,4.953-0.015c0.646-0.012,0.974,0.237,0.993,0.876
		c0.027,0.974,0.061,1.946,0.061,2.92c0,0.68,0.31,0.995,0.982,0.995c0.894-0.001,1.787-0.022,2.679,0.03
		c0.954,0.057,1.112,0.257,1.115,1.196C664.746,555.383,664.742,557.007,664.742,558.631z"/>
	<path fill-rule="evenodd" clip-rule="evenodd" d="M659.215,558.474c0.2-0.722,0.461-1.434,0.58-2.169
		c0.124-0.769,0.666-0.646,1.095-0.554c0.554,0.119,0.135,0.523,0.071,0.762c-0.309,1.146-0.678,2.278-0.998,3.422
		c-0.124,0.444-0.298,0.679-0.826,0.666c-0.497-0.013-0.709-0.154-0.832-0.646c-0.295-1.178-0.671-2.336-0.989-3.509
		c-0.063-0.232-0.368-0.623,0.114-0.694c0.389-0.057,0.942-0.266,1.092,0.452c0.156,0.767,0.373,1.521,0.563,2.28
		C659.127,558.479,659.172,558.477,659.215,558.474z"/>
	<path fill-rule="evenodd" clip-rule="evenodd" d="M654.434,560.631c-1.037-0.034-1.278-0.258-1.112-0.954
		c0.086-0.372,0.237-0.438,0.564-0.289c0.145,0.065,0.312,0.087,0.471,0.103c0.266,0.026,0.595,0.084,0.69-0.245
		c0.084-0.285-0.197-0.407-0.411-0.524c-0.071-0.04-0.146-0.069-0.219-0.107c-1.043-0.565-1.379-1.249-1.021-2.072
		c0.314-0.725,1.307-1.07,2.243-0.82c0.405,0.107,0.525,0.301,0.413,0.701c-0.102,0.366-0.231,0.593-0.663,0.405
		c-0.144-0.062-0.316-0.075-0.475-0.074c-0.167,0.001-0.331,0.078-0.388,0.243c-0.062,0.187,0.084,0.295,0.228,0.379
		c0.164,0.095,0.332,0.182,0.498,0.272c0.896,0.483,1.208,1.091,0.976,1.896C656.03,560.239,655.336,560.66,654.434,560.631z"/>
	<path fill-rule="evenodd" clip-rule="evenodd" d="M648.728,558.097c0.06-1.671,1.246-2.655,2.854-2.355
		c0.313,0.058,0.651,0.086,0.517,0.598c-0.103,0.389-0.176,0.64-0.673,0.509c-0.494-0.131-0.982-0.051-1.271,0.445
		c-0.323,0.556-0.327,1.143-0.003,1.694c0.285,0.485,0.765,0.562,1.275,0.452c0.332-0.071,0.562-0.094,0.617,0.354
		c0.05,0.405,0.004,0.641-0.456,0.753C649.969,560.945,648.665,559.845,648.728,558.097z"/>
</g>
<g>
	<g>
		<g>
			<path fill="#FFFFFF" d="M618.309,564.438h-18.653c-0.454,0-0.823-0.369-0.823-0.824v-13.086c0-0.455,0.369-0.825,0.823-0.825
				h18.646c0.458,0,0.825,0.37,0.825,0.825v13.086C619.127,564.069,618.764,564.438,618.309,564.438z M600.48,562.79h17.004v-11.438
				H600.48V562.79z"/>
			<path fill="#FFFFFF" d="M602.56,568.079h-6.642c-0.455,0-0.824-0.369-0.824-0.824v-6.201c0-0.457,0.369-0.825,0.824-0.825
				c0.456,0,0.824,0.368,0.824,0.825v5.381h5.822c0.456,0,0.824,0.369,0.824,0.825S603.015,568.079,602.56,568.079z"/>
			<path fill="#FFFFFF" d="M622.047,568.079h-6.907c-0.455,0-0.824-0.369-0.824-0.824c0-0.456,0.369-0.825,0.824-0.825h6.082v-5.496
				c0-0.455,0.369-0.825,0.825-0.825c0.455,0,0.824,0.37,0.824,0.825v6.326C622.871,567.71,622.502,568.079,622.047,568.079z"/>
			<path fill="#FFFFFF" d="M622.047,554.462c-0.456,0-0.825-0.369-0.825-0.824v-5.931h-5.718c-0.455,0-0.824-0.369-0.824-0.825
				c0-0.455,0.369-0.824,0.824-0.824h6.543c0.455,0,0.824,0.369,0.824,0.824v6.75C622.871,554.093,622.502,554.462,622.047,554.462z
				"/>
			<path fill="#FFFFFF" d="M595.918,554.011c-0.455,0-0.824-0.369-0.824-0.824v-6.299c0-0.455,0.369-0.824,0.824-0.824h6.521
				c0.456,0,0.826,0.369,0.826,0.824s-0.37,0.824-0.826,0.824h-5.696v5.48C596.742,553.642,596.374,554.011,595.918,554.011z"/>
		</g>
	</g>
</g>
<path fill-rule="evenodd" clip-rule="evenodd" fill="#FFFFFF" d="M390.727,479.72c0-3.991,0-7.97,0-11.962c0.591,0,1.175,0,1.779,0
	c0-0.202,0-0.392,0-0.594c0.41,0,0.798,0,1.2,0c0,0.188,0,0.374,0,0.573c0.603,0,1.192,0,1.805,0c0-0.383-0.008-0.768,0.003-1.151
	c0.005-0.173,0.025-0.351,0.073-0.515c0.133-0.441,0.483-0.711,0.945-0.713c1.271-0.008,2.546-0.012,3.818,0
	c0.649,0.006,1.136,0.522,1.148,1.19c0.009,0.392,0.002,0.784,0.002,1.189c0.6,0,1.188,0,1.789,0c0-0.186,0-0.371,0-0.571
	c0.404,0,0.793,0,1.203,0c0,0.186,0,0.375,0,0.578c0.604,0,1.187,0,1.786,0c0,3.996,0,7.979,0,11.975
	C401.103,479.72,395.923,479.72,390.727,479.72z M391.325,479.121c4.795,0,9.578,0,14.354,0c0-2.798,0-5.584,0-8.365
	c-4.791,0-9.567,0-14.354,0C391.325,473.547,391.325,476.327,391.325,479.121z M403.302,468.364c-3.211,0-6.394,0-9.594,0
	c0,0.198,0,0.383,0,0.574c-0.402,0-0.791,0-1.199,0c0-0.202,0-0.392,0-0.579c-0.406,0-0.791,0-1.18,0c0,0.599,0,1.188,0,1.774
	c4.791,0,9.574,0,14.356,0c0-0.597,0-1.182,0-1.772c-0.397,0-0.786,0-1.196,0c0,0.201,0,0.39,0,0.578c-0.405,0-0.789,0-1.188,0
	C403.302,468.746,403.302,468.562,403.302,468.364z M400.901,467.745c0-0.387,0.007-0.755-0.002-1.121
	c-0.008-0.42-0.266-0.668-0.688-0.669c-1.179-0.003-2.358-0.002-3.538,0c-0.343,0-0.518,0.124-0.541,0.46
	c-0.029,0.439-0.008,0.882-0.008,1.33C397.713,467.745,399.295,467.745,400.901,467.745z"/>
<g>
	<path fill-rule="evenodd" clip-rule="evenodd" fill="#F05A24" d="M539.543,333.184c0-4.746,3.853-8.586,8.607-8.584
		c4.758,0.002,8.579,3.861,8.574,8.66c-0.004,4.686-3.881,8.523-8.609,8.521C543.385,341.779,539.543,337.926,539.543,333.184z
		 M556.001,333.211c0-4.361-3.501-7.885-7.837-7.889c-4.363-0.004-7.896,3.498-7.898,7.828c-0.002,4.385,3.497,7.906,7.859,7.908
		C552.479,341.059,556.001,337.549,556.001,333.211z"/>
	<path fill-rule="evenodd" clip-rule="evenodd" fill="#F05A24" d="M552.08,336.67c-0.16,0.164-0.308,0.314-0.453,0.463
		c-1.155-1.154-2.308-2.307-3.473-3.473c-1.172,1.18-2.317,2.334-3.468,3.494c-0.187-0.191-0.339-0.346-0.505-0.516
		c1.145-1.143,2.288-2.287,3.443-3.441c-1.16-1.16-2.306-2.305-3.456-3.455c0.174-0.172,0.327-0.324,0.493-0.49
		c1.146,1.152,2.289,2.305,3.44,3.463c1.175-1.182,2.32-2.336,3.463-3.484c0.179,0.186,0.329,0.34,0.478,0.496
		c-1.122,1.131-2.271,2.291-3.423,3.451C549.782,334.352,550.928,335.508,552.08,336.67z"/>
</g>
<path fill-rule="evenodd" clip-rule="evenodd" fill="#FFFFFF" d="M550.384,458.657c-0.02-2.498-1.993-4.497-4.491-4.502
	c-2.502-0.005-4.497,1.989-4.504,4.484c-0.009,2.521,2.004,4.469,4.417,4.509C548.321,463.19,550.361,461.192,550.384,458.657z
	 M554.009,468.9c-1.185-1.184-2.369-2.368-3.555-3.552c-0.086-0.085-0.123-0.184-0.077-0.298c0.082-0.206,0.17-0.409,0.255-0.611
	c-0.393-0.398-0.801-0.813-1.192-1.211c-0.383,0.22-0.739,0.47-1.131,0.639c-2.215,0.951-4.282,0.685-6.152-0.84
	c-1.084-0.884-1.706-2.06-1.952-3.434c-0.028-0.157-0.048-0.316-0.07-0.475c0-0.313,0-0.625,0-0.938
	c0.009-0.034,0.025-0.068,0.028-0.103c0.067-0.755,0.28-1.467,0.644-2.129c0.826-1.505,2.071-2.478,3.741-2.891
	c0.284-0.071,0.578-0.107,0.868-0.159c0.312,0,0.625,0,0.938,0c0.29,0.052,0.584,0.086,0.868,0.159
	c2.009,0.521,3.404,1.752,4.09,3.706c0.663,1.899,0.358,3.692-0.813,5.333c-0.019,0.025-0.036,0.05-0.043,0.06
	c0.417,0.416,0.827,0.827,1.235,1.235c0.177-0.077,0.378-0.169,0.582-0.25c0.124-0.05,0.232-0.01,0.325,0.084
	c1.148,1.148,2.296,2.297,3.444,3.445c0.033,0.032,0.063,0.068,0.093,0.103c0,0.083,0,0.167,0,0.25
	c-0.383,0.867-1.007,1.493-1.876,1.875C554.176,468.9,554.092,468.9,554.009,468.9z"/>
<g>
	
		<circle fill="#FFFFFF" fill-opacity="0.2" stroke="#FFFFFF" stroke-miterlimit="10" stroke-opacity="0.8" cx="242.634" cy="502.672" r="7.25"/>
	
		<line fill="none" stroke="#00FFFF" stroke-linecap="round" stroke-miterlimit="10" x1="238.541" y1="502.672" x2="246.728" y2="502.672"/>
	
		<line fill="none" stroke="#00FFFF" stroke-linecap="round" stroke-miterlimit="10" x1="242.611" y1="498.578" x2="242.611" y2="506.766"/>
</g>
<g>
	<path fill="none" stroke="#FFFFFF" stroke-width="2" stroke-miterlimit="10" d="M535.326,91.059c0,1.527-1.641,2.766-3.668,2.766
		h-40.713c-2.029,0-3.674-1.238-3.674-2.766V42.518c0-1.527,1.645-2.764,3.674-2.764h40.713c2.027,0,3.668,1.236,3.668,2.764V91.059
		z"/>
	<path fill="none" stroke="#FFFFFF" stroke-width="2" stroke-miterlimit="10" d="M535.326,95.846c0-1.117-1.035-2.021-2.313-2.021
		h-43.426c-1.277,0-2.316,0.904-2.316,2.021v0.225c0,1.115,1.039,2.021,2.316,2.021h43.426c1.277,0,2.313-0.906,2.313-2.021V95.846z
		"/>
	<path fill="#FFFFFF" stroke="#FFFFFF" stroke-miterlimit="10" d="M494.602,50.537c0,1.506-1.4,2.732-3.129,2.732h-8.4
		c-1.729,0-3.131-1.227-3.131-2.732v-0.223c0-1.512,1.402-2.734,3.131-2.734h8.4c1.729,0,3.129,1.223,3.129,2.734V50.537z"/>
	<path fill="#FFFFFF" stroke="#FFFFFF" stroke-miterlimit="10" d="M494.602,61.918c0,1.51-1.4,2.736-3.129,2.736h-8.4
		c-1.729,0-3.131-1.227-3.131-2.736v-0.223c0-1.508,1.402-2.734,3.131-2.734h8.4c1.729,0,3.129,1.227,3.129,2.734V61.918z"/>
	<path fill="#FFFFFF" stroke="#FFFFFF" stroke-miterlimit="10" d="M494.602,74.014c0,1.51-1.4,2.734-3.129,2.734h-8.4
		c-1.729,0-3.131-1.225-3.131-2.734v-0.221c0-1.51,1.402-2.734,3.131-2.734h8.4c1.729,0,3.129,1.225,3.129,2.734V74.014z"/>
	<path fill="#FFFFFF" stroke="#FFFFFF" stroke-miterlimit="10" d="M494.602,85.396c0,1.51-1.4,2.736-3.129,2.736h-8.4
		c-1.729,0-3.131-1.227-3.131-2.736v-0.223c0-1.506,1.402-2.732,3.131-2.732h8.4c1.729,0,3.129,1.227,3.129,2.732V85.396z"/>
</g>
<g>
	<path fill="none" stroke="#FFFFFF" stroke-width="3" stroke-miterlimit="10" d="M210.92,56.436c-2.102,0-14.133,0-14.133,0
		l-4.898,4.961l-0.123,0.145l-4.879-5.105h-1.607c-2.625,0-4.76,2.236-4.76,4.992V72.43c0,2.74,2.135,4.977,4.76,4.977h0.121
		c-0.152,0.42-0.244,0.875-0.244,1.346v17.713c0,1.973,1.512,3.584,3.412,3.584s3.414-1.611,3.414-3.584
		c0,1.973,1.543,3.584,3.43,3.584c1.883,0,3.43-1.611,3.43-3.584V63.42c0,0,10.547,0,12.17,0c1.639,0,3.738-0.842,3.738-3.275
		C214.75,57.717,213.02,56.436,210.92,56.436z"/>
	<path fill="#FFFFFF" d="M218.977,38.324c-1.059,0-1.748,0.467-2.887,1.166l-2.998,2.014c-1.016-2.236-2.727-3.707-4.666-3.707
		c-1.236,0-2.654,1.195-4.051,2.121c-0.98,0.654-5.564,3.684-7.352,4.867c-1.02-1.873-2.916-3.145-5.102-3.145
		c-3.275,0-5.902,2.768-5.902,6.189c0,3.42,2.627,6.191,5.902,6.191c1.928,0,3.639-0.998,4.717-2.514
		c1.84,0.527,11.191,3.205,11.787,3.205c1.498,0,2.855-0.881,3.869-2.314c0,0,5.039,2.314,6.682,2.314
		c3.111,0,5.637-3.668,5.637-8.191C224.614,41.994,222.088,38.324,218.977,38.324z M208.426,51.672
		c-1.998,0-3.613-2.426-3.613-5.418c0-2.99,1.615-5.414,3.613-5.414c1.992,0,3.611,2.424,3.611,5.414
		C212.038,49.246,210.418,51.672,208.426,51.672z M218.977,51.77c-1.994,0-3.611-2.352-3.611-5.248c0-2.9,1.617-5.254,3.611-5.254
		c1.992,0,3.607,2.354,3.607,5.254C222.584,49.418,220.969,51.77,218.977,51.77z"/>
</g>
<g>
	<path fill-rule="evenodd" clip-rule="evenodd" fill="#FFFFFF" d="M780.502,60.391c-0.141-2.953,0.029-5.824,1.195-8.547
		c1.383-3.197,3.875-5.164,7.158-6.092c4.256-1.205,8.555-1.277,12.768,0.152c3.48,1.184,6.27,3.299,7.602,6.877
		c1.525,4.096,1.322,8.086-1.494,11.584c-1.223,1.521-2.828,2.732-4.287,4.053c-0.545,0.49-1.166,0.895-1.752,1.34
		c-1.715,1.291-2.602,3.006-2.627,5.16c-0.002,0.578,0.039,1.168-0.061,1.734c-0.051,0.277-0.33,0.555-0.566,0.748
		c-0.162,0.121-0.445,0.098-0.678,0.109c-2.064,0.102-4.131,0.193-6.201,0.291c-0.189,0.004-0.387,0.004-0.576-0.018
		c-0.682-0.072-0.764-0.197-0.783-0.879c-0.045-1.723,0.104-3.426,0.521-5.102c0.596-2.428,2.156-4.195,3.998-5.748
		c0.957-0.809,1.979-1.541,2.973-2.313c1.635-1.264,2.813-2.867,3.107-4.922c0.484-3.383-2.021-6.695-5.523-6.799
		c-3.814-0.111-6.09,2.975-5.936,6.063c0.033,0.615,0.059,1.23,0.09,1.896C786.459,60.118,783.516,60.25,780.502,60.391z"/>
	<path fill-rule="evenodd" clip-rule="evenodd" fill="#FFFFFF" d="M800.336,87.389c0.143,3.205-1.961,5.463-5.223,5.609
		c-3.191,0.139-5.6-1.994-5.711-5.072c-0.117-3.178,2.053-5.566,5.182-5.705C797.82,82.079,800.197,84.217,800.336,87.389z"/>
</g>
<g>
	<g>
		<circle fill="none" stroke="#FEFEFE" stroke-width="3" stroke-miterlimit="10" cx="657.906" cy="59.515" r="17.184"/>
		<line fill="none" stroke="#FEFEFE" stroke-width="3" stroke-miterlimit="10" x1="654.09" y1="67.015" x2="662.09" y2="67.015"/>
		<path fill="none" stroke="#FEFEFE" stroke-width="3" stroke-miterlimit="10" d="M676.447,76.015c0,0,10.875,6.125,10.875,19.5
			h-58.857c0-13.375,10.875-19.5,10.875-19.5"/>
		<polyline fill="none" stroke="#FEFEFE" stroke-width="3" stroke-miterlimit="10" points="648.27,73.743 641.965,82.765 
			647.34,88.515 647.215,95.515 		"/>
		<polyline fill="none" stroke="#FEFEFE" stroke-width="3" stroke-miterlimit="10" points="667.285,73.917 672.34,82.015 
			669.09,85.224 		"/>
		<line fill="none" stroke="#FEFEFE" stroke-width="3" stroke-miterlimit="10" x1="667.285" y1="76.015" x2="661.215" y2="89.39"/>
		<line fill="none" stroke="#FEFEFE" stroke-width="3" stroke-miterlimit="10" x1="647.174" y1="75.312" x2="657.09" y2="95.515"/>
	</g>
	<line fill="none" stroke="#FEFEFE" stroke-width="3" stroke-miterlimit="10" x1="677.465" y1="90.515" x2="677.465" y2="95.515"/>
	<line fill="none" stroke="#FEFEFE" stroke-width="3" stroke-miterlimit="10" x1="637.965" y1="90.515" x2="637.965" y2="95.515"/>
</g>
<g>
	<path fill-rule="evenodd" clip-rule="evenodd" fill="#FFFFFF" d="M362.526,41.181c0-0.811-0.012-1.621,0.002-2.43
		c0.047-2.596,2.146-4.625,4.756-4.609c2.561,0.016,4.631,2.057,4.662,4.626c0.021,1.644,0.025,3.289-0.002,4.933
		c-0.041,2.549-2.15,4.584-4.715,4.578c-2.563-0.004-4.652-2.041-4.699-4.595C362.515,42.85,362.526,42.015,362.526,41.181z"/>
	<path fill-rule="evenodd" clip-rule="evenodd" fill="#FFFFFF" d="M338.96,41.283c0,0.785,0.01,1.57-0.002,2.354
		c-0.039,2.538-2.051,4.573-4.578,4.64c-2.563,0.068-4.729-1.891-4.824-4.455c-0.066-1.739-0.066-3.484,0-5.225
		c0.098-2.564,2.23-4.492,4.826-4.454c2.496,0.036,4.537,2.101,4.576,4.638C338.97,39.615,338.96,40.449,338.96,41.283z"/>
	<path fill="none" d="M324.856,55.388c0,12.545,0,25.051,0,37.615c9.926,0,19.83,0,29.727,0c-0.389-1.439-0.6-2.951-0.6-4.514
		c0-9.521,7.719-17.24,17.24-17.24c1.881,0,3.689,0.305,5.383,0.861c0-5.578,0-11.152,0-16.723
		C359.331,55.388,342.11,55.388,324.856,55.388z"/>
	<path fill="#FFFFFF" d="M324.856,93.003c0-12.564,0-25.07,0-37.615c17.254,0,34.475,0,51.75,0c0,5.57,0,11.145,0,16.723
		c2.746,0.902,5.186,2.474,7.127,4.523c0-12.004,0-24.008,0-36.013c0-0.147,0.004-0.294,0-0.442
		c-0.027-0.861-0.465-1.316-1.328-1.32c-2.576-0.01-5.154-0.004-7.73,0c-0.113,0-0.227,0.041-0.367,0.07
		c0,1.947-0.004,3.859,0.002,5.771c0.004,1.365-0.443,2.564-1.385,3.539c-2.049,2.117-4.555,2.814-7.4,2.16
		c-3.627-0.832-5.355-3.051-5.355-6.732c0-0.418,0-0.834,0-1.252c0-1.17,0-2.339,0-3.508c-6.332,0-12.574,0-18.852,0
		c0,1.967-0.004,3.879,0,5.791c0.004,1.424-0.52,2.627-1.508,3.638c-2.176,2.229-5.596,2.907-8.574,1.7
		c-2.768-1.121-4.057-3.027-4.057-6c0-1.691,0-3.383,0-5.182c-2.611,0-5.135-0.001-7.658,0c-1.445,0-1.768,0.322-1.768,1.768
		c-0.002,19.244,0,38.488,0,57.732c0,1.446,0.322,1.769,1.766,1.77c12.994,0,25.988,0,38.982,0c-1.828-1.998-3.189-4.43-3.918-7.121
		C344.687,93.003,334.782,93.003,324.856,93.003z"/>
	<g>
		<path fill="#FFFFFF" d="M373.089,91.326c-0.012-0.01-0.023-0.021-0.035-0.031C373.065,91.305,373.079,91.316,373.089,91.326
			L373.089,91.326z"/>
		<polygon fill="#FFFFFF" points="373.007,91.255 373.009,91.255 373.009,91.255 		"/>
		<polygon fill="#FFFFFF" points="365.472,85.564 365.472,85.564 365.472,85.564 		"/>
		<path fill="#FFFFFF" d="M382.733,78.659c-1.672-1.765-3.771-3.116-6.135-3.894c-1.459-0.479-3.016-0.742-4.635-0.742
			c-8.195,0-14.84,6.645-14.84,14.84c0,1.346,0.182,2.647,0.518,3.887c0.627,2.316,1.799,4.408,3.373,6.129
			c2.713,2.965,6.613,4.825,10.949,4.825c8.197,0,14.84-6.644,14.84-14.841C386.804,84.91,385.255,81.319,382.733,78.659z
			 M363.364,87.992c0.025-0.357,0.074-0.686,0.166-0.979c0.201-0.633,0.631-0.934,1.455-1.226c0.186-0.058,0.35-0.138,0.492-0.229
			c0.482-0.314,0.725-0.746,0.842-1.148c-0.08-0.094-0.166-0.203-0.258-0.33c-0.031-0.044-0.063-0.088-0.094-0.135
			c-0.162-0.238-0.275-0.514-0.332-0.805c-0.014-0.07-0.027-0.145-0.039-0.222c0,0-0.617-2.011,0.76-2.798
			c1.209-0.506,2.18,0.064,2.455,0.773c0.26,0.665,0.189,1.355,0.021,2.024c-0.012,0.077-0.025,0.151-0.039,0.222
			c-0.055,0.291-0.17,0.566-0.332,0.805c-0.043,0.063-0.086,0.123-0.127,0.179c-0.078,0.108-0.152,0.204-0.225,0.284
			c0.07,0.248,0.18,0.502,0.357,0.729c0.008,0.01,0.014,0.02,0.021,0.027c0.002,0.002,0.006,0.005,0.006,0.008
			c0.111,0.133,0.246,0.254,0.41,0.361c0.018,0.012,0.033,0.021,0.051,0.033c0.053,0.031,0.107,0.06,0.164,0.088
			c0.141,0.066,0.266,0.107,0.266,0.107c0.824,0.291,1.133,0.65,1.416,1.252c0.104,0.217,0.17,0.48,0.213,0.785
			c-1.039,0.945-2.422,1.521-3.938,1.521C365.669,89.32,364.374,88.822,363.364,87.992z M375.069,96.078
			c-1.809,0-3.471-0.639-4.766-1.705c0.031-0.457,0.094-0.879,0.213-1.255c0.26-0.813,0.811-1.2,1.869-1.574
			c0.236-0.073,0.447-0.177,0.631-0.294c0.617-0.404,0.928-0.957,1.08-1.477c-0.104-0.118-0.213-0.258-0.332-0.423
			c-0.039-0.056-0.078-0.112-0.119-0.171c-0.209-0.307-0.354-0.66-0.428-1.033c-0.016-0.092-0.033-0.188-0.049-0.285
			c0,0-0.793-2.582,0.977-3.592c1.551-0.65,2.797,0.082,3.15,0.992c0.332,0.854,0.244,1.742,0.027,2.6
			c-0.014,0.098-0.031,0.193-0.051,0.285c-0.07,0.373-0.219,0.727-0.426,1.033c-0.055,0.08-0.109,0.157-0.16,0.229
			c-0.102,0.141-0.199,0.262-0.289,0.365c0.088,0.317,0.23,0.645,0.457,0.936c0.01,0.012,0.02,0.023,0.029,0.035
			c0.002,0.002,0.006,0.006,0.006,0.008c0.143,0.172,0.316,0.328,0.527,0.467c0.021,0.014,0.043,0.025,0.066,0.04
			c0.064,0.04,0.135,0.077,0.207,0.112c0.182,0.088,0.342,0.139,0.342,0.139c1.061,0.374,1.455,0.836,1.818,1.608
			c0.135,0.278,0.219,0.617,0.273,1.007C378.79,95.337,377.017,96.078,375.069,96.078z"/>
	</g>
	<rect x="335.847" y="59.552" fill="#FFFFFF" width="5.578" height="29.287"/>
	<rect x="347.233" y="59.552" fill="#FFFFFF" width="5.576" height="29.287"/>
	<rect x="358.851" y="59.552" fill="#FFFFFF" width="5.576" height="21.949"/>
	<rect x="330.735" y="65.865" fill="#FFFFFF" width="41.229" height="5.576"/>
	<rect x="330.735" y="76.786" fill="#FFFFFF" width="33.691" height="5.577"/>
</g>
<path fill="none" stroke="#FFFFFF" stroke-width="2" stroke-miterlimit="10" d="M87.344,182.544l-6.936-19.561
	c-0.061-0.16-0.18-0.292-0.338-0.365c-0.158-0.07-0.338-0.074-0.496-0.014c-1.951,0.762-6.863,0.115-8.756-0.226
	c-0.455-0.284-2.201-1.259-5.684-2.142c-3.871-0.986-10.148,1.838-11.193,2.33l-14.586-0.344c-0.293-0.031-0.535,0.172-0.621,0.439
	l-6.119,18.873c-0.084,0.264,0.014,0.555,0.24,0.715l6.652,4.75c-0.813,1.678-0.666,3.448,0.529,4.291
	c0.439,0.303,0.973,0.449,1.543,0.422c0.369-0.018,0.74-0.125,1.109-0.277c-0.27,1.387,0.031,2.686,1.025,3.382
	c0.473,0.329,1.053,0.489,1.672,0.462c0.613-0.028,1.244-0.247,1.838-0.602c0,0.021-0.01,0.045-0.01,0.066
	c-0.004,1.002,0.379,1.824,1.078,2.313c0.434,0.303,0.971,0.45,1.543,0.424c0.709-0.029,1.434-0.354,2.09-0.848
	c-0.217,1.163,0.049,2.256,0.891,2.847c0.408,0.284,0.906,0.423,1.441,0.397c0.701-0.035,1.418-0.367,2.057-0.879h-0.002l0.811,0.58
	c0.162,0.086,3.988,2.176,6.869,2.045c0.566-0.027,1.072-0.137,1.506-0.33c1.029-0.462,1.379-1.347,1.43-2.16
	c0.813,0.344,1.236,0.367,1.234,0.342c0.021,0.002,0.574,0.117,1.289,0.087c1.143-0.055,2.086-0.448,2.725-1.147
	c0.803-0.869,0.852-1.784,0.631-2.508c0.533,0.109,1.047,0.155,1.539,0.133c1.662-0.076,2.504-0.877,2.57-0.951
	c0.74-0.686,1.119-1.458,1.125-2.303c0-0.162-0.012-0.316-0.037-0.469c0.572,0.197,1.258,0.355,1.967,0.322
	c0.895-0.04,1.662-0.363,2.289-0.963c1.838-1.75,0.936-4.279,0.107-5.481l-0.119-0.108l4.807-2.774
	C87.329,183.16,87.45,182.837,87.344,182.544z M40.77,190.246c-0.773-0.541-0.695-2.049,0.172-3.287
	c0.605-0.869,1.5-1.455,2.273-1.489c0.293-0.015,0.549,0.052,0.756,0.196c0.773,0.543,0.699,2.048-0.172,3.289
	C42.965,190.149,41.516,190.774,40.77,190.246z M47.924,192.316c-0.955,1.367-2.598,2.07-3.48,1.459
	c-0.895-0.625-0.813-2.352,0.174-3.768c0.691-0.984,1.707-1.649,2.594-1.691c0.342-0.014,0.643,0.064,0.887,0.234
	C48.991,189.174,48.913,190.9,47.924,192.316z M52.051,194.72c-0.838,1.197-2.281,1.818-3.029,1.292
	c-0.465-0.327-0.535-0.931-0.529-1.264c0-0.649,0.256-1.388,0.701-2.024c0.605-0.867,1.5-1.453,2.273-1.49
	c0.293-0.01,0.547,0.055,0.752,0.201c0.467,0.324,0.535,0.928,0.531,1.262C52.75,193.346,52.497,194.085,52.051,194.72z
	 M56.229,197.271c-0.746,1.07-2.031,1.619-2.684,1.162c-0.68-0.475-0.604-1.809,0.172-2.919c0.541-0.776,1.34-1.3,2.029-1.331
	c0.256-0.012,0.473,0.045,0.654,0.172c0.4,0.281,0.457,0.811,0.457,1.104C56.858,196.039,56.627,196.699,56.229,197.271z
	 M81.383,190.757c-0.404,0.385-0.885,0.584-1.471,0.609c-1.275,0.061-2.555-0.746-2.564-0.746l0,0l-8.604-7.537
	c-0.262-0.235-0.664-0.207-0.9,0.057c-0.23,0.266-0.203,0.668,0.063,0.898l8.051,7.059c0.117,0.115,0.816,0.834,0.811,1.68
	c-0.006,0.486-0.24,0.936-0.73,1.391c-0.025,0.023-0.584,0.547-1.746,0.602c-0.637,0.027-1.338-0.09-1.955-0.295
	c-0.01-0.008-1.303-0.809-3.143-2.243c-2.26-1.956-3.209-2.778-3.666-3.118c-0.01-0.012-0.018-0.02-0.025-0.025v0.004
	c-0.311-0.227-0.381-0.225-0.506-0.217c-0.254,0.01-0.482,0.177-0.568,0.42c-0.148,0.418-0.09,0.471,0.92,1.381
	c0.982,0.881,2.004,1.736,3.014,2.521l2.98,2.576c0.076,0.088,0.717,0.891-0.1,1.781c-0.52,0.562-1.291,0.708-1.85,0.732
	c-0.541,0.026-0.961-0.059-1.098-0.072c-0.006,0-0.592-0.025-1.73-0.67l-4.686-3.756c-0.266-0.217-0.652-0.18-0.877,0.072
	c-0.225,0.254-0.211,0.641,0.029,0.879c1.68,1.65,3.223,2.9,4.584,3.719c0.092,0.424,0.168,1.313-0.641,1.672
	c-0.285,0.13-0.637,0.204-1.041,0.22c-2.506,0.116-6.125-1.849-6.133-1.849l-0.594-0.423c0.021-0.028,0.045-0.047,0.066-0.078
	c0.551-0.789,0.857-1.688,0.859-2.537c0.004-0.923-0.361-1.706-1.004-2.153c-0.875-0.616-2.168-0.418-3.264,0.328
	c0.07-0.314,0.162-0.629,0.164-0.939c0.002-1.002-0.381-1.824-1.078-2.311c-0.814-0.569-1.971-0.502-3.031,0.045
	c0.117-1.207-0.209-2.309-1.092-2.928c-0.854-0.594-2.037-0.541-3.148-0.018c0.166-1.177-0.123-2.266-0.98-2.865
	c-1.246-0.867-3.262-0.257-4.535,1.281l-6.188-4.418l5.824-17.979l12.992,0.309c-0.838,1.117-2.088,2.939-2.488,4.352
	c-0.504,1.801-3.086,6.908-3.133,6.998c-0.023,0.054-0.516,1.26-0.07,2.656c0.299,0.934,1.662,1.161,3.221,1.089
	c1.23-0.056,2.578-0.298,3.609-0.526c0.246-0.063,6.049-1.592,5.662-5.512c-0.021-0.221,0.043-0.412,0.203-0.6
	c0.553-0.641,2.5-1.359,4.066-1.741l16.188,15.218l0.875,0.82l0.473,0.445C81.417,187.041,82.911,189.3,81.383,190.757z
	 M81.206,185.107l-15.811-14.84l-0.975-1.069c-0.426,0.026-4.225,0.659-5.588,2.243c-0.389,0.451-0.563,0.992-0.51,1.557
	c0.283,2.836-4.658,4.139-4.684,4.148c-2.451,0.533-4.986,0.658-5.324,0.286c-0.291-0.915,0.018-1.731,0.014-1.731
	c0.115-0.227,2.664-5.27,3.205-7.189c0.479-1.695,2.535-4.285,2.943-4.787c0.906-0.418,6.914-3.115,10.346-2.25
	c3.777,0.958,5.389,2.025,5.402,2.033c0.074,0.053,0.158,0.086,0.242,0.101c0.256,0.05,5.939,1.099,8.941,0.378l6.555,18.479
	L81.206,185.107z"/>
<g>
	<g id="roue2">
		<path fill="#FFFFFF" d="M757.298,147.991l-1.83,1.393l0.91,2.189c-0.334,0.35-0.645,0.713-0.936,1.09l-2.283-0.661l-1.143,1.995
			l1.727,1.699c-0.146,0.379-0.271,0.766-0.379,1.158l-2.412,0.25l-0.309,2.279l2.275,0.938c0.01,0.498,0.049,0.994,0.117,1.488
			l-2.145,1.211l0.627,2.213l2.488-0.047c0.139,0.313,0.295,0.621,0.463,0.924l-1.561,1.924l1.395,1.829l2.295-0.956
			c0.293,0.289,0.598,0.557,0.914,0.813l-0.713,2.369l1.984,1.16l1.752-1.742c0.402,0.166,0.814,0.311,1.232,0.434l0.256,2.438
			l2.279,0.309l0.928-2.254c0.4,0.002,0.795-0.018,1.195-0.057l1.129,2.133l2.229-0.57l0.018-2.388
			c0.449-0.179,0.889-0.384,1.318-0.618l1.832,1.486l1.83-1.393l-0.898-2.159c0.355-0.353,0.689-0.716,0.986-1.101l2.219,0.645
			l1.145-1.998l-1.633-1.602c0.172-0.416,0.322-0.84,0.445-1.27l2.252-0.234l0.307-2.281l-2.08-0.857
			c0-0.561-0.033-1.123-0.109-1.682l1.941-1.098l-0.627-2.212l-2.225,0.04c-0.164-0.381-0.352-0.752-0.561-1.122l1.395-1.718
			l-1.393-1.83l-2.053,0.854c-0.346-0.345-0.705-0.666-1.078-0.96l0.635-2.117l-1.984-1.163l-1.584,1.579
			c-0.467-0.188-0.941-0.352-1.426-0.479l-0.23-2.23l-2.275-0.309l-0.869,2.104c-0.439,0.004-0.883,0.035-1.322,0.088l-1.064-2.013
			l-2.229,0.567l-0.02,2.316c-0.455,0.193-0.902,0.42-1.344,0.673L757.298,147.991z M767.474,158.418
			c0.947,1.24,0.705,3.016-0.535,3.961c-1.242,0.946-3.018,0.705-3.963-0.537c-0.949-1.24-0.707-3.014,0.535-3.963
			C764.751,156.934,766.526,157.174,767.474,158.418z"/>
	</g>
	<g id="roue1">
		<path fill="#FFFFFF" d="M822.241,205.245l2.295-3.637l-3.021-3.243c0.361-0.822,0.666-1.665,0.926-2.513l4.434-0.332l0.699-4.24
			l-4.137-1.848c0.008-0.762-0.021-1.52-0.09-2.275l4.063-2.012l-0.949-4.197l-4.598-0.156c-0.338-0.867-0.729-1.711-1.172-2.533
			l2.963-3.518l-2.541-3.467l-4.324,1.707c-0.449-0.455-0.92-0.898-1.416-1.32l1.482-4.383l-3.641-2.298l-3.398,3.17
			c-0.699-0.31-1.408-0.587-2.123-0.825l-0.299-4.611l-4.232-0.742l-1.928,4.195c-0.818-0.027-1.635-0.012-2.447,0.046l-2.037-4.104
			l-4.191,0.947l-0.158,4.551c-0.697,0.261-1.385,0.554-2.053,0.881l-3.371-2.998l-3.535,2.449l1.529,4.195
			c-0.666,0.607-1.305,1.251-1.906,1.943l-4.18-1.408l-2.295,3.633l2.98,3.195c-0.391,0.846-0.734,1.701-1.014,2.57l-4.301,0.322
			l-0.699,4.24l3.898,1.744c-0.025,0.844-0.012,1.68,0.051,2.516l-3.789,1.877l0.947,4.193l4.203,0.146
			c0.359,0.986,0.793,1.945,1.287,2.875l-2.684,3.188l2.543,3.469l3.869-1.527c0.539,0.559,1.109,1.094,1.717,1.604l-1.324,3.92
			l3.635,2.297l3.039-2.835c0.824,0.375,1.664,0.702,2.518,0.975l0.264,4.126l4.234,0.742l1.744-3.803
			c0.941,0.031,1.877,0,2.809-0.086l1.854,3.752l4.199-0.945l0.146-4.248c0.766-0.296,1.518-0.637,2.254-1.014l3.182,2.828
			l3.533-2.451l-1.48-4.066c0.676-0.637,1.311-1.328,1.916-2.053L822.241,205.245z M789.146,207.034
			c-9.879-6.238-12.826-19.301-6.592-29.178c6.24-9.879,19.303-12.828,29.182-6.59c9.877,6.238,12.828,19.301,6.586,29.178
			C812.085,210.321,799.022,213.272,789.146,207.034z"/>
		<path fill="#FFFFFF" d="M811.104,172.258c-9.328-5.889-21.664-3.104-27.555,6.225c-5.893,9.33-3.107,21.665,6.223,27.557
			c9.33,5.895,21.666,3.105,27.561-6.223C823.22,190.487,820.437,178.15,811.104,172.258z M787.925,176.741
			c4.9-4.954,12.336-6.561,18.857-4.037c0.797,0.373,1.34,1.199,0.686,2.238c-0.658,1.038-5.465,8.65-5.465,8.65
			c-1.904-0.535-3.965-0.055-5.434,1.275c0,0-7.141-4.506-8.498-5.361C786.714,178.647,787.026,177.743,787.925,176.741z
			 M790.81,201.315c-0.789,1.25-2.127,1.039-2.873,0.26c-4.869-4.889-6.441-12.25-3.961-18.721c0.371-1.107,1.426-1.362,2.543-0.658
			c1.123,0.707,8.393,5.299,8.393,5.299c-0.568,1.898-0.121,3.969,1.18,5.457C796.091,192.952,791.603,200.063,790.81,201.315z
			 M797.399,187.231c1.057-1.681,3.283-2.184,4.959-1.123c1.682,1.064,2.184,3.283,1.123,4.962
			c-1.063,1.681-3.283,2.183-4.965,1.122C796.839,191.131,796.339,188.909,797.399,187.231z M813.079,201.432
			c-4.783,4.932-12.051,6.627-18.508,4.336c-1.441-0.494-1.857-1.65-1.033-2.953c0.822-1.305,5.156-8.164,5.156-8.164
			c1.955,0.621,4.098,0.152,5.613-1.221c0,0,6.031,3.807,7.922,5.002C814.116,199.625,813.837,200.483,813.079,201.432z
			 M814.231,196.024c-1.141-0.723-8.264-5.219-8.264-5.219c0.588-1.959,0.088-4.1-1.314-5.596c0,0,4.648-7.359,5.426-8.58
			c0.77-1.227,1.607-1.032,2.41-0.34c5.162,4.825,6.93,12.318,4.498,18.928C816.505,196.547,815.378,196.747,814.231,196.024z"/>
	</g>
</g>
<g>
	<g>
		<path fill="#FFFFFF" d="M197.819,207.517h-15.168c-1.17,0-2.115,0.949-2.115,2.117c0,1.172,0.945,2.119,2.115,2.119h3.199
			c-0.004,0.057-0.025,0.111-0.025,0.176c0,1.656,1.977,3,4.41,3s4.41-1.344,4.41-3c0-0.064-0.021-0.119-0.025-0.176h3.199
			c1.17,0,2.117-0.947,2.117-2.119C199.936,208.466,198.989,207.517,197.819,207.517z"/>
		<path fill="#FFFFFF" d="M207.436,180.595c0-9.786-7.701-17.195-17.201-17.195c-9.498,0-17.197,7.409-17.197,17.195
			c0,8.055,7.586,12.693,7.586,20.73H200.2C200.2,193.05,207.436,188.611,207.436,180.595z M190.188,167.524
			c1.932,0,3.498,1.566,3.498,3.499c0,1.93-1.566,3.495-3.498,3.495s-3.498-1.565-3.498-3.495
			C186.69,169.09,188.256,167.524,190.188,167.524z M197.04,184.935c0,1.555-1.262,2.82-2.816,2.82h-0.072
			c0.096,0.234,0.15,0.486,0.15,0.757v10.022c0,1.119-0.914,2.031-2.031,2.031c-1.125,0-2.035-0.908-2.035-2.031
			c0,1.123-0.908,2.031-2.031,2.031c-1.121,0-2.031-0.912-2.031-2.031v-10.022c0-0.271,0.057-0.522,0.148-0.757h-0.074
			c-1.555,0-2.816-1.266-2.816-2.82v-6.227c0-1.556,1.262-2.82,2.816-2.82h0.963l2.883,2.887l2.885-2.887h1.246
			c1.555,0,2.816,1.265,2.816,2.82V184.935z"/>
		<path fill="#FFFFFF" d="M199.874,204.593c0,0.783-0.635,1.418-1.416,1.418H181.92c-0.785,0-1.422-0.635-1.422-1.418l0,0
			c0-0.783,0.637-1.416,1.422-1.416h16.537C199.239,203.177,199.874,203.81,199.874,204.593L199.874,204.593z"/>
	</g>
	<g>
		<g>
			<path fill="#FFFFFF" d="M179.42,159.437c-0.434,0-0.861-0.164-1.193-0.492l-4.119-4.121c-0.656-0.656-0.656-1.723,0.004-2.38
				c0.656-0.659,1.723-0.659,2.379,0l4.121,4.12c0.656,0.658,0.656,1.725-0.004,2.381
				C180.282,159.273,179.848,159.437,179.42,159.437z"/>
			<path fill="#FFFFFF" d="M201.053,159.546c-0.428,0-0.859-0.166-1.191-0.493c-0.656-0.655-0.656-1.722,0-2.38l4.121-4.121
				c0.658-0.658,1.723-0.658,2.379,0c0.658,0.656,0.658,1.721,0,2.381l-4.117,4.12C201.915,159.38,201.487,159.546,201.053,159.546z
				"/>
			<path fill="#FFFFFF" d="M189.862,155.778c-0.928,0-1.684-0.751-1.684-1.683v-5.68c0-0.931,0.756-1.684,1.684-1.684
				c0.93,0,1.682,0.753,1.682,1.684v5.68C191.543,155.027,190.792,155.778,189.862,155.778z"/>
		</g>
	</g>
</g>
<g>
	<path fill="#FFFFFF" d="M617.45,168.958h24.279c1,0,1.813-0.813,1.813-1.812c0-1.002-0.813-1.814-1.813-1.814H617.45
		c-1.002,0-1.814,0.813-1.814,1.814C615.636,168.145,616.448,168.958,617.45,168.958z"/>
	<path fill="#FFFFFF" d="M615.636,192.217c0,1.003,0.813,1.813,1.814,1.813h24.279c1,0,1.813-0.811,1.813-1.813
		c0-1.001-0.813-1.813-1.813-1.813H617.45C616.448,190.404,615.636,191.216,615.636,192.217z"/>
	<path fill="#FFFFFF" d="M663.821,156.601c-1.26-1.262-3.027-1.543-3.945-0.625l-8.672,8.672v-7.252c0-2.54-2.355-4.605-5.252-4.605
		h-34.287c-2.896,0-5.256,2.065-5.256,4.605v7.936h-2.682c-1.002,0-1.814,0.813-1.814,1.814c0,0.999,0.813,1.812,1.814,1.812h2.682
		v8.909h-2.682c-1.002,0-1.814,0.814-1.814,1.814c0,1.002,0.813,1.814,1.814,1.814h2.682v8.908h-2.682
		c-1.002,0-1.814,0.813-1.814,1.813c0,1.003,0.813,1.813,1.814,1.813h2.682v10.234c0,2.539,2.359,4.605,5.256,4.605h34.287
		c2.896,0,5.252-2.066,5.252-4.605v-30.473l13.242-13.246C665.366,159.63,665.087,157.865,663.821,156.601z M647.577,204.265
		c0,0.463-0.695,0.979-1.625,0.979h-34.287c-0.932,0-1.629-0.516-1.629-0.979v-10.257c0.949-0.06,1.705-0.827,1.705-1.791
		c0-0.962-0.756-1.73-1.705-1.79v-8.956c0.949-0.06,1.705-0.827,1.705-1.79s-0.756-1.73-1.705-1.791v-8.955
		c0.949-0.059,1.705-0.827,1.705-1.789c0-0.963-0.756-1.732-1.705-1.791v-7.959c0-0.461,0.697-0.979,1.629-0.979h34.287
		c0.93,0,1.625,0.518,1.625,0.979v10.879l-9.592,9.592H617.45c-1.002,0-1.814,0.814-1.814,1.814c0,1.002,0.813,1.814,1.814,1.814
		h16.988c-0.971,1.352-2.383,4.621-1.256,5.744c1.262,1.266,5.246-0.672,6.162-1.588l8.232-8.232V204.265z"/>
</g>
<g>
	<polygon fill="none" stroke="#FFFFFF" stroke-width="5" stroke-miterlimit="10" points="312.09,170.369 353.877,170.314 
		353.053,207.873 294.85,207.873 293.092,164.768 310.443,164.768 	"/>
	<polyline fill="none" stroke="#FFFFFF" stroke-width="2" stroke-miterlimit="10" points="304.184,159.388 304.184,153.789 
		347.672,153.789 347.672,168.613 	"/>
	<polyline fill="none" stroke="#FFFFFF" stroke-width="2" stroke-miterlimit="10" points="347.672,162.354 361.508,162.354 
		358.434,199.142 	"/>
	
		<line fill="none" stroke="#FFFFFF" stroke-width="2" stroke-miterlimit="10" x1="317.801" y1="161.201" x2="341.027" y2="161.201"/>
</g>
<g>
	
		<ellipse fill="none" stroke="#FFFFFF" stroke-width="5" stroke-miterlimit="10" cx="476.664" cy="174.328" rx="14.708" ry="17.781"/>
	<path fill="none" stroke="#FFFFFF" stroke-width="5" stroke-miterlimit="10" d="M464.837,184.208c0,0-17.674,3.146-17.674,19.396
		h59.75h9.344"/>
	<path fill="none" stroke="#FFFFFF" stroke-width="3" stroke-miterlimit="10" d="M504.831,162.771c0,0,0.301-10.4,7.582-6.227
		c2.359,1.352,2.754,2.834,2.412,4.105c-0.48,1.779-2.412,3.143-2.412,3.143c-7.5,1.666-12.166-4.833-12.166-4.833v32"/>
	<line fill="none" stroke="#FFFFFF" stroke-width="3" stroke-miterlimit="10" x1="509.747" y1="188.459" x2="514.825" y2="160.65"/>
	<path fill="none" stroke="#FFFFFF" stroke-width="3" stroke-miterlimit="10" d="M495.581,192.109h13.5
		c-0.002,0,7.176-0.348,6.846,13.996"/>
	
		<line fill="none" stroke="#FFFFFF" stroke-width="2" stroke-miterlimit="10" x1="496.413" y1="195.959" x2="508.413" y2="195.959"/>
	
		<line fill="none" stroke="#FFFFFF" stroke-width="2" stroke-miterlimit="10" x1="496.413" y1="199.107" x2="508.413" y2="199.107"/>
	
		<line fill="none" stroke="#FFFFFF" stroke-width="2" stroke-miterlimit="10" x1="461.085" y1="185.304" x2="470.413" y2="203.605"/>
	
		<line fill="none" stroke="#FFFFFF" stroke-width="2" stroke-miterlimit="10" x1="476.663" y1="197.125" x2="476.663" y2="203.605"/>
</g>
<g>
	<g>
		<polygon fill="#FFFFFF" points="83.769,55.25 80.7,55.25 83.249,57.916 60.96,57.916 60.96,36.012 63.503,38.678 63.503,35.467 
			59.897,31.689 56.284,35.467 56.284,38.678 58.829,36.012 58.829,60.146 83.249,60.146 80.7,62.813 83.769,62.813 87.382,59.031 
					"/>
		<polygon fill="#FFFFFF" points="62.554,48.762 68.278,43.523 69.606,44.682 62.554,51.463 62.554,52.975 70.431,45.4 
			71.562,46.387 62.554,55.166 62.554,56.301 62.954,56.301 82.38,37.334 82.38,33.553 72.292,44.121 68.245,40.586 62.554,45.799 
					"/>
		<polygon fill="#FFFFFF" points="82.38,39.383 65.216,56.301 66.771,56.301 82.38,40.916 		"/>
		<polygon fill="#FFFFFF" points="82.38,43.176 69.05,56.301 70.603,56.301 82.38,44.707 		"/>
		<polygon fill="#FFFFFF" points="82.38,47.098 72.942,56.301 74.503,56.301 82.38,48.619 		"/>
		<polygon fill="#FFFFFF" points="82.38,52.373 82.38,50.852 76.792,56.301 78.354,56.301 		"/>
	</g>
	<g>
		<g>
			<g>
				<path fill="#FFFFFF" d="M48.89,61.977c3.133,0,5.672-2.658,5.672-5.938c0-3.271-2.539-5.932-5.672-5.932
					c-3.129,0-5.666,2.66-5.666,5.932C43.224,59.318,45.761,61.977,48.89,61.977z"/>
				<path fill="#FFFFFF" d="M70.866,67.867c0-2.332-1.662-3.563-3.695-3.563c-2.029,0-13.59,0-13.59,0l-4.721,4.762l-0.123,0.131
					l-4.668-4.893h-1.563c-2.523,0-4.57,2.143-4.57,4.781v10.559c0,2.643,2.047,4.781,4.57,4.781h0.115
					c-0.152,0.404-0.242,0.832-0.242,1.285v16.998c0,1.9,1.477,3.447,3.295,3.447c1.82,0,3.289-1.541,3.295-3.439
					c0,1.898,1.471,3.439,3.293,3.439c1.818,0,3.295-1.547,3.295-3.447l0.004-31.701c0,0,10.141,0,11.703,0
					C68.825,71.008,70.866,70.203,70.866,67.867z"/>
			</g>
		</g>
	</g>
</g>
<text transform="matrix(1 0 0 1 67.4751 270.6577)" fill="#FFFFFF" font-family="'Helvetica'" font-size="15.7312">fr</text>
<g>
	<path fill-rule="evenodd" clip-rule="evenodd" fill="#FFFFFF" d="M85.19,264.106c-0.059-1.238,0.012-2.444,0.502-3.586
		c0.582-1.342,1.625-2.168,3.004-2.557c1.787-0.506,3.59-0.537,5.359,0.064c1.461,0.495,2.631,1.385,3.189,2.884
		c0.643,1.722,0.555,3.395-0.627,4.864c-0.512,0.637-1.188,1.145-1.799,1.699c-0.23,0.207-0.49,0.377-0.736,0.563
		c-0.719,0.543-1.092,1.262-1.102,2.167c0,0.242,0.016,0.489-0.027,0.726c-0.021,0.117-0.137,0.234-0.236,0.314
		c-0.07,0.051-0.188,0.043-0.285,0.048c-0.865,0.042-1.732,0.081-2.602,0.12c-0.08,0.002-0.16,0.002-0.242-0.006
		c-0.287-0.031-0.32-0.084-0.328-0.369c-0.02-0.723,0.045-1.438,0.217-2.141c0.254-1.02,0.906-1.762,1.68-2.414
		c0.4-0.338,0.83-0.646,1.246-0.969c0.688-0.531,1.182-1.205,1.307-2.066c0.203-1.42-0.85-2.812-2.32-2.854
		c-1.6-0.047-2.553,1.248-2.49,2.545c0.012,0.258,0.025,0.516,0.039,0.795C87.69,263.992,86.454,264.047,85.19,264.106z"/>
	<path fill-rule="evenodd" clip-rule="evenodd" fill="#FFFFFF" d="M93.515,275.44c0.059,1.342-0.822,2.289-2.191,2.352
		c-1.34,0.061-2.35-0.836-2.398-2.127c-0.049-1.335,0.863-2.338,2.176-2.396C92.46,273.208,93.456,274.106,93.515,275.44z"/>
</g>
<g>
	<path fill-rule="evenodd" clip-rule="evenodd" fill="#FFFFFF" d="M118.861,264.033c-0.502,0-0.969,0-1.455,0
		c0-1.209,0-2.404,0-3.617c-2.654,0-5.291,0-7.963,0c0.072,0.054,0.125,0.1,0.184,0.137c0.586,0.393,1.17,0.789,1.76,1.171
		c0.141,0.091,0.188,0.185,0.188,0.348c-0.004,3.234-0.004,6.47-0.004,9.704c0,0.088,0,0.178,0,0.277c1.947,0,3.871,0,5.822,0
		c0-1.201,0-2.404,0-3.62c0.5,0,0.973,0,1.469,0c0,0.073,0,0.14,0,0.206c0,1.473,0,2.945,0,4.42c0,0.346-0.119,0.463-0.463,0.463
		c-2.178,0.002-4.357,0-6.535,0c-0.088,0-0.18,0-0.285,0c0,0.975,0,1.928,0,2.913c-0.092-0.04-0.158-0.065-0.223-0.097
		c-1.717-0.857-3.43-1.717-5.145-2.574c-0.096-0.047-0.209-0.084-0.273-0.159c-0.084-0.103-0.141-0.234-0.197-0.358
		c-0.02-0.045-0.002-0.104-0.002-0.157c0-4.54,0-9.082,0-13.622c0-0.434,0.092-0.525,0.537-0.525c4.023,0,8.045,0,12.068,0
		c0.422,0,0.518,0.098,0.518,0.525c0,1.434,0,2.87,0,4.305C118.861,263.853,118.861,263.933,118.861,264.033z"/>
	<path fill-rule="evenodd" clip-rule="evenodd" fill="#FFFFFF" d="M120.322,265.503c0-0.738,0-1.439,0-2.119
		c0.951,0.953,1.91,1.91,2.846,2.85c-0.926,0.926-1.887,1.887-2.842,2.843c0-0.677,0-1.378,0-2.116c-0.102,0-0.189,0-0.275,0
		c-2.18,0-4.359,0-6.539,0c-0.375,0-0.482-0.109-0.484-0.488c0-0.183,0-0.364,0.002-0.547c0.002-0.304,0.129-0.422,0.455-0.422
		c2.18,0,4.359,0,6.537,0C120.113,265.503,120.201,265.503,120.322,265.503z"/>
</g>
<g>
	<path fill="#FFFFFF" d="M58.958,272.509c-0.574-1.213-1.195-1.939-2.859-2.527c0,0-0.479-0.151-0.865-0.395
		c-0.045,0.058-3.473,2.926-3.473,2.926h-0.082c-3.057-2.547-2.727-2.279-3.477-2.931c0.004-0.003,0.01-0.006,0.014-0.009
		c-0.289,0.184-0.619,0.346-0.992,0.463c-1.664,0.586-2.531,1.193-2.938,2.473c-0.186,0.59-0.285,1.254-0.334,1.973
		c2.035,1.675,4.648,2.68,7.49,2.68c3.059,0,5.846-1.163,7.943-3.072C59.3,273.479,59.166,272.945,58.958,272.509z"/>
	<g>
		<path fill="#FFFFFF" d="M55.234,269.587c-0.959,0.834-3.473,2.926-3.473,2.926l1.102,1.139c0,0,2.127-2.881,2.746-3.86
			C55.478,269.727,55.353,269.66,55.234,269.587z"/>
		<path fill="#FFFFFF" d="M47.845,269.785c0.756,1.141,2.689,3.867,2.689,3.867l1.145-1.139c-3.055-2.543-2.727-2.279-3.475-2.93
			C48.091,269.656,47.972,269.722,47.845,269.785z"/>
		<path fill="#FFFFFF" d="M55.234,269.587c-0.035-0.021-0.068-0.043-0.102-0.064C55.166,269.546,55.199,269.566,55.234,269.587
			L55.234,269.587z"/>
	</g>
	<path fill="#FFFFFF" d="M55.132,269.523c-0.332-0.216-0.604-0.463-0.83-0.731c0-0.005-0.006-0.009-0.01-0.014
		c-0.016-0.019-0.029-0.036-0.047-0.056c-0.355-0.457-0.578-0.971-0.717-1.469c-0.969,1.121-1.531,1.074-1.809,1.074
		s-0.84,0.045-1.807-1.072c-0.238,0.814-0.727,1.684-1.697,2.318c-0.004,0.003-0.01,0.006-0.014,0.009
		c0.047,0.04,0.086,0.077,0.127,0.11l0.002,0.002c0,0.002,0.004,0.002,0.004,0.004c0.334,0.291,0.447,0.391,1.008,0.865
		c0.424,0.355,1.105,0.926,2.336,1.949h0.082v-0.002c0.006-0.001,0.008-0.006,0.016-0.01c0.203-0.171,2.539-2.117,3.457-2.914l0,0
		C55.199,269.566,55.166,269.544,55.132,269.523z"/>
	<path fill="#FFFFFF" d="M53.714,260.207c0,0-2.076,1.81-4.529,0.583c0.184,0.75-0.369,2.989-0.73,3.459
		c0.027,0.152,0.051,0.304,0.078,0.448c0.115,0.587,0.344,1.143,0.67,1.621c0.064,0.096,0.129,0.184,0.189,0.271
		c0.186,0.258,0.357,0.479,0.521,0.666c0.967,1.117,1.529,1.072,1.807,1.072s0.84,0.047,1.809-1.074
		c0.143-0.164,0.293-0.354,0.453-0.574c0.082-0.112,0.168-0.232,0.254-0.361c0.326-0.479,0.559-1.034,0.67-1.621
		c0.027-0.145,0.055-0.296,0.078-0.448C55.146,262.811,54.976,261.076,53.714,260.207z"/>
	<path fill="#FFFFFF" d="M54.984,264.249c0.34-1.35,0.479-2.743-0.043-4.087c-0.557-1.43-2.516-2.58-4.951-1.559
		c-2.781,1.587-1.535,5.646-1.535,5.646l0,0c0.361-0.47,0.914-2.709,0.73-3.459c2.453,1.227,4.529-0.583,4.529-0.583
		C54.976,261.076,55.146,262.811,54.984,264.249L54.984,264.249z"/>
	<circle fill="#FFFFFF" cx="51.693" cy="273.931" r="0.232"/>
	<circle fill="#FFFFFF" cx="51.693" cy="274.923" r="0.232"/>
	<circle fill="#FFFFFF" cx="51.693" cy="276.009" r="0.232"/>
</g>
</svg>
