<?xml version="1.0" encoding="utf-8"?>
<!-- Generator: Adobe Illustrator 16.0.0, SVG Export Plug-In . SVG Version: 6.00 Build 0)  -->
<!DOCTYPE svg PUBLIC "-//W3C//DTD SVG 1.1//EN" "http://www.w3.org/Graphics/SVG/1.1/DTD/svg11.dtd">
<svg version="1.1" id="Layer_1" xmlns="http://www.w3.org/2000/svg" xmlns:xlink="http://www.w3.org/1999/xlink" x="0px" y="0px"
	 width="57px" height="44px" viewBox="0 0 57 44" enable-background="new 0 0 57 44" xml:space="preserve">
<g id="_x23_f7f7f7f7">
	<path opacity="0.97" fill="#F7F7F7" enable-background="new    " d="M34.296,2.69h2.471c2.009,0.888,3.396,2.296,4.753,3.683
		c1.951,0.904,6.877-1.085,7.657,1.179c-1.35,1.298-4.153,0.131-5.735,0.657c-5.315,2-3.278-3.201-6.74-3.722
		c-3.82-1.315-5.107,1.776-6.406,3.618c-3.064,0.252-6.163,0.044-9.241,0.049c-1.163-3.338,5.498-0.888,7.701-1.754
		C30.171,4.822,31.761,3.249,34.296,2.69z"/>
	<path opacity="0.97" fill="#F7F7F7" enable-background="new    " d="M16.127,9.338C29.065,9.426,42.12,8.703,55,9.788v31.267H15.29
		c-0.404-2.965,1.293-6.675-2.001-8.911c-3.59-2.954-7.859-5.465-11.038-8.682c2.673-3.792,7.542-6.752,12.006-9.465
		C14.842,12.473,14.517,10.549,16.127,9.338 M18.88,12.577c0.99,1.721-1.82,5.185,1.452,6.012c2.767,2.061,5.166,4.495,8.402,6.209
		c3.236,3.141,2.391,7.481,3.041,11.191c-2.333,1.776-6.292,0.182-9.275,0.191c-4.616-2.088-3.511,0.664-3.598,2.117
		c10.814,0.031,21.637,0.038,32.451,0c0.086-8.572,0.05-17.149,0.007-25.722C40.53,12.533,29.709,12.533,18.88,12.577 M13.989,18.14
		c-0.672,0.658-2.016,1.124-2.153,1.979c1.748,1.748,5.216,2.805,5.627,5.053c-3.453,0.416-4.464-3.146-7.246-3.826
		c-1.156,0.427-3.114,1.447-2.731,2.571c3.764,2.746,7.209,5.793,11.241,8.292c1.734-2.077,6.083-3.408,6.495-5.81
		C21.444,23.681,18.035,20.612,13.989,18.14 M26.299,28.635c-1.777,1.196-3.417,2.5-5.1,3.761c-1.062,2.39,5.613-0.099,6.371,0.971
		C27.216,32.215,27.671,28.258,26.299,28.635z"/>
	<path opacity="0.97" fill="#F7F7F7" enable-background="new    " d="M33.329,18.589c1.842,0.005,5.519,0.022,7.354,0.033
		c-1.249,2.11-4.928,0.795-7.348,1.036C33.335,19.39,33.329,18.858,33.329,18.589z"/>
	<path opacity="0.97" fill="#F7F7F7" enable-background="new    " d="M41.996,18.589c1.843,0.005,5.521,0.022,7.354,0.033
		c-1.249,2.11-4.927,0.795-7.347,1.036C42.004,19.39,41.996,18.858,41.996,18.589z"/>
	<path opacity="0.97" fill="#F7F7F7" enable-background="new    " d="M33.329,21.33c1.842,0.005,5.519,0.021,7.354,0.032
		c-1.249,2.11-4.928,0.794-7.348,1.036C33.335,22.13,33.329,21.598,33.329,21.33z"/>
	<path opacity="0.97" fill="#F7F7F7" enable-background="new    " d="M41.996,21.33c1.843,0.005,5.521,0.021,7.354,0.032
		c-1.249,2.11-4.927,0.794-7.347,1.036C42.004,22.13,41.996,21.598,41.996,21.33z"/>
	<path opacity="0.97" fill="#F7F7F7" enable-background="new    " d="M33.329,24.069c1.842,0.006,5.519,0.023,7.354,0.034
		c-1.249,2.109-4.928,0.794-7.348,1.035C33.335,24.87,33.329,24.339,33.329,24.069z"/>
	<path opacity="0.97" fill="#F7F7F7" enable-background="new    " d="M41.996,24.069c1.843,0.006,5.521,0.023,7.354,0.034
		c-1.249,2.109-4.927,0.794-7.347,1.035C42.004,24.87,41.996,24.339,41.996,24.069z"/>
	<path opacity="0.97" fill="#F7F7F7" enable-background="new    " d="M33.329,26.811c1.842,0.006,5.519,0.021,7.354,0.033
		c-1.249,2.109-4.928,0.794-7.348,1.035C33.335,27.611,33.329,27.079,33.329,26.811z"/>
	<path opacity="0.97" fill="#F7F7F7" enable-background="new    " d="M41.996,26.811c1.843,0.006,5.521,0.021,7.354,0.033
		c-1.249,2.109-4.927,0.794-7.347,1.035C42.004,27.611,41.996,27.079,41.996,26.811z"/>
	<path opacity="0.97" fill="#F7F7F7" enable-background="new    " d="M33.335,29.551c1.799,0,5.411,0,7.21,0
		c0,0.274,0,0.812,0,1.085c-1.799,0-5.411,0-7.21,0C33.335,30.362,33.335,29.825,33.335,29.551z"/>
	<path opacity="0.97" fill="#F7F7F7" enable-background="new    " d="M42.004,29.551c1.8,0,5.41,0,7.21,0c0,0.274,0,0.812,0,1.085
		c-1.8,0-5.41,0-7.21,0C42.004,30.362,42.004,29.825,42.004,29.551z"/>
</g>
</svg>
