<?xml version="1.0" encoding="utf-8"?>
<!-- Generator: Adobe Illustrator 16.0.0, SVG Export Plug-In . SVG Version: 6.00 Build 0)  -->
<!DOCTYPE svg PUBLIC "-//W3C//DTD SVG 1.1//EN" "http://www.w3.org/Graphics/SVG/1.1/DTD/svg11.dtd">
<svg version="1.1" id="Layer_1" xmlns="http://www.w3.org/2000/svg" xmlns:xlink="http://www.w3.org/1999/xlink" x="0px" y="0px"
	 width="13px" height="13px" viewBox="0 0 13 13" enable-background="new 0 0 13 13" xml:space="preserve">
<g>
	<path fill="none" stroke="#FFFFFF" stroke-miterlimit="10" d="M3.23,11.226c0,0.635-0.538,1.149-1.203,1.149l0,0
		c-0.665,0-1.204-0.515-1.204-1.149l0,0c0-0.638,0.539-1.152,1.204-1.152l0,0C2.692,10.073,3.23,10.588,3.23,11.226L3.23,11.226z"/>
	<path fill="none" stroke="#FFFFFF" stroke-miterlimit="10" d="M7.795,11.225c0,0.636-0.538,1.15-1.203,1.15l0,0
		c-0.666,0-1.204-0.515-1.204-1.15l0,0c0-0.637,0.539-1.152,1.204-1.152l0,0C7.257,10.072,7.795,10.588,7.795,11.225L7.795,11.225z"
		/>
	<path fill="none" stroke="#FFFFFF" stroke-miterlimit="10" d="M12.375,11.202c0,0.638-0.538,1.154-1.203,1.154l0,0
		c-0.665,0-1.204-0.517-1.204-1.154l0,0c0-0.634,0.539-1.149,1.204-1.149l0,0C11.837,10.053,12.375,10.568,12.375,11.202
		L12.375,11.202z"/>
	<path fill="none" stroke="#FFFFFF" stroke-miterlimit="10" d="M7.773,1.775c0,0.637-0.538,1.152-1.203,1.152l0,0
		c-0.664,0-1.203-0.516-1.203-1.152l0,0c0-0.635,0.539-1.15,1.203-1.15l0,0C7.235,0.625,7.773,1.141,7.773,1.775L7.773,1.775z"/>
	<line fill="none" stroke="#FFFFFF" stroke-miterlimit="10" x1="6.619" y1="9.939" x2="6.619" y2="2.807"/>
	<line fill="none" stroke="#FFFFFF" stroke-miterlimit="10" x1="2.472" y1="10.146" x2="6.674" y2="6.127"/>
	<line fill="none" stroke="#FFFFFF" stroke-miterlimit="10" x1="6.565" y1="6.158" x2="10.751" y2="10.162"/>
</g>
</svg>
