<?xml version="1.0" encoding="utf-8"?>
<!-- Generator: Adobe Illustrator 16.0.0, SVG Export Plug-In . SVG Version: 6.00 Build 0)  -->
<!DOCTYPE svg PUBLIC "-//W3C//DTD SVG 1.1//EN" "http://www.w3.org/Graphics/SVG/1.1/DTD/svg11.dtd">
<svg version="1.1" id="Layer_1" xmlns="http://www.w3.org/2000/svg" xmlns:xlink="http://www.w3.org/1999/xlink" x="0px" y="0px"
	 width="13px" height="13px" viewBox="0 0 13 13" enable-background="new 0 0 13 13" xml:space="preserve">
<g>
	<path fill="#FFFFFF" d="M12.98,4.355c0.006-0.689-0.218-1.25-0.681-1.728c-0.652-0.676-1.321-1.177-1.953-1.872
		c-0.37-0.407-0.78-0.616-1.316-0.616c-1.548,0-3.095,0-4.643,0c-0.47,0-0.955,0.016-1.263,0.487
		C2.854,1.04,2.662,1.384,2.663,1.895c0.002,0.956-0.006,1.87,0.002,2.826C2.668,5.114,2.528,5.29,2.134,5.262
		C1.984,5.25,1.628,5.259,1.477,5.253c-0.394-0.018-1.032,0.118-1.032,0.52c0,1.184,0,2.369,0,3.553
		c0,0.396,0.682,0.496,1.053,0.522c0.959,0.068,1.061-0.023,1.066,0.994C2.571,12.188,3.138,13,4.387,13c2.288,0,4.575,0,6.864,0
		c0.945,0,1.461-0.578,1.677-1.497c0.048-0.204,0.044-0.366,0.044-0.575C12.976,8.72,12.964,6.562,12.98,4.355z M11.778,7.844
		c0,1.01,0.005,2.021-0.002,3.028c-0.004,0.933-0.346,1.279-1.26,1.28c-1.816,0.004-3.633,0.004-5.448,0
		c-0.867-0.002-1.211-0.364-1.23-1.268C3.811,9.592,3.811,9.592,5.037,9.592c1.479,0,2.959,0.002,4.439-0.001
		c0.701-0.001,0.819-0.126,0.822-0.855c0.004-0.816,0.005-1.634,0-2.453C10.292,5.6,10.16,5.468,9.486,5.468
		c-1.715-0.002-3.43-0.02-5.145,0.011C3.904,5.487,3.814,5.349,3.83,4.928c0.03-0.939,0.001-1.88,0.011-2.819
		c0.01-0.898,0.365-1.253,1.238-1.257c1.025-0.005,2.052,0.01,3.077-0.009c0.402-0.007,0.605,0.152,0.617,0.563
		c0.018,0.627,0.038,1.252,0.038,1.877c0,0.438,0.192,0.641,0.61,0.641c0.556-0.001,1.11-0.016,1.663,0.019
		c0.593,0.037,0.691,0.166,0.693,0.77C11.78,5.755,11.778,6.801,11.778,7.844z"/>
	<g>
		<path fill="#010101" d="M4.332,8.597C4.227,8.65,3.992,8.708,3.688,8.708c-0.869,0-1.316-0.56-1.316-1.3
			c0-0.887,0.611-1.379,1.371-1.379c0.295,0,0.518,0.062,0.619,0.116L4.246,6.613C4.129,6.562,3.97,6.515,3.768,6.515
			c-0.451,0-0.801,0.282-0.801,0.861c0,0.521,0.298,0.848,0.805,0.848c0.171,0,0.361-0.039,0.474-0.084L4.332,8.597z"/>
		<path fill="#010101" d="M4.724,8.064c0.152,0.081,0.388,0.163,0.629,0.163c0.261,0,0.399-0.112,0.399-0.283
			c0-0.162-0.119-0.253-0.421-0.364C4.914,7.429,4.643,7.19,4.643,6.812c0-0.443,0.357-0.783,0.95-0.783
			c0.283,0,0.491,0.062,0.641,0.131L6.106,6.633C6.005,6.584,5.827,6.511,5.581,6.511c-0.246,0-0.365,0.115-0.365,0.251
			c0,0.166,0.143,0.239,0.466,0.366c0.442,0.17,0.651,0.408,0.651,0.775c0,0.436-0.324,0.805-1.014,0.805
			c-0.286,0-0.57-0.076-0.711-0.157L4.724,8.064z"/>
		<path fill="#010101" d="M7.31,8.671l-0.805-2.6h0.622L7.432,7.17c0.088,0.31,0.165,0.605,0.224,0.929h0.012
			c0.064-0.311,0.142-0.619,0.227-0.916l0.321-1.111h0.604L7.974,8.669H7.31V8.671z"/>
	</g>
</g>
</svg>
