<?xml version="1.0" encoding="utf-8"?>
<!-- Generator: Adobe Illustrator 16.0.0, SVG Export Plug-In . SVG Version: 6.00 Build 0)  -->
<!DOCTYPE svg PUBLIC "-//W3C//DTD SVG 1.1//EN" "http://www.w3.org/Graphics/SVG/1.1/DTD/svg11.dtd">
<svg version="1.1" id="Layer_1" xmlns="http://www.w3.org/2000/svg" xmlns:xlink="http://www.w3.org/1999/xlink" x="0px" y="0px"
	 width="72px" height="65.167px" viewBox="-15 -21.167 72 65.167" enable-background="new -15 -21.167 72 65.167"
	 xml:space="preserve">
<g id="_x23_ffffffff">
	<path fill="#FFFFFF" d="M14.435-18.54c4.514-0.046,9.027-0.092,13.542,0.027l-0.098,0.446c0.866,0.027,1.733,0.054,2.594,0.108
		c0.373,0.771,1.252,0.655,1.953,0.766l0.043,0.335l0.701-0.204l-0.064,0.37c0.721,0.146,1.354,0.497,1.938,0.917
		c0.051,0.026,0.156,0.084,0.209,0.111c0.721,0.423,1.475,0.797,2.221,1.19c0.563,0.224,1.105,0.5,1.613,0.835l-0.012,0.127
		c0.965,1.16,2.572,1.51,3.57,2.63c0.773,0.767,1.578,1.506,2.336,2.292c0.293,0.246,0.592,0.493,0.893,0.735
		c0.234,0.35,0.477,0.701,0.723,1.048l0.1-0.081c0.375,0.866,0.941,1.629,1.559,2.349l0.281-0.096
		c0.004,0.23,0.018,0.693,0.021,0.924c0.629,0.442,0.789,1.14,0.869,1.833l0.314-0.104l-0.068,0.47l0.295-0.046
		c0.119,0.67,0.26,1.363,0.855,1.817c0.033,0.455,0.064,0.913,0.09,1.368l0.398-0.092c0.248,0.985,0.293,2.041,0.813,2.949
		c0.633,1.995,0.254,4.105,0.375,6.154c-0.053,1.279-0.301,2.542-0.25,3.825c-0.008,1.193,0.186,2.473-0.52,3.536
		c0.225,1.595-0.682,2.98-1.02,4.49c-0.441,0.522-0.646,1.167-0.74,1.825l-0.301-0.039l0.066,0.459l-0.393-0.094
		c-0.037,0.221-0.105,0.664-0.137,0.887c-0.34,0.451-0.648,0.92-0.943,1.398l-0.277-0.02l0.113,0.492l-0.531,0.023
		c0.055,0.119,0.176,0.359,0.236,0.479c-0.805,0.705-1.502,1.521-1.916,2.496c-0.25,0.025-0.748,0.076-0.994,0.104
		c-0.025,0.234-0.066,0.701-0.09,0.936c-1.168,1.035-2.311,2.098-3.381,3.227c-0.18,0.023-0.531,0.074-0.715,0.096
		c-0.82,0.74-1.67,1.453-2.561,2.111c-0.168,0.059-0.502,0.174-0.67,0.227c-0.482,0.533-1.166,0.721-1.854,0.848
		c-0.006,0.131-0.012,0.393-0.016,0.525c-0.535,0.037-1.076,0.074-1.611,0.115c0,0.139,0.004,0.42,0.008,0.557
		c-0.732,0.094-1.49,0.217-1.969,0.814c-1.096,0.158-2.438-0.229-3.198,0.754c-0.717,0.047-1.433,0.08-2.15,0.123l0.057,0.59H14.322
		l0.072-0.613c-0.733-0.033-1.47-0.061-2.203-0.115c-0.539-0.416-1.136-0.758-1.744-1.07l-0.314,0.119l0.109-0.459
		c-0.612-0.008-1.224-0.014-1.836-0.018c-0.588-0.447-1.184-0.883-1.8-1.291l-0.02,0.016c-0.523-0.234-0.999-0.539-1.426-0.918
		c-0.35-0.021-0.704-0.041-1.055-0.061l0.193-0.246c-0.64-0.436-1.277-0.879-1.913-1.318c-0.085-0.006-0.253-0.014-0.338-0.02
		c-0.338-0.307-0.681-0.611-1.031-0.912l0.048-0.064c-0.181-0.15-0.551-0.451-0.732-0.602c-0.101,0.035-0.302,0.104-0.403,0.139
		c-0.226-0.438-0.447-0.877-0.672-1.313l-0.109,0.092c-1.184-1.189-2.355-2.402-3.212-3.84c-0.149,0.004-0.439,0.004-0.589,0.008
		l0.065-0.494l-0.487,0.061c-0.012-0.115-0.041-0.352-0.056-0.471c-0.495-0.563-0.958-1.146-1.449-1.713
		c-0.061-0.463-0.117-0.926-0.178-1.383c-0.499-0.648-0.918-1.35-1.313-2.053c-0.201-0.572-0.479-1.109-0.878-1.576
		c-0.053-0.365-0.101-0.732-0.148-1.098c-0.197-0.447-0.383-0.901-0.556-1.356l-0.162,0.053c-0.008-0.789-0.016-1.575-0.032-2.364
		h-0.656v-4.648c0.129-0.097,0.391-0.285,0.52-0.381l-0.158-0.316l-0.362,0.051V7.544c0.141,0.104,0.418,0.308,0.56,0.412
		c0.146-1.379,0.113-2.769,0.189-4.152c0.697-0.412,0.745-1.163,0.813-1.864l0.302,0.027l-0.152-0.481l0.435,0.104
		c0.064-0.809,0.068-1.69,0.837-2.21c0.044-0.419,0.085-0.84,0.125-1.259h0.535c0.157-0.701,0.443-1.355,0.962-1.883
		C-5.904-3.871-5.924-4.09-5.932-4.198l0.378,0.031c0.206-0.458,0.423-0.909,0.644-1.359c0.677-0.554,1.224-1.225,1.607-1.999
		c0.27-0.292,0.54-0.589,0.809-0.89l0.138,0.065c0.612-0.755,1.208-1.521,1.864-2.241c0.439-0.451,0.866-0.913,1.289-1.379
		c0.092,0.023,0.286,0.07,0.379,0.093c0.511-0.551,1.031-1.094,1.554-1.629c0.218-0.004,0.652-0.008,0.869-0.008
		c0.456-0.589,1.112-0.963,1.792-1.271l0.021-0.277c0.121,0.004,0.358,0.008,0.475,0.008c0.495-0.393,1.051-0.697,1.626-0.963
		c0.583-0.292,1.16-0.597,1.731-0.909c0.246,0.011,0.741,0.031,0.99,0.042l-0.024-0.381c0.556-0.008,1.107-0.024,1.663-0.035
		l-0.117-0.47c0.661-0.107,1.317-0.219,1.981-0.292C13.911-18.181,14.261-18.42,14.435-18.54 M13.935-15.717
		c0,0.177-0.003,0.532-0.003,0.705c-0.717,0.004-1.43,0.008-2.142,0.008l0.149,0.436l-0.5-0.054l0.004,0.281
		c-0.238,0.219-0.713,0.655-0.955,0.874c-0.507-0.019-1.019-0.054-1.526-0.104c0.044,0.081,0.129,0.243,0.169,0.323
		c-1.264,0.724-2.497,1.563-3.934,1.949C4.533-10.699,3.929-9.94,2.963-9.79C2.97-9.678,2.987-9.451,2.995-9.335
		c-0.258,0.05-0.769,0.15-1.027,0.201c-0.193,0.416-0.512,0.724-0.947,0.92C1.026-8.08,1.038-7.807,1.046-7.668h-0.5
		C0.542-7.486,0.539-7.125,0.535-6.939C0.341-6.944-0.053-6.944-0.25-6.948l0.108,0.501l-0.411-0.112
		c-0.028,0.285-0.088,0.855-0.117,1.144c-0.141,0.016-0.422,0.047-0.564,0.062c-0.229,0.396-0.539,0.739-0.954,0.974
		c0.008,0.146,0.024,0.439,0.028,0.589l-0.375-0.096C-2.739-3.458-2.944-3.027-3.149-2.6l-0.463-0.073
		c0.06,0.181,0.177,0.542,0.233,0.728l-0.491,0.039c0.012,0.188,0.036,0.563,0.053,0.751L-4.41-1.117
		c0.056,0.181,0.169,0.547,0.226,0.731l-0.52-0.004l0.165,0.497l-0.572-0.062c0.036,0.185,0.113,0.551,0.148,0.735l-0.527-0.015
		l0.064,0.489l-0.459-0.131c0.004,0.932,0.009,1.868,0.016,2.804l-0.446-0.054l0.104,0.504l-0.439-0.173
		c-0.021,1.317-0.016,2.634-0.069,3.952c-0.169-0.016-0.515-0.039-0.688-0.054C-7.418,8.407-7.438,9.02-7.45,9.324
		C-7.615,9.362-7.941,9.432-8.106,9.47c0.161,0.03,0.488,0.088,0.648,0.119c0,1.31,0.008,2.62,0.044,3.928l0.696-0.049
		c0.053,1.459,0.037,2.919,0.085,4.382l0.362-0.235c0.004,0.316,0.008,0.948,0.012,1.259l0.411-0.042
		c-0.017,0.319-0.052,0.955-0.072,1.275l0.411-0.073c0.201,0.7,0.378,1.413,0.487,2.133c0.266,0.358,0.483,0.739,0.661,1.149
		c0.483,0.398,0.588,1.004,0.729,1.566c0.701,0.305,0.681,1.059,0.785,1.68c0.121-0.008,0.367-0.02,0.488-0.027
		c0.205,0.416,0.415,0.832,0.616,1.248l0.338-0.098c0.012,0.297,0.04,0.895,0.052,1.191c0.181-0.004,0.54-0.008,0.721-0.012
		l-0.081,0.451l0.491-0.027l-0.089,0.307c0.141,0.125,0.431,0.371,0.572,0.494l0.298-0.016l-0.028,0.277
		c0.137,0.131,0.411,0.393,0.552,0.52l0.297-0.055l-0.064,0.381c0.323,0.018,0.959,0.045,1.281,0.055
		c-0.024,0.182-0.064,0.547-0.089,0.729l0.54-0.08l-0.073,0.322c0.701,0.486,1.365,1.016,2.078,1.488
		c-0.008,0.113-0.024,0.342-0.032,0.457c0.314,0.01,0.935,0.037,1.245,0.049l0.004,0.518c0.173-0.02,0.519-0.055,0.693-0.074
		L6.985,35c0.652,0.303,1.337,0.531,2.062,0.631c-0.016,0.131-0.048,0.4-0.065,0.535C9.655,36.217,10.327,36.27,11,36.32
		c0,0.166,0,0.502,0,0.666c0.708,0.012,1.417,0.023,2.126,0.031l-0.121,0.447l0.535-0.166l-0.161,0.439
		c0.991,0,1.981,0.02,2.972,0.02l-0.081,0.373c0.938-0.02,1.88-0.027,2.818,0.029l-0.068,0.363c1.925-0.027,3.854-0.023,5.778-0.008
		l-0.04-0.449c0.209,0.057,0.624,0.164,0.833,0.223l-0.162-0.475c1.124-0.037,2.247-0.057,3.367-0.088
		c-0.013-0.166-0.036-0.5-0.053-0.666c0.701-0.027,1.396-0.059,2.097-0.076l-0.107-0.443l0.531,0.158l-0.152-0.42
		c0.713-0.021,1.42-0.047,2.133-0.074c-0.008-0.162-0.02-0.479-0.023-0.635c0.711-0.039,1.43-0.078,2.146-0.141
		c0.6-0.797,1.396-1.42,2.098-2.131c0.254-0.033,0.756-0.094,1.01-0.125l0.008-0.25c0.67-0.588,1.365-1.201,2.361-1.074l-0.074-0.6
		l0.557-0.031l-0.121-0.459l0.512,0.096c-0.021-0.191-0.057-0.57-0.072-0.762c0.197-0.016,0.6-0.055,0.801-0.074
		c-0.031-0.188-0.09-0.563-0.117-0.75l0.504,0.041l-0.053-0.465l0.479,0.047c0-0.15-0.006-0.443-0.006-0.594
		c0.801-0.076,0.742-0.813,0.877-1.375l0.205,0.066c0.398-0.613,0.877-1.172,1.373-1.715c-0.041-0.143-0.111-0.422-0.148-0.566
		l0.551,0.008c0.021-0.301,0.061-0.9,0.084-1.201c0.162,0.012,0.484,0.031,0.646,0.041c0.047-0.533,0.096-1.07,0.139-1.601
		l0.436,0.073l-0.205-0.504l0.512,0.135c0-0.324-0.006-0.971-0.006-1.291l0.404,0.093l-0.064-0.459l0.475,0.092
		c-0.012-0.677-0.016-1.351-0.029-2.029l0.432,0.104l-0.084-0.469l0.455,0.099c0.023-3.901,0.033-7.802,0.008-11.707L48.93,6.185
		c-0.004-0.316-0.016-0.947-0.02-1.263l-0.375,0.215c-0.008-0.824-0.016-1.651-0.02-2.476l-0.463,0.096l0.08-0.462l-0.41,0.084
		c-0.016-0.654-0.041-1.305-0.061-1.96c-0.182-0.011-0.547-0.035-0.729-0.046c0.004-0.185,0.012-0.558,0.016-0.743l-0.531,0.023
		c-0.033-0.573-0.061-1.147-0.098-1.722c-0.387-0.366-0.76-0.739-1.127-1.121c0.033-0.146,0.098-0.443,0.131-0.589L44.75-3.801
		c0.018-0.15,0.053-0.443,0.068-0.594c-0.332-0.262-0.666-0.527-0.996-0.79c-0.568-0.385-0.621-1.04-0.723-1.64
		c-0.412-0.059-0.816-0.116-1.229-0.174c-0.383-0.447-0.797-0.871-1.215-1.286c-0.529-0.27-0.641-0.833-0.791-1.336
		c-0.152,0.015-0.457,0.042-0.611,0.058l0.043-0.409L38.82-9.994l-0.025-0.462l-0.281,0.169c-0.371-0.366-0.738-0.74-1.096-1.117
		c-0.262-0.015-0.793-0.046-1.059-0.062l0.012-0.404c-0.523-0.127-1.043-0.273-1.563-0.412l-0.047-0.47
		c-0.186,0.011-0.553,0.042-0.738,0.054l-0.043-0.416c-0.186,0.019-0.557,0.058-0.742,0.073c-0.004-0.127-0.012-0.385-0.016-0.512
		c-0.27,0.016-0.811,0.046-1.08,0.065c-0.418-0.847-1.332-0.813-2.166-0.851c0-0.158,0.008-0.47,0.012-0.627
		c-1.3-0.197-2.971,0.423-3.856-0.774C22.065-15.771,18.002-15.813,13.935-15.717z"/>
	<path fill="#FFFFFF" d="M5.717-6.108c0.447-0.023,0.89-0.042,1.333-0.065L7.005-5.85c0.298,0.173,0.897,0.512,1.195,0.685
		C8.226-5.33,8.278-5.654,8.306-5.819c0.217,0.917,1.015,1.286,1.925,1.255L10.19-4.14c0.306,0.011,0.926,0.031,1.232,0.038
		c0.012,0.135,0.036,0.401,0.048,0.536c0.516,0.205,1.019,0.431,1.534,0.639l-0.032,0.301c0.564,0.012,1.128,0.023,1.691,0.035
		c-0.008,0.166-0.028,0.489-0.036,0.655c0.543,0.05,1.087,0.092,1.635,0.139c-0.008,0.158-0.024,0.474-0.037,0.631
		c0.543,0.042,1.091,0.089,1.634,0.127c-0.003,0.162-0.016,0.484-0.02,0.647c0.338,0.015,1.015,0.046,1.353,0.057l-0.161,0.416
		l0.531-0.119l-0.117,0.404c0.532,0.031,1.067,0.065,1.599,0.104c0,0.166,0.004,0.5,0.004,0.67c0.334,0.008,1.003,0.027,1.333,0.039
		l-0.141,0.296c0.31,0.15,0.93,0.455,1.241,0.608c0.036-0.131,0.104-0.389,0.14-0.516c0.286,0.744,1.092,0.967,1.808,1.178
		c0.125,0.12,0.383,0.362,0.511,0.482l0.004,0.296l0.471-0.068l-0.128,0.474c0.551,0.019,1.107,0.034,1.659,0.05
		c-0.008,0.162-0.024,0.485-0.033,0.646c0.657,0.035,1.314,0.065,1.974,0.093c0.16,1.159,1.648,0.601,2.496,0.766
		c-0.004,0.169-0.016,0.509-0.02,0.678c0.543,0.035,1.086,0.069,1.631,0.1c-0.008,0.158-0.031,0.474-0.041,0.632
		c0.455,0.05,0.914,0.1,1.373,0.154c0.494,0.546,1.131,0.993,1.426,1.69l-0.025-0.643c0.256,0.015,0.758,0.05,1.012,0.065
		l-0.121,0.451c0.201-0.065,0.607-0.196,0.809-0.262L38.26,8.908l0.533-0.088v0.428c0.326,0.015,0.977,0.05,1.303,0.069
		l-0.189,0.316c0.668,0.061,1.336,0.17,1.98,0.362c0.137-0.02,0.41-0.054,0.549-0.074l-0.109,0.513l0.504-0.02l0.01,0.455
		l0.414-0.131c-0.018,0.682-0.025,1.363-0.029,2.044l-0.426-0.131l0.09,0.49l-0.457-0.085c0,0.558-0.004,1.117-0.004,1.675
		l-0.471-0.13l0.176,0.501l-0.432-0.116c-0.115,0.65,0.191,1.644-0.807,1.726c-0.037,0.604-0.082,1.204-0.125,1.81l-0.656-0.054
		c-0.029,0.542-0.059,1.091-0.082,1.632l-0.467-0.166l0.137,0.509l-0.443-0.054c0.012,0.307,0.039,0.927,0.053,1.236l-0.521-0.027
		c-0.051,0.578-0.086,1.151-0.125,1.729c-0.867,0.107-0.693,0.963-0.818,1.576c-0.762,0.188-0.668,0.951-0.791,1.543
		c-0.684,0.268-0.672,0.982-0.795,1.572c-0.963,0.283-0.617,1.371-0.746,2.1l-0.387-0.125l0.1,0.494l-0.543-0.039
		c0.037,0.176,0.102,0.527,0.133,0.705c-0.547,0.035-1.096,0.072-1.637,0.107c-0.006,0.154-0.014,0.457-0.018,0.613
		c-0.523,0.053-1.047,0.115-1.566,0.174c0.008,0.158,0.023,0.465,0.031,0.623c-0.572,0.021-1.143,0.055-1.709,0.084
		c0.004,0.166,0.012,0.494,0.016,0.66c-0.713,0.021-1.421,0.055-2.131,0.08l0.241,0.365c-0.337,0.023-1.013,0.061-1.348,0.086
		c0.016,0.064,0.057,0.203,0.072,0.271c-3.233-0.033-6.466-0.021-9.7-0.004c0-0.104,0-0.311,0-0.414
		c-0.201,0.057-0.6,0.172-0.796,0.234l0.081-0.508c-0.653-0.035-1.301-0.07-1.949-0.104c-0.355-1.035-1.663-0.641-2.529-0.791
		c0.008-0.15,0.024-0.457,0.032-0.611c-0.495-0.043-0.99-0.09-1.486-0.135c-0.125-0.697-0.842-0.709-1.421-0.846
		c0.02-0.105,0.056-0.314,0.072-0.418c-0.544-0.143-1.195-0.201-1.401-0.799c-0.508-0.176-1.003-0.393-1.24-0.889
		C6.265,28.949,5.942,28.984,5.777,29l0.061-0.475l-0.487,0.035l0.068-0.266c-0.149-0.127-0.451-0.375-0.6-0.496H4.557l0.036-0.447
		l-0.487,0.088l0.02-0.297c-0.366-0.238-0.668-0.531-0.918-0.877l-0.117-0.043c-0.145-0.119-0.435-0.361-0.58-0.48l0.024-0.174
		c-0.712-0.094-0.777-0.736-0.906-1.283c-0.117-0.01-0.342-0.035-0.454-0.051c-0.162-0.453-0.479-0.762-0.955-0.918
		c0.007-0.152,0.024-0.457,0.032-0.609l-0.423,0.092c-0.242-0.624-0.456-1.259-0.604-1.914c-0.141-0.022-0.415-0.072-0.556-0.097
		c-0.108-0.628,0.113-1.532-0.781-1.651c-0.145-0.797,0.233-2.01-0.809-2.326c-0.037-1.629,0.003-3.259-0.053-4.883l0.371,0.011
		c-0.041-0.18-0.125-0.547-0.165-0.731l0.547,0.039c0.028-0.612,0.057-1.221,0.081-1.833c0.773-0.166,0.729-0.925,0.857-1.521
		c0.854-0.173,0.656-1.043,0.773-1.671c0.165-0.008,0.491-0.023,0.656-0.031c0.036-0.5,0.068-1.001,0.101-1.502
		C0.43,4.679,0.784,4.667,0.965,4.66C0.97,4.348,0.978,3.724,0.981,3.408l0.415,0.108l-0.04-0.45l0.37,0.092
		C1.714,2.453,1.743,1.71,2.527,1.398C2.544,1.194,2.568,0.79,2.584,0.585C3.417,0.324,3.361-0.462,3.417-1.14l0.52-0.02L3.816-1.83
		l0.431-0.069C4.211-2.076,4.135-2.438,4.098-2.615L4.67-2.638c0.015-0.254,0.047-0.767,0.06-1.021
		c0.793-0.27,0.797-1.078,0.825-1.752l0.302,0.058C5.822-5.542,5.753-5.919,5.717-6.108 M10.187,2.73l0.024,0.439L9.506,3.039
		L9.413,4.001c1.61-0.031,3.226-0.023,4.832-0.169c0.044-0.174,0.132-0.524,0.181-0.697c0.093,0.285,0.286,0.862,0.382,1.148
		l0.378-0.035L14.97,4.752l0.536-0.143c-0.004,0.412-0.012,0.824-0.016,1.236L15.868,5.9l-0.162,0.663l0.564,0.011
		c-0.005,0.231-0.005,0.702-0.005,0.936c0.516-0.035,1.027-0.088,1.539-0.162c0.023-0.254,0.072-0.766,0.096-1.024
		c-1.123-0.12-0.716-1.333-0.906-2.068c-0.157,0-0.475,0.003-0.636,0.003c-0.044-0.512-0.084-1.028-0.128-1.541
		C14.217,2.557,12.199,2.638,10.187,2.73 M21.034,7.633c0.008,0.331,0.016,0.998,0.024,1.329l0.479-0.174L21.485,9.2
		c0.318,0.02,0.955,0.058,1.269,0.077l-0.072,0.351c0.56,0.154,1.115,0.32,1.679,0.466l-0.016,0.423
		c0.185-0.034,0.556-0.104,0.741-0.138l0.1,0.466c0.186-0.035,0.564-0.108,0.75-0.146l0.02,0.551
		c0.193-0.024,0.581-0.074,0.773-0.097l0.077,0.458c0.19-0.042,0.573-0.13,0.762-0.173l-0.053,0.493
		c0.543,0.057,1.086,0.111,1.63,0.161c-0.006,0.15-0.023,0.447-0.031,0.597c0.334,0.026,0.994,0.081,1.324,0.107l-0.1,0.412
		l0.559-0.23l-0.156,0.469c0.543,0.054,1.084,0.1,1.627,0.15c0.004,0.158,0.004,0.47,0.006,0.627
		c0.32,0.016,0.961,0.043,1.281,0.054l-0.063,0.361c0.313,0.027,0.934,0.074,1.246,0.097l-0.1-0.504l0.486,0.093
		c-0.02-0.223-0.057-0.674-0.076-0.898c-0.186,0.046-0.555,0.139-0.74,0.185c0.016-0.146,0.049-0.447,0.063-0.593l-0.486,0.25
		l0.039-0.409c-0.666-0.123-1.535-0.054-1.818-0.797c-0.277-0.023-0.832-0.069-1.111-0.092l0.053-0.458
		c-0.189,0.023-0.561,0.065-0.75,0.088l-0.08-0.454c-0.141,0.039-0.422,0.119-0.566,0.157c-0.303-0.608-1.052-0.516-1.611-0.685
		c-0.267-0.732-1.136-0.604-1.776-0.739c-0.004-0.139-0.013-0.42-0.017-0.559c-0.301-0.035-0.909-0.107-1.211-0.143
		C24.646,8.8,24.13,8.438,23.478,8.403l-0.036-0.308c-0.178,0.019-0.528,0.054-0.705,0.07l0.052-0.416
		C22.351,7.722,21.473,7.664,21.034,7.633 M5.825,10.86C5.79,11.242,5.717,12,5.681,12.378c0.346-0.027,1.039-0.078,1.385-0.1
		l-0.113-0.262c1.341,0.038,2.682-0.016,4.022-0.05c0.021,0.308,0.057,0.928,0.077,1.237l0.499-0.151l-0.246,0.523l0.476-0.115
		c0.016,0.324,0.044,0.971,0.061,1.29l0.483-0.208l-0.169,0.48c0.463,0.004,1.394,0.004,1.856,0.004
		c-0.237-0.643-0.472-1.282-0.705-1.926l-0.278-0.011c0.045-0.185,0.138-0.547,0.186-0.728l-0.624-0.065
		c0.027-0.169,0.08-0.512,0.104-0.682l-0.499-0.049l0.136-0.498l-0.527,0.123c0.016-0.204,0.04-0.612,0.056-0.816
		c-1.229-0.031-2.448,0.069-3.672,0.123l0.084,0.216C7.456,10.733,6.639,10.788,5.825,10.86 M18.59,11.966l0.89-0.007l0.041,0.438
		c0.186-0.022,0.547-0.07,0.732-0.092l-0.02,0.462c0.327,0.008,0.975,0.031,1.301,0.042c-0.008,0.151-0.02,0.451-0.028,0.602
		c0.298,0.042,0.886,0.127,1.18,0.169c1.023,0.647,2.127,1.19,3.294,1.549l0.027,0.304c0.177-0.007,0.533-0.031,0.708-0.038
		l0.058,0.496c0.189-0.053,0.567-0.158,0.753-0.211l0.121,0.539l0.676-0.088l0.041,0.489c0.197-0.038,0.6-0.119,0.801-0.157
		l0.076,0.508c0.178-0.011,0.539-0.038,0.717-0.051l0.037,0.455c0.191-0.039,0.58-0.112,0.771-0.15l0.094,0.528
		c0.182-0.022,0.543-0.069,0.723-0.093l-0.035,0.405c0.443,0.011,1.33,0.038,1.771,0.05c-0.236-0.324-0.707-0.971-0.947-1.294
		l0.037-0.231c-0.32-0.02-0.961-0.05-1.279-0.066l0.117-0.411l-0.504,0.15l0.084-0.435c-0.281-0.023-0.842-0.066-1.123-0.09
		c-0.174-0.813-1.107-0.678-1.759-0.839c0.011-0.135,0.041-0.408,0.051-0.547c-0.334-0.031-0.997-0.097-1.331-0.131l0.184-0.428
		l-0.518,0.208l-0.021-0.5c-0.201,0.022-0.604,0.07-0.801,0.093l-0.025-0.478c-0.185,0.012-0.551,0.035-0.736,0.042l-0.073-0.473
		c-0.177,0.042-0.54,0.126-0.716,0.169l-0.064-0.539c-0.198,0.008-0.588,0.027-0.785,0.035L23.087,11.9
		c-0.189,0.042-0.56,0.123-0.745,0.162l0.032-0.481c-0.27-0.035-0.813-0.104-1.087-0.139C20.728,10.129,18.859,10.749,18.59,11.966
		 M17.165,15.405c-0.02,0.281-0.057,0.84-0.077,1.121c0.319,0.015,0.955,0.054,1.276,0.068l-0.068,0.467l0.717-0.12
		c0.031,0.12,0.088,0.357,0.12,0.474c0.189-0.042,0.568-0.13,0.757-0.177l0.056,0.578l0.689-0.115
		c0.037,0.119,0.105,0.362,0.141,0.481c0.125-0.034,0.382-0.104,0.511-0.139c0.753,0.54,1.683,0.778,2.432,1.325
		c0.141-0.034,0.427-0.1,0.572-0.135l0.056,0.451c0.189-0.005,0.568-0.019,0.757-0.027v0.513c0.197-0.039,0.6-0.124,0.797-0.167
		l0.104,0.29c0.234,0.139,0.702,0.424,0.935,0.566c0.105-0.016,0.313-0.045,0.419-0.062c0.241,0.131,0.728,0.39,0.973,0.52
		l-0.035,0.271c0.321,0.011,0.965,0.034,1.288,0.049l-0.057,0.471c0.535-0.02,1.07-0.023,1.604-0.104
		c0.047-0.293,0.141-0.882,0.189-1.179c-0.246,0.004-0.732,0.015-0.979,0.019l-0.008-0.503l-0.713,0.123l-0.076-0.474
		c-0.193,0.046-0.581,0.138-0.774,0.185l-0.061-0.548c-0.189,0.016-0.571,0.047-0.761,0.063l-0.04-0.443
		c-0.141,0.034-0.431,0.096-0.573,0.13c-0.394-0.366-0.873-0.577-1.429-0.639l0.008-0.293c-0.189,0.032-0.564,0.089-0.75,0.116
		l-0.036-0.566c-0.193,0.046-0.571,0.139-0.765,0.186l-0.084-0.466c-0.182,0.022-0.552,0.068-0.737,0.093l-0.032-0.536
		c-0.197,0.038-0.592,0.111-0.79,0.146l-0.077-0.474c-0.185,0.038-0.56,0.116-0.745,0.155l0.064-0.475
		c-0.551-0.054-1.104-0.104-1.655-0.154c0.008-0.155,0.024-0.458,0.032-0.613c-0.33-0.015-0.999-0.05-1.329-0.065l0.089-0.4
		C18.623,15.394,17.652,15.401,17.165,15.405 M3.325,18.093l0.064,0.304c-0.274,0.062-0.822,0.189-1.096,0.25l-0.346,0.693
		c1.937,0.108,3.865-0.104,5.798-0.02c0.061,0.439,0.121,0.882,0.182,1.325c0.567,0.205,0.704,0.728,0.789,1.245
		c0.108,0.203,0.322,0.611,0.43,0.816l0.318-0.035l-0.06,0.436l0.861-0.016c-0.028-0.574-0.06-1.147-0.1-1.722
		c-0.854-0.223-0.693-1.121-0.797-1.767l-0.391,0.088l0.092-0.463l-0.427,0.101c-0.007-0.312-0.023-0.939-0.032-1.252
		C6.852,17.962,5.084,18.055,3.325,18.093 M15.715,18.736c0.024,0.413,0.048,0.822,0.072,1.233c0.701,0.042,1.273,0.403,1.792,0.827
		c0.278,0.027,0.837,0.085,1.115,0.112c0.004,0.142,0.004,0.431,0.004,0.574c0.633,0.146,1.542-0.019,1.768,0.747
		c0.588,0.146,1.377,0.073,1.59,0.763c0.608,0.148,1.438,0.08,1.606,0.826c0.282,0.016,0.842,0.051,1.124,0.066l-0.089,0.447
		l0.539-0.143l-0.137,0.326c0.612-0.02,1.1,0.18,1.461,0.598l0.326-0.012c0.347,0.15,0.696,0.285,1.056,0.412l0.011,0.42
		c0.375-0.027,1.12-0.076,1.495-0.104c0.045-0.301,0.143-0.902,0.186-1.201c-0.217,0.014-0.648,0.039-0.866,0.055l-0.004-0.455
		l-0.536,0.191l0.202-0.469c-0.335-0.023-1.003-0.07-1.338-0.094l0.093-0.424l-0.54,0.215l0.178-0.469
		c-0.334-0.018-1.003-0.061-1.337-0.084l0.121-0.447l-0.532,0.225l0.133-0.458c-0.33-0.023-0.998-0.066-1.329-0.085l0.137-0.458
		l-0.535,0.227l0.124-0.438c-0.334-0.027-1.006-0.086-1.341-0.112l0.112-0.504l-0.515,0.262l0.105-0.42
		c-0.318-0.022-0.955-0.072-1.273-0.099l0.097-0.479l-0.511,0.185l-0.008-0.458c-0.153,0.027-0.451,0.077-0.6,0.1
		c-0.52-0.478-1.184-0.717-1.86-0.902l0.072-0.327C17.165,18.836,16.439,18.774,15.715,18.736 M14.221,21.886
		c-0.008,0.378-0.02,1.132-0.028,1.511c0.271,0.131,0.809,0.396,1.083,0.527c0.141-0.027,0.427-0.084,0.572-0.117l0.032,0.395
		c0.253,0.119,0.761,0.361,1.01,0.482c0.146-0.025,0.432-0.074,0.576-0.098l0.037,0.566l0.712-0.119
		c0.032,0.123,0.097,0.361,0.133,0.48c0.182-0.045,0.543-0.141,0.725-0.188l0.024,0.566c0.197-0.02,0.588-0.055,0.785-0.07
		l0.057,0.447c0.185-0.043,0.556-0.119,0.741-0.162l0.032,0.563c0.197-0.023,0.596-0.07,0.793-0.094l0.032,0.439
		c0.185-0.031,0.556-0.088,0.741-0.119l0.044,0.391c0.266,0.098,0.793,0.291,1.059,0.393c0.125,0.004,0.379,0.018,0.507,0.025
		l0.053,0.359c0.27,0.1,0.806,0.297,1.071,0.396c0.125,0,0.374-0.004,0.499-0.004l-0.028,0.457c0.91,0.117,1.816,0.104,2.722-0.021
		c-0.462-0.594-1.014-1.105-1.602-1.58c-0.166,0.047-0.495,0.135-0.661,0.178l-0.028-0.379c-0.253-0.127-0.756-0.383-1.007-0.514
		c-0.14,0.027-0.418,0.076-0.555,0.104l-0.012-0.387c-0.27-0.123-0.805-0.367-1.076-0.492c-0.128,0.027-0.386,0.078-0.515,0.104
		l0.057-0.488c-0.326-0.027-0.978-0.09-1.301-0.119c0.012-0.148,0.041-0.447,0.052-0.594c-0.325-0.027-0.974-0.082-1.3-0.109
		l0.073-0.418l-0.536,0.209l0.189-0.475c-0.33-0.02-0.991-0.059-1.321-0.074l0.093-0.432l-0.524,0.166l0.149-0.436
		c-0.338-0.02-1.01-0.064-1.349-0.084c0.012-0.16,0.04-0.479,0.052-0.64c-0.266-0.018-0.802-0.062-1.067-0.08
		C15.509,21.94,14.914,21.786,14.221,21.886z"/>
</g>
</svg>
