<?xml version="1.0" encoding="UTF-8" ?>
<!DOCTYPE svg PUBLIC "-//W3C//DTD SVG 1.1//EN" "http://www.w3.org/Graphics/SVG/1.1/DTD/svg11.dtd">
<svg width="80pt" height="57pt" viewBox="0 0 80 57" version="1.1" xmlns="http://www.w3.org/2000/svg">
<g id="#fbfbfbfb">
<path fill="#fbfbfb" opacity="1.00" d=" M 32.35 0.00 L 73.76 0.00 C 77.55 1.79 78.93 5.69 80.00 9.43 L 80.00 30.56 C 79.21 32.62 78.65 34.77 77.74 36.79 C 74.60 39.39 70.46 40.36 66.46 40.51 C 64.90 42.34 63.34 44.17 61.78 46.00 C 58.74 43.59 55.43 40.11 55.99 35.92 C 58.90 35.78 59.71 39.18 61.31 40.99 C 62.99 39.74 63.98 37.85 65.30 36.26 C 68.05 35.40 71.80 37.27 73.80 34.75 C 77.05 31.77 75.79 26.80 76.08 23.00 C 75.13 16.91 78.33 8.71 72.79 4.16 C 60.87 3.76 48.92 4.04 36.99 4.01 C 30.52 0.39 31.26 10.26 25.99 9.05 C 25.18 4.74 28.38 1.11 32.35 0.00 Z" />
<path fill="#fbfbfb" opacity="1.00" d=" M 0.00 19.39 C 1.41 16.01 2.93 11.79 7.07 11.10 C 19.37 10.79 31.70 11.02 44.01 11.04 C 48.06 10.03 52.45 12.43 53.70 16.33 C 54.26 26.13 54.13 35.96 53.83 45.77 C 47.72 53.79 36.48 50.20 27.99 51.04 C 22.78 48.94 20.83 54.39 17.81 57.00 L 17.19 57.00 C 14.71 54.38 12.52 50.92 8.66 50.41 C 3.95 49.88 0.95 45.98 0.00 41.58 L 0.00 19.39 M 7.30 15.29 C 5.76 15.73 4.73 16.76 4.30 18.30 C 3.79 26.42 3.79 34.58 4.29 42.70 C 4.88 45.14 6.94 46.34 9.30 46.57 C 13.12 46.51 15.00 49.90 17.80 51.88 C 18.91 50.70 21.11 48.34 22.21 47.16 C 30.37 46.72 38.55 47.35 46.70 46.71 C 47.80 46.20 48.97 45.76 49.71 44.74 C 52.36 38.16 50.54 30.86 50.97 23.99 C 51.95 20.52 50.13 17.40 47.81 15.15 C 34.32 14.94 20.79 14.73 7.30 15.29 Z" />
</g>
</svg>
