<?xml version="1.0" encoding="UTF-8" ?>
<!DOCTYPE svg PUBLIC "-//W3C//DTD SVG 1.1//EN" "http://www.w3.org/Graphics/SVG/1.1/DTD/svg11.dtd">
<svg width="84pt" height="84pt" viewBox="0 0 84 84" version="1.1" xmlns="http://www.w3.org/2000/svg">
<g id="#fafafafa">
<path fill="#fafafa" opacity="0.98" d=" M 53.28 0.00 L 55.75 0.00 C 58.08 2.73 61.23 4.92 62.72 8.28 C 62.97 11.17 62.01 14.02 62.04 16.91 C 63.48 20.06 66.52 22.38 69.98 22.74 C 71.93 22.38 73.75 21.23 75.75 21.26 C 78.90 23.09 81.32 25.86 84.00 28.27 L 84.00 30.76 C 72.49 43.94 59.40 55.66 47.25 68.25 C 41.72 73.44 36.89 79.45 30.78 84.00 L 28.30 84.00 C 25.57 81.62 22.56 79.34 21.09 75.89 C 20.92 71.91 23.98 66.80 19.78 64.22 C 16.51 60.57 11.44 63.11 7.27 62.79 C 4.82 60.45 2.51 57.98 0.00 55.70 L 0.00 53.29 C 17.95 35.73 35.69 17.93 53.28 0.00 M 54.23 6.18 C 42.91 17.55 30.88 28.22 19.94 39.94 C 15.27 43.26 12.67 48.69 7.75 51.72 C 3.77 53.39 6.76 60.54 10.68 58.59 C 16.08 56.56 22.49 58.63 24.98 64.03 C 27.47 67.51 24.85 71.86 25.18 75.77 C 26.24 76.80 27.21 78.42 28.95 78.00 C 34.11 75.89 37.24 70.86 40.98 66.97 C 52.92 56.24 63.48 44.18 75.27 33.30 C 78.21 31.71 77.28 27.61 74.77 26.19 C 71.86 25.84 68.61 27.75 65.97 26.05 C 60.20 23.82 55.95 17.00 57.79 10.90 C 58.82 8.72 56.52 5.64 54.23 6.18 Z" />
<path fill="#fafafa" opacity="0.98" d=" M 55.31 20.37 C 56.81 19.19 54.88 22.89 55.15 23.79 C 57.08 26.04 60.82 27.54 60.02 31.08 C 56.83 29.03 54.10 24.67 49.89 25.85 C 51.57 23.90 53.24 21.91 55.31 20.37 Z" />
<path fill="#fafafa" opacity="0.98" d=" M 48.27 27.27 C 51.88 25.97 47.58 29.29 47.92 30.99 C 49.29 30.73 50.62 30.28 51.98 30.01 C 51.62 31.69 51.03 33.34 50.96 35.08 C 52.95 35.03 54.05 32.97 56.04 32.93 C 56.10 35.26 53.85 37.04 51.99 38.01 C 49.32 36.66 47.44 33.84 45.26 31.72 C 44.41 29.77 47.23 28.59 48.27 27.27 Z" />
<path fill="#fafafa" opacity="0.98" d=" M 42.06 33.02 C 42.52 33.02 43.43 33.02 43.88 33.01 C 39.55 41.06 50.79 35.71 50.02 41.06 C 47.95 40.89 45.99 40.09 43.92 39.96 C 43.80 41.77 48.28 45.84 44.21 44.79 C 42.29 42.13 38.23 40.48 37.96 36.93 C 39.61 36.94 40.68 38.19 41.92 39.07 C 41.96 37.56 42.03 34.53 42.06 33.02 Z" />
<path fill="#fafafa" opacity="0.98" d=" M 34.16 40.11 C 34.88 40.08 36.33 40.02 37.05 39.99 C 37.36 41.97 35.31 42.28 34.08 43.20 C 33.95 44.98 35.23 46.50 36.16 47.91 C 38.92 49.00 40.56 46.28 43.03 45.93 C 43.30 48.75 40.16 50.05 38.00 50.99 C 33.25 49.89 29.91 43.81 34.16 40.11 Z" />
<path fill="#fafafa" opacity="0.98" d=" M 27.97 46.92 C 31.33 48.32 35.29 51.31 36.05 55.04 C 32.57 54.24 28.75 50.51 27.97 46.92 Z" />
<path fill="#fafafa" opacity="0.98" d=" M 25.27 50.30 C 28.26 48.75 25.32 52.36 26.15 53.78 C 27.63 55.92 31.30 57.01 31.03 60.03 C 27.63 60.06 26.28 55.98 23.80 54.17 C 22.80 54.72 21.91 55.43 20.93 56.01 C 20.50 53.15 23.20 51.60 25.27 50.30 Z" />
</g>
</svg>
