<?xml version="1.0" encoding="utf-8"?>
<!-- Generator: Adobe Illustrator 16.0.0, SVG Export Plug-In . SVG Version: 6.00 Build 0)  -->
<!DOCTYPE svg PUBLIC "-//W3C//DTD SVG 1.1//EN" "http://www.w3.org/Graphics/SVG/1.1/DTD/svg11.dtd">
<svg version="1.1" id="Layer_1" xmlns="http://www.w3.org/2000/svg" xmlns:xlink="http://www.w3.org/1999/xlink" x="0px" y="0px"
	 width="13px" height="13px" viewBox="0 0 13 13" enable-background="new 0 0 13 13" xml:space="preserve">
<rect id="_x3C_Slice_x3E_" x="0.061" y="7.486" fill="none" width="9" height="2"/>
<g>
	<path fill="#FFFFFF" d="M12.851,4.34c0.005-0.698-0.218-1.264-0.68-1.748c-0.651-0.683-1.317-1.227-1.948-1.929
		C9.854,0.251,9.444,0,8.909,0C7.366,0,5.821,0,4.275,0C3.807,0,3.324,0.056,3.016,0.532c-0.269,0.417-0.461,0.783-0.46,1.299
		c0.001,0.966-0.006,1.901,0.001,2.865c0.004,0.397-0.136,0.581-0.53,0.555c-0.148-0.011-0.566,0-0.717-0.008
		C0.917,5.227,0.219,5.366,0.219,5.771c0,1.197,0,2.394,0,3.592c0,0.399,0.741,0.5,1.112,0.526c0.957,0.07,1.089-0.062,1.094,0.969
		C2.433,12.22,3.031,13,4.275,13c2.284,0,4.567,0,6.853,0c0.943,0,1.456-0.545,1.67-1.476c0.049-0.205,0.046-0.351,0.046-0.563
		C12.847,8.73,12.837,6.571,12.851,4.34z M11.652,7.867c0,1.021,0.006,2.042-0.001,3.061c-0.005,0.943-0.347,1.293-1.259,1.294
		c-1.813,0.005-3.626,0.005-5.437,0c-0.866-0.001-1.21-0.366-1.227-1.28C3.701,9.634,3.701,9.634,4.924,9.634
		c1.476,0,2.954,0.002,4.429-0.001c0.7-0.001,0.817-0.126,0.821-0.865c0.004-0.826,0.005-1.652,0-2.48
		c-0.006-0.689-0.139-0.823-0.81-0.823c-1.712-0.002-3.423-0.02-5.136,0.011C3.794,5.483,3.705,5.345,3.718,4.919
		c0.032-0.95,0.003-1.9,0.013-2.85c0.01-0.908,0.363-1.267,1.235-1.27c1.023-0.005,2.047,0.01,3.069-0.01
		c0.402-0.007,0.604,0.154,0.616,0.57C8.67,1.991,8.691,2.624,8.691,3.256c0,0.44,0.191,0.647,0.608,0.647
		c0.555-0.002,1.107-0.016,1.661,0.02c0.59,0.037,0.69,0.167,0.691,0.776C11.654,5.755,11.652,6.811,11.652,7.867z"/>
	<g>
		<path fill="#010101" d="M3.291,8.928L3.064,8.453C2.971,8.269,2.911,8.134,2.841,7.981H2.833C2.781,8.133,2.719,8.269,2.64,8.453
			L2.431,8.928H1.785L2.51,7.599l-0.7-1.297h0.652L2.681,6.78c0.073,0.161,0.13,0.288,0.189,0.437h0.008
			c0.06-0.169,0.108-0.285,0.17-0.437l0.212-0.479h0.647L3.203,7.585l0.743,1.343H3.291z"/>
		<path fill="#010101" d="M6.369,7.924c-0.011-0.316-0.021-0.697-0.021-1.08H6.336C6.258,7.18,6.153,7.553,6.058,7.86L5.753,8.886
			H5.31L5.042,7.867C4.96,7.563,4.875,7.187,4.816,6.844H4.808C4.794,7.199,4.781,7.604,4.764,7.931L4.718,8.929H4.194l0.159-2.627
			H5.11L5.355,7.18c0.079,0.304,0.157,0.632,0.211,0.939h0.012c0.071-0.306,0.157-0.653,0.239-0.944l0.268-0.874h0.74l0.138,2.627
			H6.408L6.369,7.924z"/>
		<path fill="#010101" d="M7.397,6.301h0.568v2.126h0.997v0.5H7.397V6.301z"/>
	</g>
</g>
</svg>
