<?xml version="1.0" encoding="utf-8"?>
<!-- Generator: Adobe Illustrator 16.0.0, SVG Export Plug-In . SVG Version: 6.00 Build 0)  -->
<!DOCTYPE svg PUBLIC "-//W3C//DTD SVG 1.1//EN" "http://www.w3.org/Graphics/SVG/1.1/DTD/svg11.dtd">
<svg version="1.1" id="Layer_1" xmlns="http://www.w3.org/2000/svg" xmlns:xlink="http://www.w3.org/1999/xlink" x="0px" y="0px"
	 width="57px" height="44px" viewBox="0 0 57 44" enable-background="new 0 0 57 44" xml:space="preserve">
<g id="_x23_fafafafa">
	<path opacity="0.98" fill="#FAFAFA" enable-background="new    " d="M49.703,3.418c0.689,0.826,6.072-1.799,5.031,0.833
		c-1.445,2.215-2.646,4.672-4.58,6.588c-0.688-0.452-0.935-1.225-1.45-1.806c-7.021,3.939-14.332,7.457-21.32,11.437
		c-0.736,0.293-1.432,0.961-2.3,0.745c-1.955-2.228-3.109-4.988-5.561-6.864c-5.27,2.098-9.792,5.474-15.127,7.478
		c-1.385-0.246-2.088-2.179-1.956-3.387c5.833-3.188,11.932-5.967,17.931-8.88c0.285,0.017,0.849,0.052,1.126,0.064
		c1.678,2.081,3.156,4.279,4.918,6.301c1.513,0.322,2.487-1.611,3.852-1.67c5.243-2.825,10.528-5.592,15.811-8.353
		c0.192-0.756-0.233-1.471-0.417-2.192C46.674,3.641,48.695,3.495,49.703,3.418z"/>
	<path opacity="0.98" fill="#FAFAFA" enable-background="new    " d="M47.662,10.91l0.47-0.229
		c0.034,10.17,0.073,20.346-0.005,30.517c-2.639,0.063-5.271,0.058-7.902-0.018c-0.007-8.747-0.126-17.492,0.066-26.238
		C42.497,13.29,45.289,12.37,47.662,10.91z"/>
	<path opacity="0.98" fill="#FAFAFA" enable-background="new    " d="M19.171,15.605c2.439,1.313,3.97,4.982,6.231,7.045
		c0.411,5.944,0.266,11.912,0.133,17.854c-1.85,1.865-5.502,0.047-7.849,0.693c0.047-8.354-0.198-16.73,0.08-25.078
		C18.118,15.992,18.82,15.734,19.171,15.605z"/>
	<path opacity="0.98" fill="#FAFAFA" enable-background="new    " d="M35.75,17.387c0.278-0.07,0.821-0.217,1.093-0.287
		c0.088,8.031,0.073,16.066,0.021,24.098c-2.638,0.063-5.27,0.058-7.909-0.018c-0.019-6.789-0.112-13.583,0.061-20.37
		C31.13,19.485,33.416,18.383,35.75,17.387z"/>
	<path opacity="0.98" fill="#FAFAFA" enable-background="new    " d="M12.549,19.145c0.271-0.069,0.822-0.216,1.094-0.287
		c0.053,7.45,0.125,14.901,0.007,22.345c-2.32-0.704-6.059,1.289-7.815-0.716c-0.186-5.985-0.153-11.976-0.046-17.959
		C8.028,21.385,10.183,20.09,12.549,19.145z"/>
</g>
</svg>
