<?xml version="1.0" encoding="utf-8"?>
<!-- Generator: Adobe Illustrator 16.0.0, SVG Export Plug-In . SVG Version: 6.00 Build 0)  -->
<!DOCTYPE svg PUBLIC "-//W3C//DTD SVG 1.1//EN" "http://www.w3.org/Graphics/SVG/1.1/DTD/svg11.dtd">
<svg version="1.1" id="Layer_1" xmlns="http://www.w3.org/2000/svg" xmlns:xlink="http://www.w3.org/1999/xlink" x="0px" y="0px"
	 width="57px" height="60.5px" viewBox="0 -16.5 57 60.5" enable-background="new 0 -16.5 57 60.5" xml:space="preserve">
<g id="_x23_fcfcfcfc">
	<path fill="#FCFCFC" d="M23.69-14.833h9.855c7.881,1.824,13.876,7.242,16.598,13.912v7.972c-2.608,6.641-7.176,12.374-11,18.478
		c-0.521,4.365-0.31,8.823-1.357,13.139c-2.842,1.021-5.915,1.646-8.164,3.749h-1.205c-2.25-2.104-5.321-2.728-8.164-3.749
		c-1.047-4.315-0.837-8.773-1.341-13.146c-4.029-5.997-8.368-11.871-11.016-18.478v-7.964C10.512-7.441,16.321-12.493,23.69-14.833
		 M26.046-11.648C16.394-10.425,8.847-1.008,11.958,7.359c2.258,6.748,7.897,11.978,10.741,18.485
		c0.365,0.027,1.104,0.099,1.479,0.137c-1.341-8.667-5.566-16.904-6.435-25.635c0.374-0.666,2.462-1.532,2.3-0.166
		c-0.293,3.078,5.687,3.378,6.353,0.523c1.504-1.582,2.008,2.619,3.673,1.918c2.492-0.924,7.052,1.23,7.58-1.939
		c0.171-2.254,3.524-0.773,2.746,0.944c-2.633,8.044-5.046,16.194-7.19,24.373c0.527-0.035,1.592-0.111,2.13-0.155
		c3.442-7.279,9.838-13.426,11.562-21.34C47.414-4.936,36.845-13.795,26.046-11.648 M31.727,3.895
		c-0.636,1.145-1.163,2.34-1.984,3.385c-1.681-0.05-1.437-2.798-3.184-2.769c-1.227-0.007-3.681-0.007-4.907-0.007
		c1.649,6.927,4.103,13.684,5.923,20.574c1.673,2.333,3.501-0.557,3.558-2.196c1.146-6.485,4.477-12.603,5.216-19.108
		C35.194,3.802,32.879,3.866,31.727,3.895z"/>
</g>
</svg>
