<?xml version="1.0" encoding="utf-8"?>
<!-- Generator: Adobe Illustrator 16.0.0, SVG Export Plug-In . SVG Version: 6.00 Build 0)  -->
<!DOCTYPE svg PUBLIC "-//W3C//DTD SVG 1.1//EN" "http://www.w3.org/Graphics/SVG/1.1/DTD/svg11.dtd">
<svg version="1.1" id="Layer_1" xmlns="http://www.w3.org/2000/svg" xmlns:xlink="http://www.w3.org/1999/xlink" x="0px" y="0px"
	 width="57px" height="44px" viewBox="0 0 57 44" enable-background="new 0 0 57 44" xml:space="preserve">
<g id="_x23_fefefefe">
	<path fill="#FEFEFE" d="M23.63,2.643c4.149-0.61,9.101-0.557,12.133,2.576c4.633,3.997,3.624,10.32,3.612,15.59
		c-0.671,3.008-2.661,5.637-5.285,7.508c-2.566,0.575-4.589,2.599-7.48,1.966c-3.446,0.07-5.948-2.575-8.929-3.611
		c0.281,4.061,2.189,7.904,3.319,11.823c1.851,0.035,3.728,0.161,5.578,0.042c1.334-0.658-1.57-5.418,1.309-4.712
		c2.17-0.209,0.082,3.439,0.702,4.717c7.43,0.049,14.864,0.061,22.299-0.005c-0.153-2.392-0.663-4.956-2.029-7.017
		c-3.331-0.022-6.663-0.07-9.987-0.143c-2.088-1.497-0.007-5.168,3.024-3.575c0.153-8.064-0.058-16.129,0.07-24.194
		C44.118,3.289,45.056,5.503,46.944,6c-0.273-2.155,1.488-4.801,4.386-3.387c1.984,0.941,4.589,2.552,3.242,5.122
		c-1.698,6.169-2.731,12.541-4.794,18.598c-0.811,1.539-3.618-3.168-1.32-3.121c1.302-4.713,2.305-9.497,3.561-14.222
		c-3.134,0.746-5.705-0.958-8.156-2.403c0.02,6.862-0.108,13.73,0.07,20.599c1.723,2.196,5.776-0.764,7.479,1.434
		c1.372,2.023,2.694,4.174,2.993,6.595c-0.326,2.02,1.667,5.3-0.485,6.815c-16.709,0.125-33.436,0.195-50.138-0.006
		c-1.845-2.96-0.938-7.301,0.657-10.457c1.723-4.541,6.504-7.312,11.271-8.556c-0.318-4.648-1.813-9.728,0.721-14.05
		C17.784,6.083,20.509,3.815,23.63,2.643 M49.733,4.301c-2.585,1.812,1.386,4.281,3.026,2.203C52.07,5.585,51.138,4.07,49.733,4.301
		 M24.262,6.166c-3.363,1.332-5.387,4.802-5.329,8.124c-0.23,4.002,0.16,9.639,4.723,11.587c3.562,1.866,7.869,0.534,10.486-2.22
		c2.004-4.127,1.991-9.072,0.55-13.335C33.184,6.415,28.328,5.094,24.262,6.166 M14.466,27.387
		c-4.787,1.498-8.687,6.336-7.627,11.143c3.835,0.148,7.678,0.025,11.514,0.012c-0.122-3.269-1.851-6.269-2.541-9.454
		C15.602,28.494,15.512,26.984,14.466,27.387z"/>
	<path fill="#FEFEFE" d="M38.769,32.07c2.381,0,7.155,0,9.536,0c0.045,0.775,0.045,1.558,0,2.333c-2.381,0-7.155,0-9.536,0
		C38.718,33.628,38.718,32.846,38.769,32.07z"/>
	<path fill="#FEFEFE" d="M38.762,36.215c2.388,0,7.162,0,9.55,0c0,0.433,0,1.309,0,1.741c-2.388,0-7.162,0-9.55,0
		C38.762,37.523,38.762,36.647,38.762,36.215z"/>
</g>
</svg>
