<?xml version="1.0" encoding="utf-8"?>
<!-- Generator: Adobe Illustrator 16.0.0, SVG Export Plug-In . SVG Version: 6.00 Build 0)  -->
<!DOCTYPE svg PUBLIC "-//W3C//DTD SVG 1.1//EN" "http://www.w3.org/Graphics/SVG/1.1/DTD/svg11.dtd">
<svg version="1.1" id="Layer_1" xmlns="http://www.w3.org/2000/svg" xmlns:xlink="http://www.w3.org/1999/xlink" x="0px" y="0px"
	 width="57px" height="44px" viewBox="0 0 57 44" enable-background="new 0 0 57 44" xml:space="preserve">
<g id="_x23_ffffffff">
	<path fill="#FFFFFF" d="M11.094,2.942c0.442-0.049,1.327-0.142,1.77-0.187c0.499,0.872,0.97,1.754,1.424,2.64
		c0.375,0.069,1.123,0.207,1.492,0.274c0.607-0.837,1.226-1.665,1.855-2.483c0.703,0.093,1.407,0.191,2.11,0.294
		c-0.187,1.067-0.533,2.116-0.624,3.199c1.134,1.489,3.098-0.147,4.566-0.387c0.301,0.495,0.568,0.999,0.806,1.519
		c-0.687,0.808-1.594,1.455-2.44,2.136c0,0.289,0,0.857,0,1.146c1.236,0.294,2.497,0.524,3.704,0.916
		c0.131,0.578,0.188,1.161,0.177,1.758c-1.226,0.127-2.457,0.215-3.688,0.29c-0.272,0.456-0.544,0.906-0.811,1.361
		c0.182,0.167,0.545,0.495,0.726,0.662c0.369-0.696,0.777-1.372,1.209-2.039c1.026,0.554,1.952,1.269,3.091,1.651
		c0.584-0.313,1.123-0.671,1.674-1.024c-0.385-0.906-0.737-1.822-1.077-2.743c0.674-0.27,1.355-0.539,2.037-0.799
		c0.673,0.833,1.338,1.665,2.047,2.475c2.229-0.216,2.048-2.146,2.32-3.596c0.431-0.044,1.288-0.138,1.714-0.182
		c0.396,0.945,0.742,1.901,1.116,2.851c0.676,0.02,1.357,0.04,2.037,0.059c0.466-0.877,0.926-1.749,1.408-2.621
		c0.727,0.172,1.453,0.348,2.172,0.539c-0.17,0.906-0.356,1.813-0.573,2.719c0.688,0.254,1.374,0.514,2.054,0.774
		c0.834-0.701,1.656-1.407,2.514-2.087c0.381,0.274,1.14,0.823,1.521,1.102c-0.398,0.813-0.858,1.607-1.136,2.459
		c0.408,0.515,0.902,0.98,1.372,1.456c1.016-0.471,2.032-0.956,3.042-1.445c0.335,0.548,1.101,1.063,0.846,1.749
		c-0.573,0.598-1.231,1.127-1.862,1.671c0.256,0.583,0.528,1.161,0.807,1.738c1.141-0.073,2.28-0.142,3.427-0.22
		c0.215,0.568,0.419,1.137,0.618,1.706c-1.004,0.434-2.021,0.851-3.022,1.287c0.033,0.589,0.065,1.176,0.1,1.765
		c1.129,0.21,2.236,0.49,3.343,0.764v0.471c-0.085,0.348-0.262,1.038-0.347,1.386c-1.038,0.029-2.076,0.059-3.108,0.099
		c-0.188,0.621-0.363,1.248-0.532,1.876c1.036,0.573,2.058,1.161,3.039,1.799c-0.465,0.498-0.936,0.992-1.406,1.488
		c-0.947-0.255-1.906-0.48-2.858-0.719c-0.324,0.547-1.022,1.019-1,1.674c0.448,0.774,1.084,1.461,1.646,2.175
		c-0.449,0.401-0.892,0.8-1.34,1.201c-0.845-0.446-1.668-0.941-2.563-1.304c-0.653,0.2-1.294,0.43-1.924,0.686
		c0.205,1.015,0.518,2.014,0.835,3.008c-0.573,0.23-1.141,0.466-1.709,0.706c-0.732-0.818-1.446-1.646-2.189-2.455
		c-0.635,0.246-1.27,0.485-1.912,0.726c-0.057,0.893-0.125,1.788-0.21,2.684c-0.652,0.104-1.31,0.207-1.968,0.314
		c-0.38-0.907-0.715-1.827-1.056-2.743c-0.715-0.006-1.431-0.006-2.146-0.006c-0.454,0.878-0.936,1.75-1.451,2.603
		c-0.596-0.177-1.192-0.354-1.787-0.53c0.052-0.938,0.107-1.876,0.17-2.815c-0.652-0.271-1.305-0.539-1.951-0.809
		c-0.818,0.754-1.652,1.503-2.485,2.243c-0.471-0.381-0.959-0.749-1.39-1.165c0.248-0.907,0.783-1.726,1.225-2.567
		c-0.55-0.447-1.095-0.892-1.639-1.338c-1.231,0.514-3.104,1.949-3.982,0.27c0.005-1.082,1.469-1.646,2.155-2.449
		c-0.362-0.567-0.72-1.137-1.083-1.705c-1.039,0.142-2.077,0.269-3.12,0.397c-0.17-0.418-0.511-1.25-0.681-1.666
		c0.964-0.461,1.929-0.916,2.899-1.377c-0.079-0.587-0.147-1.175-0.221-1.769c-0.97-0.229-1.94-0.439-2.905-0.694
		c-0.192-0.555-0.255-1.122-0.181-1.711c1.208-0.177,2.417-0.327,3.62-0.523c0.034-0.584,0.067-1.172,0.102-1.754
		c-0.896-0.505-1.776-1.034-2.621-1.607c0.289-0.569,0.584-1.136,0.879-1.705c0.897,0.206,1.787,0.431,2.672,0.667
		c-1.004-0.524-1.997-1.059-2.996-1.592c-0.323,0.171-0.97,0.52-1.299,0.691c0.051,1.102,0,2.209-0.108,3.306
		c-0.455,0.01-1.362,0.03-1.816,0.04c-0.391-0.823-0.777-1.651-1.157-2.479c-0.606-0.083-1.208-0.167-1.81-0.25
		c-0.629,0.901-1.265,1.793-1.928,2.675c-0.466-0.162-1.396-0.475-1.867-0.637c0.272-1.019,0.584-2.033,0.846-3.057
		c-0.346-0.221-1.032-0.667-1.378-0.887c-1.062,0.407-2.128,0.798-3.195,1.195c-0.386-0.46-0.772-0.921-1.151-1.387
		c0.89-0.759,1.804-1.508,2.722-2.243c-0.079-0.304-0.232-0.907-0.312-1.205c-1.22-0.274-2.445-0.534-3.654-0.853v-0.892
		c0.448-1.817,3.948-0.27,4.414-2.327C6.969,8.453,6.135,7.699,5.455,6.836c0.317-0.543,0.709-1.048,1.089-1.562
		c1.055,0.553,2.105,1.112,3.131,1.7c0.346-0.191,1.027-0.578,1.374-0.769C10.946,5.118,10.866,4.02,11.094,2.942 M10.798,12.274
		c0.17,2.317,2.916,3.718,5.384,2.91c0.664-0.543,1.311-1.097,1.946-1.666c0.816-2.204-1.323-4.815-4.108-4.306
		C12.092,9.262,11.144,10.849,10.798,12.274 M30.003,24.243c-0.029,1.136-0.029,2.271,0,3.408c1.088,1.901,3.023,3.777,5.678,3.753
		c1.885,0.2,3.773-0.347,5.203-1.411c2.133-1.758,2.569-4.814,1.056-7.001c-1.255-1.832-3.819-2.85-6.253-2.601
		C33.016,20.42,31.001,22.244,30.003,24.243z"/>
</g>
</svg>
