<?xml version="1.0" encoding="utf-8"?>
<!-- Generator: Adobe Illustrator 16.0.0, SVG Export Plug-In . SVG Version: 6.00 Build 0)  -->
<!DOCTYPE svg PUBLIC "-//W3C//DTD SVG 1.1//EN" "http://www.w3.org/Graphics/SVG/1.1/DTD/svg11.dtd">
<svg version="1.1" id="Layer_1" xmlns="http://www.w3.org/2000/svg" xmlns:xlink="http://www.w3.org/1999/xlink" x="0px" y="0px"
	 width="14px" height="17px" viewBox="0 0 14 17" enable-background="new 0 0 14 17" xml:space="preserve">
<g>
	<path fill-rule="evenodd" clip-rule="evenodd" fill="#FEFEFE" d="M13.794,7.337c0.001-0.182-0.046-0.227-0.241-0.227
		C10.158,7.115,6.764,7.113,3.37,7.118c-0.18,0-0.223-0.039-0.221-0.207C3.16,6.023,3.156,5.135,3.153,4.244
		c0-0.265,0.029-0.523,0.086-0.781C3.61,1.746,5.355,0.51,7.206,0.654c1.918,0.149,3.429,1.622,3.497,3.407
		c0.006,0.154-0.088,0.366,0.049,0.449c0.124,0.074,0.334,0.011,0.505,0.019c0.102,0.004,0.13-0.021,0.134-0.121
		c0.122-2.291-1.774-4.271-4.215-4.402C4.627-0.131,2.468,1.793,2.468,4.203c0,0.916-0.004,1.833,0.003,2.748
		c0.001,0.131-0.034,0.167-0.174,0.165C1.625,7.111,0.953,7.121,0.281,7.11c-0.18-0.002-0.22,0.039-0.219,0.206
		c0.007,3.099,0.007,6.196,0,9.294c-0.001,0.17,0.041,0.207,0.221,0.207c2.214-0.007,4.429-0.005,6.645-0.005
		s4.432-0.002,6.646,0.005c0.178,0,0.22-0.037,0.22-0.207C13.788,13.519,13.788,10.428,13.794,7.337z M13.107,15.964
		c0,0.168-0.041,0.208-0.219,0.207c-1.987-0.006-3.974-0.003-5.961-0.003c-1.986,0-3.973-0.002-5.961,0.003
		c-0.177,0.001-0.219-0.038-0.219-0.207c0.007-2.667,0.007-5.333,0-8.001c0-0.167,0.042-0.207,0.219-0.207
		c3.975,0.005,7.948,0.005,11.921,0c0.179,0,0.22,0.038,0.22,0.207C13.102,10.63,13.102,13.297,13.107,15.964z"/>
	<path fill-rule="evenodd" clip-rule="evenodd" fill="#FEFEFE" d="M8.271,10.743c-0.143-0.63-0.705-1.056-1.378-1.042
		c-0.655,0.013-1.195,0.457-1.319,1.087c-0.114,0.567,0.241,1.176,0.834,1.397c0.148,0.054,0.188,0.123,0.182,0.26
		c-0.012,0.22-0.004,0.444-0.004,0.666c0,0.242-0.001,0.484,0.001,0.726c0.002,0.241,0.125,0.384,0.333,0.392
		c0.211,0.004,0.351-0.15,0.352-0.396c0.002-0.465,0.006-0.93-0.004-1.393c-0.003-0.142,0.045-0.203,0.187-0.257
		C8.063,11.954,8.404,11.335,8.271,10.743z M6.918,11.639c-0.37-0.004-0.677-0.3-0.676-0.649c0.002-0.35,0.314-0.643,0.684-0.643
		c0.372-0.001,0.685,0.29,0.688,0.639C7.618,11.342,7.297,11.645,6.918,11.639z"/>
</g>
</svg>
