<?xml version="1.0" encoding="utf-8"?>
<!-- Generator: Adobe Illustrator 16.0.0, SVG Export Plug-In . SVG Version: 6.00 Build 0)  -->
<!DOCTYPE svg PUBLIC "-//W3C//DTD SVG 1.1//EN" "http://www.w3.org/Graphics/SVG/1.1/DTD/svg11.dtd">
<svg version="1.1" id="Layer_1" xmlns="http://www.w3.org/2000/svg" xmlns:xlink="http://www.w3.org/1999/xlink" x="0px" y="0px"
	 width="254.008px" height="29.846px" viewBox="0 0 254.008 29.846" enable-background="new 0 0 254.008 29.846"
	 xml:space="preserve">
<g>
	<path fill="#FFFFFF" d="M0,29.846v-3.428L16.267,8.366H0V4.974h21.762v3.428L5.433,26.454h16.329v3.392H0z"/>
	<path fill="#FFFFFF" d="M51.118,29.017c-0.541,0.553-1.25,0.829-2.129,0.829h-19.03c-0.88,0-1.596-0.276-2.148-0.829
		c-0.553-0.552-0.829-1.193-0.829-1.922v-1.018c0-0.703,0-1.62,0-2.751c0-1.155,0-2.449,0-3.881c0-1.457,0-2.939,0-4.447
		c0-1.532,0-3.027,0-4.484c0-1.457,0-2.751,0-3.881c0-1.155,0-2.085,0-2.789c0-0.703,0-1.067,0-1.093
		c0-0.729,0.276-1.369,0.829-1.922C28.363,0.277,29.079,0,29.959,0h19.03c0.879,0,1.595,0.277,2.147,0.829
		c0.553,0.553,0.816,1.193,0.792,1.922v24.344C51.929,27.824,51.658,28.464,51.118,29.017z M46.879,4.07H32.031v21.706h14.848V4.07z
		"/>
	<path fill="#FFFFFF" d="M99.825,29.019c-0.554,0.552-1.27,0.827-2.148,0.827H77.479c-0.88,0-1.59-0.276-2.13-0.829
		c-0.54-0.552-0.81-1.193-0.81-1.922V2.751c-0.025-0.729,0.238-1.369,0.791-1.922C75.883,0.277,76.599,0,77.479,0h23.176v4.07
		H79.589v21.706h16.016V17.41h-5.304l-1.895-4.07h12.248v13.761C100.654,27.828,100.377,28.467,99.825,29.019z"/>
	<path fill="#FFFFFF" d="M127.735,29.846l-7.021-10.363h-7.612v10.363h-4.208V19.482h-3.077v-3.392h3.077V4.974h20.35
		c0.732,0,1.329,0.23,1.79,0.691c0.46,0.461,0.68,0.995,0.659,1.602v9.923c0,0.607-0.22,1.142-0.659,1.602
		c-0.439,0.461-1.036,0.691-1.79,0.691h-3.454l6.751,10.363H127.735z M127.484,8.429h-14.383v7.662h14.383V8.429z"/>
	<path fill="#FFFFFF" d="M157.224,29.846V19.482h-13.692v10.363h-4.208V19.482h-3.108v-3.392h3.108V7.273
		c0-0.608,0.225-1.144,0.676-1.606c0.449-0.462,1.041-0.693,1.773-0.693h17.178c0.733,0,1.335,0.23,1.806,0.691
		c0.472,0.461,0.696,0.995,0.676,1.602v22.579H157.224z M157.224,8.366h-13.692v7.725h13.692V8.366z"/>
	<path fill="#FFFFFF" d="M179.707,29.846h-4.333l-9.421-24.872h4.647l6.908,19.596l7.129-19.596h4.554L179.707,29.846z"/>
	<path fill="#FFFFFF" d="M193.714,29.846V4.974h4.208v24.872H193.714z"/>
	<path fill="#FFFFFF" d="M216.418,8.366v21.48h-4.208V8.366h-9.734V4.974h23.709v3.392H216.418z"/>
	<path fill="#FFFFFF" d="M244.492,19.482v10.363h-4.208V19.482l-9.483-14.508h4.741l6.815,10.3l6.939-10.3h4.711L244.492,19.482z"/>
</g>
</svg>
