<?xml version="1.0" encoding="utf-8"?>
<!-- Generator: Adobe Illustrator 16.0.0, SVG Export Plug-In . SVG Version: 6.00 Build 0)  -->
<!DOCTYPE svg PUBLIC "-//W3C//DTD SVG 1.1//EN" "http://www.w3.org/Graphics/SVG/1.1/DTD/svg11.dtd">
<svg version="1.1" id="Layer_1" xmlns="http://www.w3.org/2000/svg" xmlns:xlink="http://www.w3.org/1999/xlink" x="0px" y="0px"
	 width="52.811px" height="19.975px" viewBox="0 0 52.811 19.975" enable-background="new 0 0 52.811 19.975" xml:space="preserve">
<g>
	<path fill="#FFFFFF" d="M0,19.975V17.68L10.887,5.599H0V3.328h14.564v2.295L3.636,17.704h10.929v2.271H0z"/>
	<path fill="#FFFFFF" d="M34.212,19.42c-0.362,0.369-0.837,0.555-1.426,0.555H20.05c-0.589,0-1.067-0.186-1.438-0.555
		c-0.37-0.37-0.555-0.799-0.555-1.287v-0.681c0-0.471,0-1.085,0-1.841c0-0.773,0-1.64,0-2.598c0-0.975,0-1.968,0-2.977
		c0-1.025,0-2.025,0-3.001s0-1.841,0-2.598c0-0.773,0-1.396,0-1.866s0-0.715,0-0.731c0-0.487,0.185-0.917,0.555-1.286
		C18.982,0.185,19.461,0,20.05,0h12.736c0.589,0,1.068,0.185,1.438,0.555c0.37,0.369,0.547,0.799,0.53,1.286v16.292
		C34.754,18.621,34.573,19.05,34.212,19.42z M31.374,2.723h-9.937V17.25h9.937V2.723z"/>
	<path fill="#FFFFFF" d="M52.349,19.517c-0.308,0.306-0.707,0.458-1.196,0.458H39.896c-0.49,0-0.885-0.154-1.186-0.463
		c-0.302-0.308-0.452-0.664-0.452-1.07V4.875c-0.014-0.406,0.133-0.763,0.441-1.07c0.308-0.309,0.706-0.463,1.196-0.463h12.915V5.61
		H41.072v12.096h8.925v-6.931h2.813v7.68C52.811,18.857,52.657,19.211,52.349,19.517z"/>
</g>
</svg>
