<?xml version="1.0" encoding="utf-8"?>
<!-- Generator: Adobe Illustrator 16.0.0, SVG Export Plug-In . SVG Version: 6.00 Build 0)  -->
<!DOCTYPE svg PUBLIC "-//W3C//DTD SVG 1.1//EN" "http://www.w3.org/Graphics/SVG/1.1/DTD/svg11.dtd">
<svg version="1.1" id="Layer_1" xmlns="http://www.w3.org/2000/svg" xmlns:xlink="http://www.w3.org/1999/xlink" x="0px" y="0px"
	 width="34px" height="34px" viewBox="0 0 34 34" enable-background="new 0 0 34 34" xml:space="preserve">
<g>
	<path fill="#FFFFFF" d="M28.177,10.096c0-1.172-0.949-2.121-2.12-2.121H8.591c-1.173,0-2.122,0.949-2.122,2.121v13.82
		c0,1.172,0.949,2.121,2.122,2.121h17.466c1.171,0,2.12-0.949,2.12-2.121V10.096z M8.602,9.67h17.472
		c0.234,0,0.422,0.186,0.422,0.42v0.018l-8.857,8.861c-0.109,0.107-0.235,0.123-0.299,0.123c-0.066,0-0.193-0.016-0.301-0.123
		l-8.861-8.861V10.09C8.177,9.856,8.368,9.67,8.602,9.67z M26.073,24.344H8.602c-0.233,0-0.425-0.195-0.425-0.428v-11.41
		l7.662,7.662c0.4,0.4,0.934,0.621,1.5,0.621c0.563,0,1.097-0.221,1.497-0.621l7.659-7.66v11.408
		C26.495,24.149,26.308,24.344,26.073,24.344z"/>
</g>
</svg>
