<!-- svg symbol map -->
<svg xmlns="http://www.w3.org/2000/svg">
  <symbol id="arrow-down"  fill="#FFFFFF"  viewBox="0 2.771 9.492 8.609" style="all:inherit" viewport="0 2.771 9.492 15">
    <title>CodePen</title>
    <path d="M0.147,9.763l4.242,4.242c0.092,0.092,0.217,0.147,0.356,0.147c0.139,0,0.265-0.057,0.356-0.147l4.242-4.242
      c0.142-0.141,0.189-0.355,0.109-0.549C9.372,9.02,9.186,8.902,8.988,8.902H7.813V3.274c0-0.128-0.051-0.257-0.147-0.355
      C7.564,2.82,7.438,2.771,7.309,2.771H2.185c-0.129,0-0.258,0.049-0.358,0.147C1.729,3.018,1.681,3.146,1.681,3.274v5.628H0.503
      c-0.197,0-0.385,0.117-0.465,0.312C-0.042,9.407,0.007,9.622,0.147,9.763z"/>
  </symbol>
  <symbol id="arrow-small"  fill="#FFFFFF" style="all:inherit">
    <polygon points="0,0 0,100 50,100"/>
  </symbol>
  <symbol id="burger"  fill="#FFFFFF" viewBox="0 0 21 21" style="all:inherit" width="1.31em" height="1.31em">
  	<g>
  		<path fill-rule="evenodd" clip-rule="evenodd" d="M10.489,0.91c2.896,0,5.797-0.002,8.698,0
  			c0.798,0,1.438,0.502,1.666,1.297c0.231,0.813-0.025,1.678-0.643,2.165c-0.313,0.246-0.664,0.335-1.049,0.335
  			c-4.446-0.004-8.894-0.002-13.343-0.002c-1.333,0-2.665,0.002-3.996-0.002c-1.038,0-1.777-0.799-1.773-1.908
  			C0.055,1.703,0.796,0.91,1.817,0.91C4.709,0.908,7.6,0.91,10.489,0.91z"/>
  		<path fill-rule="evenodd" clip-rule="evenodd" d="M10.488,8.5c2.897,0,5.798-0.002,8.699,0
  			c0.798,0.003,1.437,0.502,1.666,1.297c0.231,0.813-0.025,1.678-0.643,2.165c-0.313,0.247-0.664,0.336-1.049,0.336
  			c-4.429-0.004-8.859-0.002-13.291-0.002c-1.35,0-2.699,0.002-4.048-0.002c-1.038,0-1.777-0.798-1.773-1.908
  			C0.055,9.294,0.796,8.503,1.817,8.5C4.709,8.499,7.6,8.5,10.488,8.5z"/>
  		<path fill-rule="evenodd" clip-rule="evenodd" d="M10.489,16.092c2.898,0,5.797,0,8.698,0
  			c0.798,0.002,1.438,0.502,1.666,1.297c0.231,0.812-0.025,1.677-0.643,2.164c-0.313,0.247-0.664,0.337-1.049,0.337
  			c-4.503-0.002-9.004-0.002-13.508-0.002c-1.277,0-2.555,0.002-3.833,0c-1.037-0.003-1.775-0.801-1.771-1.911
  			c0.005-1.089,0.746-1.883,1.77-1.885C4.709,16.092,7.6,16.092,10.489,16.092z"/>
  	</g>
  </symbol>
  <symbol id="close"  version="1.1" fill="#FFFFFF"  xmlns="http://www.w3.org/2000/svg" xmlns:xlink="http://www.w3.org/1999/xlink" x="0px" y="0px"
  	 width="13.313px" height="12.317px" viewBox="0 0 13.313 12.317" style="all:inherit" enable-background="new 0 0 13.313 12.317" xml:space="preserve">
  <g>
  	<path d="M13.199,3.43c0.068-0.069,0.111-0.166,0.111-0.272c0-0.107-0.043-0.203-0.111-0.273l-2.773-2.772
  		C10.356,0.043,10.26,0,10.153,0S9.95,0.043,9.881,0.112L0.468,9.526C0.398,9.595,0.354,9.692,0.354,9.798
  		c0,0.107,0.043,0.203,0.112,0.273l2.772,2.772c0.069,0.068,0.166,0.112,0.272,0.111c0.105,0.001,0.202-0.043,0.271-0.111
  		L13.199,3.43z"/>
  	<path d="M3.784,0.112C3.716,0.043,3.618,0,3.513,0C3.405,0,3.31,0.042,3.239,0.113L0.468,2.885
  		c-0.069,0.07-0.112,0.167-0.112,0.273c0,0.107,0.043,0.203,0.111,0.272l9.414,9.414c0.07,0.069,0.166,0.112,0.271,0.112
  		c0.106,0,0.203-0.043,0.272-0.113l2.773-2.771c0.068-0.07,0.113-0.167,0.112-0.273c0.001-0.104-0.044-0.202-0.112-0.271
  		L3.784,0.112z"/>
  </g>
  </symbol>
  <symbol id="next"  version="1.1"  xmlns="http://www.w3.org/2000/svg" xmlns:xlink="http://www.w3.org/1999/xlink" x="0px" y="0px"
  	 width="14px" height="23px" viewBox="0 0 14 23" enable-background="new 0 0 14 23" xml:space="preserve">
  <g>
  	<polyline fill="none" stroke="#00FFFF" stroke-width="2" stroke-miterlimit="10" points="0.94,0.545 12.03,11.636 0.94,22.727 	"/>
  </g>
  </symbol>
  <symbol id="plus-small"  version="1.1"  xmlns="http://www.w3.org/2000/svg" xmlns:xlink="http://www.w3.org/1999/xlink" x="0px" y="0px"
  	 width="11.934px" height="11.934px" viewBox="0 0 11.934 11.934" enable-background="new 0 0 11.934 11.934" xml:space="preserve">
  <g>
  	<line fill="#FFFFFF" stroke="#FFFFFF" stroke-miterlimit="10" x1="8.891" y1="5.967" x2="3.043" y2="5.967"/>
  	<circle fill="none" stroke="#FFFFFF" stroke-miterlimit="10" cx="5.967" cy="5.967" r="5.967"/>
  	<line fill="#FFFFFF" stroke="#FFFFFF" stroke-miterlimit="10" x1="5.967" y1="3.043" x2="5.967" y2="8.891"/>
  </g>
  </symbol>
  <symbol id="prev"  version="1.1"  xmlns="http://www.w3.org/2000/svg" xmlns:xlink="http://www.w3.org/1999/xlink" x="0px" y="0px"
  	 width="14px" height="23px" viewBox="0 0 14 23" enable-background="new 0 0 14 23" xml:space="preserve">
  <g>
  	<polyline fill="none" stroke="#00FFFF" stroke-width="2" stroke-miterlimit="10" points="13,0.626 1.909,11.717 13,22.808 	"/>
  </g>
  </symbol>
  <symbol version="1.1" id="add-1" xmlns="http://www.w3.org/2000/svg" xmlns:xlink="http://www.w3.org/1999/xlink" x="0px" y="0px"
     width="12.957px" height="12.223px" viewBox="0 0 12.957 12.223" enable-background="new 0 0 12.957 12.223" xml:space="preserve">
  <g>
    <path fill="#FFFFFF" d="M12.228,8.146c0.086,0,0.17-0.036,0.235-0.098c0.065-0.065,0.098-0.148,0.099-0.233l0.039-3.346
      c0.002-0.084-0.029-0.169-0.095-0.233c-0.063-0.063-0.146-0.094-0.23-0.096L0.916,4.206C0.833,4.207,0.748,4.24,0.683,4.303
      C0.617,4.368,0.584,4.452,0.584,4.536l-0.04,3.346C0.543,7.965,0.574,8.049,0.638,8.114c0.063,0.063,0.147,0.095,0.231,0.095
      L12.228,8.146z"/>
    <path fill="#FFFFFF" d="M8.639,0.484c0.002-0.083-0.03-0.167-0.093-0.231C8.48,0.188,8.399,0.156,8.313,0.157L4.969,0.177
      c-0.085,0-0.169,0.034-0.235,0.099C4.669,0.339,4.637,0.423,4.636,0.506l-0.131,11.36c-0.002,0.083,0.029,0.168,0.093,0.23
      s0.147,0.097,0.232,0.096l3.346-0.02c0.082-0.002,0.169-0.034,0.234-0.099c0.063-0.064,0.097-0.15,0.097-0.233L8.639,0.484z"/>
  </g>
  </symbol>
</svg>