<svg xmlns="http://www.w3.org/2000/svg">
  <style>
    * {
      fill: blue;
    }
  </style>
  <symbol fill="#FFFFFF" id="codepen" viewBox="0 2.771 9.492 8.609" style="all:inherit" viewport="0 2.771 9.492 15">
    <title>CodePen</title>
    <path d="M0.147,9.763l4.242,4.242c0.092,0.092,0.217,0.147,0.356,0.147c0.139,0,0.265-0.057,0.356-0.147l4.242-4.242
      c0.142-0.141,0.189-0.355,0.109-0.549C9.372,9.02,9.186,8.902,8.988,8.902H7.813V3.274c0-0.128-0.051-0.257-0.147-0.355
      C7.564,2.82,7.438,2.771,7.309,2.771H2.185c-0.129,0-0.258,0.049-0.358,0.147C1.729,3.018,1.681,3.146,1.681,3.274v5.628H0.503
      c-0.197,0-0.385,0.117-0.465,0.312C-0.042,9.407,0.007,9.622,0.147,9.763z"/>
  </symbol>
  <svg>
    <use xlink:href="#codepen" xmlns:xlink="http://www.w3.org/1999/xlink"/>
  </svg>
</svg>