<?xml version="1.0" encoding="utf-8"?>
<!-- Generator: Adobe Illustrator 16.0.0, SVG Export Plug-In . SVG Version: 6.00 Build 0)  -->
<!DOCTYPE svg PUBLIC "-//W3C//DTD SVG 1.1//EN" "http://www.w3.org/Graphics/SVG/1.1/DTD/svg11.dtd">
<svg version="1.1" id="Layer_1" xmlns="http://www.w3.org/2000/svg" xmlns:xlink="http://www.w3.org/1999/xlink" x="0px" y="0px"
	 width="20px" height="20px" viewBox="0 0 20 20" enable-background="new 0 0 20 20" xml:space="preserve">
<g>
	<path fill-rule="evenodd" clip-rule="evenodd" fill="#FFFFFF" d="M10.229,0.3C15.62,0.303,20.001,4.692,20,10.089
		c-0.001,5.404-4.39,9.785-9.8,9.783c-5.401-0.002-9.776-4.396-9.771-9.812C0.434,4.673,4.826,0.298,10.229,0.3z M10.206,19.064
		c4.956-0.032,8.975-3.984,8.978-8.978c0.002-4.947-3.958-8.955-8.95-8.971c-4.933-0.015-8.977,3.935-8.988,8.955
		C1.232,15.014,5.191,19.017,10.206,19.064z"/>
	<path fill-rule="evenodd" clip-rule="evenodd" fill="#FFFFFF" d="M4.206,9.72c4.006,0,8.001,0,12.013,0c0,0.253,0,0.507,0,0.775
		c-4,0-7.999,0-12.013,0C4.206,10.242,4.206,9.995,4.206,9.72z"/>
</g>
</svg>
