<?xml version="1.0" encoding="utf-8"?>
<!-- Generator: Adobe Illustrator 16.0.0, SVG Export Plug-In . SVG Version: 6.00 Build 0)  -->
<!DOCTYPE svg PUBLIC "-//W3C//DTD SVG 1.1//EN" "http://www.w3.org/Graphics/SVG/1.1/DTD/svg11.dtd">
<svg version="1.1" id="Layer_1" xmlns="http://www.w3.org/2000/svg" xmlns:xlink="http://www.w3.org/1999/xlink" x="0px" y="0px"
	 width="13px" height="18px" viewBox="0 0 13 18" enable-background="new 0 0 13 18" xml:space="preserve">
<g>
	<path fill-rule="evenodd" clip-rule="evenodd" fill="#FFFFFF" d="M3.704,1.606c0,0.225,0.018,0.433-0.003,0.637
		C3.664,2.602,3.376,2.848,3.002,2.852C2.583,2.858,2.165,2.854,1.744,2.854C1.393,2.856,1.202,3.045,1.202,3.411
		c-0.001,4.061-0.001,8.12,0,12.182c0,0.393,0.181,0.58,0.558,0.58c3.129-0.002,6.258-0.003,9.385-0.005
		c0.358-0.001,0.543-0.187,0.543-0.558c0.001-2.926,0.002-5.852,0-8.776c0-1.122-0.007-2.244-0.012-3.366
		c-0.001-0.45-0.159-0.612-0.594-0.612c-0.389,0-0.778,0.002-1.167-0.001C9.455,2.85,9.183,2.563,9.179,2.085
		c-0.001-0.151,0-0.302,0-0.471c0.066-0.003,0.124-0.009,0.184-0.009c0.813,0,1.628-0.001,2.441,0
		c0.601,0.001,1.055,0.459,1.056,1.081c0.003,4.546,0.003,9.092,0,13.639c-0.001,0.607-0.446,1.058-1.032,1.058
		c-3.591,0.001-7.181,0.001-10.773,0c-0.583-0.001-1.023-0.455-1.024-1.066c-0.002-4.54-0.002-9.079,0-13.62
		C0.03,2.062,0.48,1.606,1.093,1.606c0.807,0,1.616,0,2.423,0C3.575,1.606,3.636,1.606,3.704,1.606z"/>
	<g>
		<path fill-rule="evenodd" clip-rule="evenodd" fill="#FFFFFF" d="M9.946,5.266c-2.335,0-4.658,0-6.981,0
			C2.93,4.582,3.329,3.972,3.95,3.76C4.093,3.71,4.238,3.664,4.376,3.6C4.64,3.477,4.768,3.258,4.77,2.956
			c0.004-0.358-0.017-0.722,0.035-1.074c0.128-0.901,0.896-1.51,1.782-1.448c0.817,0.058,1.495,0.79,1.531,1.663
			C8.13,2.374,8.127,2.651,8.121,2.928C8.113,3.274,8.268,3.501,8.567,3.633c0.085,0.036,0.17,0.071,0.258,0.092
			C9.45,3.877,9.776,4.313,9.899,4.941C9.92,5.044,9.93,5.15,9.946,5.266z M6.441,2.702c0.27,0.002,0.502-0.23,0.508-0.512
			c0.005-0.28-0.218-0.519-0.492-0.526c-0.281-0.008-0.516,0.229-0.516,0.52C5.941,2.461,6.172,2.7,6.441,2.702z"/>
		<path fill-rule="evenodd" clip-rule="evenodd" fill="#FFFFFF" d="M9.936,8.315c0,0.2,0,0.388,0,0.584c-2.521,0-5.033,0-7.56,0
			c0-0.188,0-0.379,0-0.584C4.889,8.315,7.405,8.315,9.936,8.315z"/>
		<path fill-rule="evenodd" clip-rule="evenodd" fill="#FFFFFF" d="M8.768,11.948c0,0.2,0,0.386,0,0.583c-2.129,0-4.252,0-6.392,0
			c0-0.187,0-0.378,0-0.583C4.499,11.948,6.629,11.948,8.768,11.948z"/>
		<path fill-rule="evenodd" clip-rule="evenodd" fill="#FFFFFF" d="M8.186,10.132c0,0.2,0,0.387,0,0.583c-1.937,0-3.865,0-5.81,0
			c0-0.188,0-0.379,0-0.583C4.306,10.132,6.239,10.132,8.186,10.132z"/>
		<path fill-rule="evenodd" clip-rule="evenodd" fill="#FFFFFF" d="M7.055,13.765c0,0.199,0,0.385,0,0.582c-1.563,0-3.119,0-4.686,0
			c0-0.196,0-0.381,0-0.582C3.928,13.765,5.484,13.765,7.055,13.765z"/>
		<path fill-rule="evenodd" clip-rule="evenodd" fill="#FFFFFF" d="M2.363,7.079c0-0.168-0.002-0.325,0-0.482
			c0-0.03,0.003-0.06,0.005-0.1c1.355,0,2.701,0,4.063,0c0,0.187,0,0.377,0,0.582C5.085,7.079,3.734,7.079,2.363,7.079z"/>
	</g>
</g>
</svg>
