<?xml version="1.0" encoding="UTF-8" ?>
<!DOCTYPE svg PUBLIC "-//W3C//DTD SVG 1.1//EN" "http://www.w3.org/Graphics/SVG/1.1/DTD/svg11.dtd">
<svg width="894pt" height="893pt" viewBox="0 0 894 893" version="1.1" xmlns="http://www.w3.org/2000/svg">
<g id="#da8e8dff">
<path fill="#da8e8d" opacity="1.00" d=" M 769.44 10.54 C 773.17 8.47 777.94 9.38 781.99 10.09 C 794.90 13.28 806.05 20.98 816.55 28.84 C 798.75 47.27 780.34 65.10 762.33 83.33 C 758.65 87.22 754.41 90.60 751.31 95.00 C 741.55 84.63 731.73 74.31 722.29 63.64 C 721.00 62.08 719.37 60.82 717.37 60.35 C 718.17 59.56 719.37 59.79 720.38 59.42 C 736.78 43.19 752.99 26.73 769.44 10.54 Z" />
</g>
<g id="#d76f6eff">
<path fill="#d76f6e" opacity="1.00" d=" M 816.55 28.84 C 830.06 39.45 842.23 51.63 853.96 64.15 C 859.48 70.67 865.35 76.99 869.88 84.26 C 865.07 89.95 859.51 94.95 854.32 100.28 C 839.09 115.41 823.97 130.67 808.77 145.82 C 807.62 146.88 807.06 148.35 806.53 149.77 C 787.65 132.00 769.30 113.67 751.31 95.00 C 754.41 90.60 758.65 87.22 762.33 83.33 C 780.34 65.10 798.75 47.27 816.55 28.84 Z" />
</g>
<g id="#ccccccff">
<path fill="#cccccc" opacity="1.00" d=" M 659.47 118.48 C 678.69 99.03 698.28 79.92 717.37 60.35 C 719.37 60.82 721.00 62.08 722.29 63.64 C 731.73 74.31 741.55 84.63 751.31 95.00 C 769.30 113.67 787.65 132.00 806.53 149.77 C 815.36 158.03 824.20 166.28 833.30 174.23 L 833.87 174.92 L 833.51 176.17 C 813.49 196.31 793.33 216.32 773.27 236.42 C 772.14 237.42 771.11 239.52 769.34 238.30 C 760.29 229.63 750.78 221.44 741.74 212.76 C 723.05 195.22 704.84 177.17 687.18 158.60 C 676.62 147.46 666.17 136.22 655.96 124.76 C 655.93 124.10 655.87 122.78 655.84 122.12 C 655.96 121.79 656.18 121.13 656.29 120.80 C 657.68 120.57 658.52 119.38 659.47 118.48 Z" />
</g>
<g id="#c85957ff">
<path fill="#c85957" opacity="1.00" d=" M 869.88 84.26 L 870.08 84.03 C 876.28 93.51 882.54 103.48 884.29 114.89 C 884.61 118.62 885.13 123.24 881.86 125.90 C 865.60 141.94 849.70 158.35 833.30 174.23 C 824.20 166.28 815.36 158.03 806.53 149.77 C 807.06 148.35 807.62 146.88 808.77 145.82 C 823.97 130.67 839.09 115.41 854.32 100.28 C 859.51 94.95 865.07 89.95 869.88 84.26 Z" />
</g>
<g id="#ffd268ff">
<path fill="#ffd268" opacity="1.00" d=" M 653.98 125.84 C 655.02 124.85 654.49 122.89 655.84 122.12 C 655.87 122.78 655.93 124.10 655.96 124.76 C 666.17 136.22 676.62 147.46 687.18 158.60 C 542.10 303.38 397.28 448.40 252.28 593.25 C 242.72 603.05 232.60 612.34 223.50 622.58 C 212.72 633.44 201.79 644.15 191.06 655.07 C 182.58 663.23 174.65 671.98 165.80 679.75 C 148.46 696.75 131.62 714.27 114.10 731.07 C 100.50 728.54 86.74 732.95 73.08 731.12 C 71.21 730.68 70.74 728.60 70.65 726.97 C 70.10 719.70 72.67 712.75 73.70 705.66 C 267.16 512.42 460.56 319.13 653.98 125.84 Z" />
</g>
<g id="#ffc334ff">
<path fill="#ffc334" opacity="1.00" d=" M 252.28 593.25 C 397.28 448.40 542.10 303.38 687.18 158.60 C 704.84 177.17 723.05 195.22 741.74 212.76 C 560.83 393.86 379.71 574.75 198.72 755.77 C 189.82 764.33 181.50 773.51 172.35 781.80 C 165.16 779.76 157.62 781.56 150.38 782.46 C 138.98 784.05 127.59 786.53 116.03 786.07 C 113.31 785.66 108.97 785.59 108.73 781.95 C 108.55 774.43 110.49 767.04 111.55 759.63 C 112.89 750.43 115.54 741.17 114.09 731.82 L 114.10 731.07 C 131.62 714.27 148.46 696.75 165.80 679.75 C 174.65 671.98 182.58 663.23 191.06 655.07 C 201.79 644.15 212.72 633.44 223.50 622.58 C 232.60 612.34 242.72 603.05 252.28 593.25 Z" />
</g>
<g id="#e2af38ff">
<path fill="#e2af38" opacity="1.00" d=" M 741.74 212.76 C 750.78 221.44 760.29 229.63 769.34 238.30 C 575.83 431.86 382.09 625.18 188.56 818.72 C 187.42 820.06 185.73 820.60 184.14 821.22 C 183.12 821.46 182.13 821.81 181.19 822.26 C 179.58 822.80 178.01 823.68 176.26 823.60 C 172.72 823.16 168.90 823.86 165.58 822.35 C 164.84 820.28 165.41 818.07 165.78 815.99 C 167.76 806.71 170.69 797.65 172.48 788.33 C 172.92 786.31 172.71 784.25 172.39 782.24 L 172.35 781.80 C 181.50 773.51 189.82 764.33 198.72 755.77 C 379.71 574.75 560.83 393.86 741.74 212.76 Z" />
</g>
<g id="#e7a980ff">
<path fill="#e7a980" opacity="1.00" d=" M 72.18 709.17 C 72.61 707.96 73.10 706.78 73.70 705.66 C 72.67 712.75 70.10 719.70 70.65 726.97 C 70.74 728.60 71.21 730.68 73.08 731.12 C 86.74 732.95 100.50 728.54 114.10 731.07 L 114.09 731.82 C 109.44 737.06 106.19 743.31 101.90 748.83 C 82.73 776.63 63.40 804.31 44.22 832.11 C 43.30 833.36 42.33 834.59 41.36 835.82 C 35.91 835.09 30.47 837.30 25.08 835.83 C 31.85 817.13 39.03 798.56 45.84 779.87 C 47.08 776.99 47.95 773.98 49.20 771.11 C 50.05 768.68 50.97 766.29 51.80 763.87 C 52.28 762.63 52.76 761.40 53.27 760.20 C 53.76 758.73 54.29 757.30 54.80 755.86 C 55.27 754.61 55.74 753.38 56.25 752.17 C 56.76 750.72 57.28 749.28 57.78 747.85 C 58.27 746.60 58.76 745.36 59.26 744.14 C 59.74 742.69 60.26 741.26 60.77 739.84 C 61.27 738.61 61.74 737.36 62.22 736.13 C 62.72 734.70 63.26 733.28 63.75 731.85 C 64.22 730.61 64.71 729.38 65.22 728.16 C 65.50 727.12 65.86 726.12 66.30 725.17 C 67.36 722.02 68.69 718.98 69.73 715.84 C 70.18 714.56 70.64 713.32 71.16 712.09 C 71.42 711.08 71.76 710.11 72.18 709.17 Z" />
</g>
<g id="#e29663ff">
<path fill="#e29663" opacity="1.00" d=" M 101.90 748.83 C 106.19 743.31 109.44 737.06 114.09 731.82 C 115.54 741.17 112.89 750.43 111.55 759.63 C 110.49 767.04 108.55 774.43 108.73 781.95 C 108.97 785.59 113.31 785.66 116.03 786.07 C 127.59 786.53 138.98 784.05 150.38 782.46 C 157.62 781.56 165.16 779.76 172.35 781.80 L 172.39 782.24 C 156.98 791.44 142.07 801.45 126.79 810.86 C 108.92 822.29 90.91 833.51 73.02 844.91 C 68.17 847.64 63.84 851.28 58.73 853.55 C 52.29 853.05 45.95 854.75 39.51 854.27 C 38.63 847.97 42.37 842.11 41.36 835.82 C 42.33 834.59 43.30 833.36 44.22 832.11 C 63.40 804.31 82.73 776.63 101.90 748.83 Z" />
</g>
<g id="#cf804bff">
<path fill="#cf804b" opacity="1.00" d=" M 126.79 810.86 C 142.07 801.45 156.98 791.44 172.39 782.24 C 172.71 784.25 172.92 786.31 172.48 788.33 C 170.69 797.65 167.76 806.71 165.78 815.99 C 165.41 818.07 164.84 820.28 165.58 822.35 C 168.90 823.86 172.72 823.16 176.26 823.60 L 176.78 824.18 C 174.03 824.71 171.51 825.93 168.86 826.79 C 166.20 827.85 163.51 828.85 160.81 829.79 C 151.63 833.37 142.34 836.63 133.15 840.17 C 112.07 847.94 91.05 855.91 69.98 863.70 C 66.08 865.34 61.90 866.33 58.21 868.44 L 57.71 868.32 C 57.15 868.18 56.01 867.89 55.44 867.75 C 56.71 863.06 59.21 858.55 58.73 853.55 C 63.84 851.28 68.17 847.64 73.02 844.91 C 90.91 833.51 108.92 822.29 126.79 810.86 Z" />
</g>
<g id="#000000ff">
<path fill="#000000" opacity="1.00" d=" M 5.49 887.56 C 12.36 870.46 18.35 852.99 25.08 835.83 C 30.47 837.30 35.91 835.09 41.36 835.82 C 42.37 842.11 38.63 847.97 39.51 854.27 C 45.95 854.75 52.29 853.05 58.73 853.55 C 59.21 858.55 56.71 863.06 55.44 867.75 C 56.01 867.89 57.15 868.18 57.71 868.32 C 40.36 874.59 23.01 881.56 5.49 887.56 Z" />
</g>
</svg>
