<?xml version="1.0" encoding="utf-8"?>
<!-- Generator: Adobe Illustrator 16.0.0, SVG Export Plug-In . SVG Version: 6.00 Build 0)  -->
<!DOCTYPE svg PUBLIC "-//W3C//DTD SVG 1.1//EN" "http://www.w3.org/Graphics/SVG/1.1/DTD/svg11.dtd">
<svg version="1.1" id="Layer_1" xmlns="http://www.w3.org/2000/svg" xmlns:xlink="http://www.w3.org/1999/xlink" x="0px" y="0px"
	 width="19px" height="19px" viewBox="0 0 19 19" enable-background="new 0 0 19 19" xml:space="preserve">
<g>
	<polygon fill="none" points="10.045,13.502 10.055,13.494 10.045,13.5 	"/>
	<path fill="none" d="M9.975,13.502c-1.066-0.889-1.656-1.382-2.023-1.69c-0.486-0.41-0.584-0.496-0.873-0.749
		c-0.001,0-0.001,0-0.002-0.001C7.587,11.507,7.496,11.438,9.975,13.502z"/>
	<path fill="none" d="M12.527,11.417c0.2-0.17,0.387-0.33,0.527-0.452c-0.164,0.143-0.388,0.333-0.629,0.538
		C12.46,11.474,12.494,11.445,12.527,11.417z"/>
	<polygon fill="none" points="6.963,10.963 6.961,10.962 6.963,10.963 	"/>
	<path fill="none" d="M7.072,11.058L7.072,11.058c-0.014-0.012-0.03-0.026-0.044-0.039C7.043,11.032,7.059,11.046,7.072,11.058z"/>
	<path fill="#FFFFFF" d="M16.281,13.498c-0.496-1.052-1.033-1.681-2.477-2.189c0,0-0.22-0.071-0.468-0.19
		c-0.098-0.049-0.194-0.099-0.282-0.153c-0.141,0.122-0.327,0.281-0.527,0.452c-0.033,0.027-0.067,0.057-0.102,0.086
		c0.241-0.205,0.465-0.395,0.629-0.538c-0.029-0.019-0.059-0.037-0.088-0.056c-0.287-0.188-0.525-0.401-0.719-0.634
		c0-0.004-0.008-0.008-0.008-0.012c-0.016-0.016-0.027-0.032-0.041-0.049c-0.309-0.396-0.502-0.841-0.621-1.272
		c0.123-0.142,0.254-0.307,0.393-0.498c0.07-0.097,0.145-0.201,0.221-0.313c0.279-0.415,0.482-0.896,0.58-1.405
		c0.023-0.125,0.047-0.256,0.066-0.389c0.295-1.169,0.416-2.377-0.035-3.541C12.32,1.559,10.621,0.562,8.51,1.446
		C6.102,2.822,7.18,6.339,7.18,6.339c0.023,0.133,0.043,0.264,0.068,0.389c0.1,0.509,0.297,0.99,0.58,1.405
		c0.057,0.082,0.111,0.159,0.164,0.234c0.162,0.224,0.311,0.415,0.453,0.577c-0.207,0.706-0.631,1.46-1.471,2.01
		c-0.252,0.159-0.537,0.3-0.861,0.4c-1.441,0.509-2.191,1.035-2.545,2.144c-0.16,0.512-0.246,1.086-0.289,1.71
		c1.762,1.451,4.027,2.321,6.49,2.321c2.65,0,5.066-1.008,6.885-2.661C16.58,14.339,16.463,13.876,16.281,13.498z M10.045,13.502
		V13.5c0.004,0,0.007-0.004,0.01-0.006C10.053,13.495,10.045,13.502,10.045,13.502z M7.951,11.812
		c0.367,0.309,0.957,0.802,2.023,1.69c-2.479-2.064-2.388-1.995-2.898-2.44c0.001,0,0.001,0,0.002,0.001
		C7.367,11.315,7.465,11.401,7.951,11.812z M7.072,11.058c-0.014-0.012-0.029-0.026-0.044-0.039
		C7.042,11.032,7.059,11.046,7.072,11.058L7.072,11.058z M6.963,10.963L6.963,10.963c-0.001,0-0.001-0.001-0.002-0.001
		C6.962,10.962,6.962,10.963,6.963,10.963z"/>
</g>
</svg>
