<?xml version="1.0" encoding="utf-8"?>
<!-- Generator: Adobe Illustrator 16.0.0, SVG Export Plug-In . SVG Version: 6.00 Build 0)  -->
<!DOCTYPE svg PUBLIC "-//W3C//DTD SVG 1.1//EN" "http://www.w3.org/Graphics/SVG/1.1/DTD/svg11.dtd">
<svg version="1.1" id="Layer_1" xmlns="http://www.w3.org/2000/svg" xmlns:xlink="http://www.w3.org/1999/xlink" x="0px" y="0px"
	 width="11px" height="14px" viewBox="0 0 11 14" enable-background="new 0 0 11 14" xml:space="preserve">
<g>
	<path fill="none" d="M5.675,10.443C5.067,9.937,4.659,9.596,4.366,9.351C4.66,9.597,5.062,9.932,5.675,10.443z"/>
	<path fill="none" d="M5.732,10.442L5.732,10.442C5.744,10.434,5.744,10.434,5.732,10.442z"/>
	<path fill="none" d="M3.365,8.499C3.365,8.498,3.365,8.498,3.365,8.499C3.365,8.498,3.365,8.499,3.365,8.499z"/>
	<path fill="#FFFFFF" d="M10.699,10.44c-0.523-1.109-1.303-1.396-2.347-1.896c-0.359-0.18-0.634-0.426-0.905-0.719
		C7.27,7.599,7.134,7.342,7.035,7.072C6.893,6.685,7.225,6.488,7.44,6.167c0.759-1.11,1.04-3.237,0.397-4.443
		C7.197,0.522,5.659,0.36,4.51,0.842C3.176,1.604,3.07,3.354,3.437,4.69C3.553,5.114,3.599,5.515,3.811,5.91
		C4.111,6.469,4.582,6.66,4.271,7.3C3.688,8.498,2.577,8.58,1.556,9.203c-0.682,0.415-1.775,2.179-0.975,2.789
		c0.98,0.747,2.129,1.265,3.339,1.504c2.518,0.499,5.177-0.237,7.076-1.963C10.936,11.11,10.843,10.741,10.699,10.44
		C10.304,9.603,10.843,10.741,10.699,10.44z"/>
</g>
</svg>
