<?xml version="1.0" encoding="utf-8"?>
<!-- Generator: Adobe Illustrator 16.0.0, SVG Export Plug-In . SVG Version: 6.00 Build 0)  -->
<!DOCTYPE svg PUBLIC "-//W3C//DTD SVG 1.1//EN" "http://www.w3.org/Graphics/SVG/1.1/DTD/svg11.dtd">
<svg version="1.1" id="Layer_1" xmlns="http://www.w3.org/2000/svg" xmlns:xlink="http://www.w3.org/1999/xlink" x="0px" y="0px"
	 width="20px" height="20px" viewBox="0 0 20 20" enable-background="new 0 0 20 20" xml:space="preserve">
<g>
	<path fill-rule="evenodd" clip-rule="evenodd" fill="#FFFFFF" d="M9.922,0.186c5.457,0.003,9.894,4.446,9.893,9.91
		c-0.001,5.472-4.443,9.907-9.922,9.904C4.425,19.998-0.005,15.55,0,10.066C0.005,4.612,4.453,0.183,9.922,0.186z M9.898,19.183
		c5.019-0.032,9.088-4.033,9.09-9.089c0.002-5.009-4.008-9.066-9.062-9.082c-4.993-0.016-9.089,3.983-9.101,9.066
		C0.814,15.082,4.822,19.135,9.898,19.183z"/>
	<path fill-rule="evenodd" clip-rule="evenodd" fill="#FFFFFF" d="M3.824,9.722c4.057,0,8.1,0,12.162,0c0,0.256,0,0.513,0,0.785
		c-4.049,0-8.1,0-12.162,0C3.824,10.251,3.824,10,3.824,9.722z"/>
	<path fill-rule="evenodd" clip-rule="evenodd" fill="#FFFFFF" d="M9.514,16.196c0-4.057,0-8.101,0-12.162c0.256,0,0.512,0,0.783,0
		c0,4.049,0,8.099,0,12.162C10.041,16.196,9.791,16.196,9.514,16.196z"/>
</g>
</svg>
