<?xml version="1.0" encoding="utf-8"?>
<!-- Generator: Adobe Illustrator 16.0.0, SVG Export Plug-In . SVG Version: 6.00 Build 0)  -->
<!DOCTYPE svg PUBLIC "-//W3C//DTD SVG 1.1//EN" "http://www.w3.org/Graphics/SVG/1.1/DTD/svg11.dtd">
<svg version="1.1" id="Layer_1" xmlns="http://www.w3.org/2000/svg" xmlns:xlink="http://www.w3.org/1999/xlink" x="0px" y="0px"
	 width="34px" height="34.002px" viewBox="0 0 34 34.002" enable-background="new 0 0 34 34.002" xml:space="preserve">
<g>
	<path fill="#FFFFFF" d="M17.01,1.002C8.168,1.002,1,8.171,1,17.015s7.168,16.013,16.01,16.013c8.844,0,16.014-7.169,16.014-16.013
		S25.854,1.002,17.01,1.002z M17.01,31.001c-7.854,0-14.219-6.367-14.219-14.221c0-7.854,6.365-14.222,14.219-14.222
		c7.855,0,14.223,6.367,14.223,14.222C31.232,24.634,24.865,31.001,17.01,31.001z"/>
	<g>
		<line fill="#FFFFFF" stroke="#FFFFFF" stroke-miterlimit="10" x1="17.021" y1="7.049" x2="17.021" y2="26.526"/>
		<line fill="#FFFFFF" stroke="#FFFFFF" stroke-miterlimit="10" x1="26.718" y1="16.75" x2="7.319" y2="16.75"/>
	</g>
</g>
</svg>
