<?xml version="1.0" encoding="utf-8"?>
<!-- Generator: Adobe Illustrator 16.0.0, SVG Export Plug-In . SVG Version: 6.00 Build 0)  -->
<!DOCTYPE svg PUBLIC "-//W3C//DTD SVG 1.1//EN" "http://www.w3.org/Graphics/SVG/1.1/DTD/svg11.dtd">
<svg version="1.1" id="Layer_1" xmlns="http://www.w3.org/2000/svg" xmlns:xlink="http://www.w3.org/1999/xlink" x="0px" y="0px"
	 width="27.473px" height="28.897px" viewBox="0 0 27.473 28.897" enable-background="new 0 0 27.473 28.897" xml:space="preserve">
<g>
	<g>
		<path fill="#FFFFFF" d="M19.914,18.073c-0.496-1.052-1.031-1.681-2.475-2.189c0,0-0.414-0.132-0.752-0.343
			c-0.039,0.05-3.008,2.536-3.008,2.536h-0.07c-2.65-2.207-2.363-1.976-3.014-2.54c0.004-0.003,0.008-0.005,0.014-0.008
			c-0.252,0.159-0.539,0.3-0.863,0.4c-1.439,0.509-2.189,1.035-2.545,2.144c-0.158,0.512-0.246,1.086-0.287,1.71
			c1.762,1.451,4.027,2.321,6.49,2.321c2.65,0,5.066-1.008,6.885-2.661C20.215,18.914,20.096,18.451,19.914,18.073z"/>
		<g>
			<path fill="#FFFFFF" d="M16.688,15.541c-0.83,0.723-3.008,2.536-3.008,2.536l0.955,0.986c0,0,1.842-2.497,2.381-3.346
				C16.9,15.662,16.791,15.603,16.688,15.541z"/>
			<path fill="#FFFFFF" d="M10.285,15.711c0.656,0.989,2.332,3.352,2.332,3.352l0.992-0.986c-2.646-2.203-2.363-1.976-3.014-2.539
				C10.498,15.599,10.396,15.657,10.285,15.711z"/>
			<path fill="#FFFFFF" d="M16.688,15.541c-0.029-0.019-0.057-0.037-0.088-0.056C16.631,15.504,16.658,15.522,16.688,15.541
				L16.688,15.541z"/>
		</g>
		<path fill="#FFFFFF" d="M16.6,15.485c-0.287-0.188-0.523-0.401-0.717-0.634c0-0.004-0.008-0.008-0.008-0.012
			c-0.018-0.016-0.027-0.032-0.041-0.049c-0.309-0.396-0.504-0.841-0.623-1.272c-0.84,0.972-1.324,0.931-1.566,0.931
			c-0.24,0-0.73,0.04-1.566-0.93c-0.205,0.706-0.629,1.46-1.469,2.01c-0.006,0.003-0.01,0.005-0.014,0.008
			c0.039,0.034,0.074,0.067,0.111,0.096v0.002c0,0,0.004,0.001,0.004,0.003c0.291,0.253,0.389,0.339,0.875,0.749
			c0.366,0.309,0.957,0.802,2.023,1.69h0.07v-0.002c0.004-0.001,0.008-0.005,0.014-0.009c0.176-0.148,2.199-1.835,2.994-2.525l0,0
			C16.658,15.522,16.631,15.503,16.6,15.485z"/>
		<path fill="#FFFFFF" d="M15.371,7.411c0,0-1.797,1.568-3.926,0.506c0.158,0.649-0.318,2.591-0.633,2.997
			c0.025,0.133,0.045,0.264,0.07,0.389c0.098,0.509,0.297,0.99,0.58,1.405c0.057,0.082,0.111,0.159,0.164,0.234
			c0.16,0.224,0.309,0.415,0.451,0.577c0.836,0.97,1.326,0.93,1.566,0.93c0.242,0,0.727,0.041,1.566-0.931
			c0.123-0.142,0.256-0.307,0.393-0.498c0.072-0.097,0.146-0.201,0.223-0.313c0.277-0.415,0.482-0.896,0.578-1.405
			c0.023-0.125,0.048-0.256,0.066-0.389C16.613,9.668,16.467,8.164,15.371,7.411z"/>
		<path fill="#FFFFFF" d="M16.471,10.914c0.297-1.169,0.416-2.377-0.035-3.54c-0.482-1.24-2.182-2.237-4.291-1.353
			c-2.408,1.376-1.332,4.893-1.332,4.893l0,0c0.314-0.406,0.791-2.348,0.633-2.997c2.129,1.063,3.926-0.506,3.926-0.506
			C16.467,8.164,16.613,9.668,16.471,10.914L16.471,10.914z"/>
		<circle fill="#FFFFFF" cx="13.62" cy="19.304" r="0.202"/>
		<circle fill="#FFFFFF" cx="13.62" cy="20.166" r="0.202"/>
		<circle fill="#FFFFFF" cx="13.62" cy="21.106" r="0.202"/>
	</g>
	<path fill="none" stroke="#FFFFFF" stroke-miterlimit="10" d="M26.742,22.051c0,3.31-2.24,5.991-5,5.991H5.816
		c-2.762,0-5-2.682-5-5.991V6.847c0-3.309,2.238-5.992,5-5.992h15.926c2.76,0,5,2.684,5,5.992V22.051z"/>
</g>
</svg>
