<?xml version="1.0" encoding="utf-8"?>
<!-- Generator: Adobe Illustrator 16.0.0, SVG Export Plug-In . SVG Version: 6.00 Build 0)  -->
<!DOCTYPE svg PUBLIC "-//W3C//DTD SVG 1.1//EN" "http://www.w3.org/Graphics/SVG/1.1/DTD/svg11.dtd">
<svg version="1.1" id="Layer_1" xmlns="http://www.w3.org/2000/svg" xmlns:xlink="http://www.w3.org/1999/xlink" x="0px" y="0px"
	 width="19px" height="19px" viewBox="0 0 19 19" enable-background="new 0 0 19 19" xml:space="preserve">
<g>
	<path fill-rule="evenodd" clip-rule="evenodd" fill="#FFFFFF" d="M6.576,1.515c0,0.234,0.019,0.453-0.003,0.668
		C6.53,2.558,6.218,2.815,5.812,2.819c-0.458,0.006-0.913,0.002-1.37,0.002C4.058,2.823,3.851,3.022,3.851,3.403
		c-0.001,4.252-0.001,8.502,0,12.752c0,0.412,0.195,0.607,0.606,0.607c3.407-0.002,6.813-0.004,10.219-0.006
		c0.388,0,0.589-0.195,0.589-0.584c0.002-3.063,0.003-6.125,0.001-9.186c-0.001-1.176-0.008-2.35-0.012-3.525
		c-0.004-0.469-0.173-0.641-0.647-0.641c-0.424,0-0.848,0.004-1.271,0c-0.502-0.004-0.799-0.305-0.801-0.805
		c-0.003-0.158,0-0.316,0-0.492c0.071-0.004,0.135-0.01,0.199-0.01c0.885,0,1.772,0,2.657,0c0.654,0.002,1.148,0.48,1.148,1.131
		c0.004,4.76,0.004,9.518,0,14.277c0,0.635-0.484,1.107-1.123,1.107c-3.908,0.002-7.817,0.002-11.727,0
		c-0.638,0-1.114-0.477-1.114-1.115c-0.003-4.752-0.003-9.504,0-14.258c0-0.664,0.489-1.143,1.156-1.143c0.879,0,1.759,0,2.637,0
		C6.435,1.515,6.499,1.515,6.576,1.515z"/>
	<g>
		<path fill-rule="evenodd" clip-rule="evenodd" fill="#FFFFFF" d="M13.369,5.347c-2.54,0-5.07,0-7.6,0
			C5.732,4.63,6.166,3.991,6.842,3.771c0.157-0.053,0.314-0.102,0.463-0.168c0.288-0.129,0.427-0.357,0.43-0.674
			C7.739,2.554,7.717,2.173,7.77,1.804c0.142-0.943,0.979-1.58,1.942-1.516c0.891,0.061,1.628,0.826,1.667,1.74
			c0.013,0.291,0.01,0.58,0.002,0.871c-0.007,0.361,0.161,0.6,0.488,0.736c0.092,0.039,0.184,0.076,0.279,0.098
			c0.681,0.16,1.035,0.615,1.168,1.273C13.341,5.114,13.351,5.226,13.369,5.347z M9.553,2.663c0.296,0.002,0.547-0.242,0.555-0.537
			c0.004-0.293-0.238-0.543-0.537-0.551c-0.305-0.008-0.56,0.24-0.56,0.545C9.011,2.409,9.262,2.661,9.553,2.663z"/>
		<path fill-rule="evenodd" clip-rule="evenodd" fill="#FFFFFF" d="M13.358,8.538c0,0.211,0,0.406,0,0.611c-2.746,0-5.479,0-8.229,0
			c0-0.197,0-0.396,0-0.611C7.864,8.538,10.604,8.538,13.358,8.538z"/>
		<path fill-rule="evenodd" clip-rule="evenodd" fill="#FFFFFF" d="M12.086,12.341c0,0.211,0,0.404,0,0.609
			c-2.318,0-4.631,0-6.956,0c0-0.195,0-0.395,0-0.609C7.439,12.341,9.757,12.341,12.086,12.341z"/>
		<path fill-rule="evenodd" clip-rule="evenodd" fill="#FFFFFF" d="M11.455,10.44c0,0.209,0,0.404,0,0.609c-2.111,0-4.21,0-6.325,0
			c0-0.195,0-0.396,0-0.609C7.23,10.44,9.334,10.44,11.455,10.44z"/>
		<path fill-rule="evenodd" clip-rule="evenodd" fill="#FFFFFF" d="M10.224,14.243c0,0.207,0,0.402,0,0.609
			c-1.704,0-3.396,0-5.101,0c0-0.205,0-0.4,0-0.609C6.818,14.243,8.513,14.243,10.224,14.243z"/>
		<path fill-rule="evenodd" clip-rule="evenodd" fill="#FFFFFF" d="M5.114,7.243c0-0.176-0.001-0.34,0-0.504
			c0-0.031,0.005-0.064,0.007-0.105c1.476,0,2.94,0,4.421,0c0,0.195,0,0.396,0,0.609C8.078,7.243,6.608,7.243,5.114,7.243z"/>
	</g>
</g>
</svg>
