<?xml version="1.0" encoding="utf-8"?>
<!-- Generator: Adobe Illustrator 16.0.0, SVG Export Plug-In . SVG Version: 6.00 Build 0)  -->
<!DOCTYPE svg PUBLIC "-//W3C//DTD SVG 1.1//EN" "http://www.w3.org/Graphics/SVG/1.1/DTD/svg11.dtd">
<svg version="1.1" id="Layer_1" xmlns="http://www.w3.org/2000/svg" xmlns:xlink="http://www.w3.org/1999/xlink" x="0px" y="0px"
	 width="24.731px" height="27.225px" viewBox="0 0 24.731 27.225" enable-background="new 0 0 24.731 27.225" xml:space="preserve">
<g>
	<path fill="#FFFFFF" d="M19.866,15.683H3.896c-2.148,0-3.896-1.749-3.896-3.896c0-2.148,1.748-3.897,3.896-3.897
		c0.423,0,0.836,0.068,1.229,0.199c0.556-2.983,3.193-5.265,6.323-5.265c2.58,0,4.873,1.537,5.887,3.836
		c0.756-0.46,1.627-0.707,2.531-0.707c2.684,0,4.865,2.181,4.865,4.865C24.731,13.499,22.55,15.683,19.866,15.683z M3.896,9.293
		c-1.375,0-2.492,1.117-2.492,2.493c0,1.374,1.117,2.493,2.492,2.493h15.971c1.906,0,3.461-1.552,3.461-3.461
		s-1.555-3.464-3.461-3.464c-0.895,0-1.742,0.342-2.39,0.961c-0.183,0.171-0.438,0.234-0.679,0.166
		c-0.238-0.068-0.424-0.259-0.486-0.498c-0.576-2.211-2.576-3.756-4.863-3.756c-2.732,0-4.984,2.221-5.025,4.953
		C6.421,9.439,6.272,9.675,6.04,9.793c-0.23,0.118-0.508,0.098-0.72-0.05C4.899,9.449,4.405,9.293,3.896,9.293z"/>
	<path fill="#FFFFFF" d="M5.387,23.916c-0.322,0.687-1.138,0.984-1.825,0.662c-0.687-0.319-0.982-1.137-0.664-1.824
		c0.32-0.684,1.568-1.185,2.791-2.737C5.353,21.969,5.708,23.229,5.387,23.916z"/>
	<path fill="#FFFFFF" d="M10.239,18.51c-0.232,0.495-0.825,0.712-1.323,0.48c-0.498-0.231-0.712-0.822-0.479-1.323
		c0.23-0.498,1.135-0.86,2.023-1.985C10.217,17.099,10.474,18.009,10.239,18.51z"/>
	<path fill="#FFFFFF" d="M19.013,18.51c-0.232,0.495-0.826,0.712-1.322,0.48c-0.5-0.231-0.715-0.822-0.482-1.323
		c0.231-0.498,1.137-0.86,2.022-1.985C18.987,17.099,19.243,18.009,19.013,18.51z"/>
	<path fill="#FFFFFF" d="M14.159,23.916c-0.32,0.687-1.138,0.984-1.826,0.662c-0.686-0.319-0.982-1.137-0.662-1.824
		c0.32-0.684,1.568-1.185,2.791-2.737C14.126,21.969,14.479,23.229,14.159,23.916z"/>
</g>
</svg>
