<svg xmlns="http://www.w3.org/2000/svg" width="48" height="48" viewBox="0 0 48 48"><defs><style>.a{fill:none;}.b{fill:#e8e8e8;}.c{fill:#666;}</style></defs><g transform="translate(-112 -223.999)"><rect class="a" width="48" height="48" transform="translate(112 223.999)"/><rect class="b" width="1" height="48" transform="translate(112 223.999)"/><path class="c" d="M.227,12.274a.775.775,0,0,1,0-1.1L5.155,6.25.227,1.322A.774.774,0,1,1,1.322.227L6.25,5.155,11.178.227a.774.774,0,1,1,1.095,1.095L7.345,6.25l4.928,4.928a.774.774,0,1,1-1.095,1.1L6.25,7.345,1.322,12.274a.774.774,0,0,1-1.095,0Z" transform="translate(129.75 241.749)"/></g></svg>