<svg xmlns="http://www.w3.org/2000/svg" width="20" height="20" viewBox="0 0 20 20">
			<defs>
				<style>
				  .cls-1 {
					fill: #666;
					fill-rule: evenodd;
				  }
				</style>
			</defs>
			<path id="document" class="cls-1" d="M2023.69,590.749h-7.38a0.625,0.625,0,0,0,0,1.25h7.38A0.625,0.625,0,0,0,2023.69,590.749Zm0-3.75h-7.38a0.626,0.626,0,0,0,0,1.251h7.38A0.626,0.626,0,0,0,2023.69,587Zm4.31,10h0V582.624a0.623,0.623,0,0,0-.62-0.624h-14.76a0.623,0.623,0,0,0-.62.624v18.75a0.624,0.624,0,0,0,.62.624h10.46v0l4.92-5v0Zm-4.92,3.459V597h3.4Zm3.69-4.71h-4.92v5h-8a0.623,0.623,0,0,1-.62-0.624v-16.25a0.625,0.625,0,0,1,.62-0.625h12.3a0.625,0.625,0,0,1,.62.625v11.874Z" transform="translate(-2010 -582)"></path>
		</svg>