<svg xmlns="http://www.w3.org/2000/svg" width="40" height="40" viewBox="0 0 40 40"><defs><style>.a{fill:none;}.b{fill:#666;stroke:rgba(0,0,0,0);}.c{fill:#e8e8e8;}</style></defs><g transform="translate(12 12)"><rect class="a" width="40" height="40" transform="translate(-12 -12)"/><path class="b" d="M.137,15.862a.471.471,0,0,1-.109-.494L2,9.951a.461.461,0,0,1,.11-.172L9.529,2.354l.666.667L3.329,9.895l1.06,1.061,6.866-6.874.666.667L5.055,11.623l1.06,1.061,6.818-6.826.666.667L6.233,13.9a.466.466,0,0,1-.174.11L.631,15.972a.471.471,0,0,1-.493-.111Zm1.121-1.119,1.005-.364-.64-.64Zm.722-1.981,1.262,1.264,2.117-.765L2.751,10.649ZM10.128,1.736,11.392.472a1.613,1.613,0,0,1,2.281,0l1.857,1.856a1.617,1.617,0,0,1,0,2.281L14.266,5.872Zm1.93-.6-.6.6,2.806,2.8.6-.6a.674.674,0,0,0,0-.949L13.007,1.138a.671.671,0,0,0-.949,0Z"/><rect class="c" width="1" height="40" transform="translate(-12 -12)"/></g></svg>