<svg xmlns="http://www.w3.org/2000/svg" width="40" height="40" viewBox="0 0 40 40"><defs><style>.a{fill:none;}.b{fill:#666;fill-rule:evenodd;}</style></defs><g transform="translate(12 12)"><rect class="a" width="40" height="40" transform="translate(-12 -12)"/><path class="b" d="M14.586,8.1C7.973,14.021,7.965,14,7.965,14s0,.012-6.578-5.9a4.708,4.708,0,0,1,0-6.7C3.775-.991,6.1.063,7.986,1.753c1.881-1.69,4.23-2.724,6.6-.356A4.709,4.709,0,0,1,14.586,8.1Zm-.708-6.013A3.173,3.173,0,0,0,11.653,1a4.809,4.809,0,0,0-3,1.467l-.669.593-.669-.593A4.815,4.815,0,0,0,4.323,1,3.183,3.183,0,0,0,2.094,2.084,3.652,3.652,0,0,0,.986,4.71,3.583,3.583,0,0,0,2.055,7.263c3.528,3.13,5.16,4.809,5.915,5.476.752-.657,2.382-2.324,5.913-5.444a3.6,3.6,0,0,0,1.1-2.586A3.653,3.653,0,0,0,13.878,2.084Z" transform="translate(0.014 0.998)"/></g></svg>