<svg xmlns="http://www.w3.org/2000/svg" width="20" height="20" viewBox="0 0 20 20">
  <defs>
    <style>
      .cls-1 {
        fill: #666;
        fill-rule: evenodd;
      }
    </style>
  </defs>
  <path id="Z0gMSG" class="cls-1" d="M683.124,30h-6.249a0.625,0.625,0,1,0,0,1.25h6.249A0.625,0.625,0,1,0,683.124,30ZM680,20c-5.523,0-10,3.918-10,8.75a8.375,8.375,0,0,0,3.75,6.824V40l5.12-2.56c0.371,0.036.747,0.059,1.13,0.059,5.523,0,10-3.917,10-8.749S685.523,20,680,20Zm0,16.25c-1.435,0-1.25,0-1.25,0L675,38.125V34.864a7.213,7.213,0,0,1-3.751-6.114c0-4.142,3.918-7.5,8.751-7.5s8.749,3.358,8.749,7.5S684.832,36.25,680,36.25Zm4.374-10h-8.749a0.625,0.625,0,1,0,0,1.25h8.749A0.625,0.625,0,1,0,684.374,26.25Z" transform="translate(-670 -20)"/>
</svg>
