<?xml version="1.0" encoding="utf-8"?>
<!-- Generator: Adobe Illustrator 16.0.0, SVG Export Plug-In . SVG Version: 6.00 Build 0)  -->
<!DOCTYPE svg PUBLIC "-//W3C//DTD SVG 1.1//EN" "http://www.w3.org/Graphics/SVG/1.1/DTD/svg11.dtd">
<svg version="1.1" id="Layer_1" xmlns="http://www.w3.org/2000/svg" xmlns:xlink="http://www.w3.org/1999/xlink" x="0px" y="0px"
	 width="38.752px" height="27.225px" viewBox="0 0 38.752 27.225" enable-background="new 0 0 38.752 27.225" xml:space="preserve">
<g>
	<g>
		<path fill="#49CCDA" d="M31.388,12.451c-0.576-1.506-1.699-2.693-3.173-3.35c-0.778-0.348-1.606-0.524-2.457-0.524
			c-2.323,0-4.438,1.34-5.438,3.429c0.521,0.507,0.979,1.084,1.361,1.716c0.062-0.275,0.147-0.55,0.268-0.818
			c0.672-1.502,2.168-2.47,3.811-2.47c0.59,0,1.16,0.122,1.702,0.363c1.015,0.455,1.794,1.276,2.192,2.317
			c0.351,0.915,0.367,1.904,0.057,2.82c0.458,0.603,0.821,1.276,1.063,2.006c0.186-0.273,0.352-0.567,0.488-0.876
			C31.916,15.593,31.962,13.954,31.388,12.451z"/>
	</g>
	<g>
		<path fill="#49CCDA" d="M31.313,9.279c-0.22,0-0.438-0.078-0.614-0.234c-0.386-0.339-0.421-0.925-0.082-1.311l2.546-2.885
			c0.341-0.385,0.927-0.421,1.313-0.079c0.383,0.339,0.422,0.925,0.08,1.311l-2.548,2.885C31.826,9.172,31.569,9.279,31.313,9.279z"
			/>
		<path fill="#49CCDA" d="M26.562,6.977c-0.166,0.141-0.383,0.227-0.619,0.22c-0.512-0.009-0.92-0.431-0.91-0.942l0.066-3.847
			c0.008-0.514,0.43-0.923,0.944-0.913c0.513,0.009,0.921,0.431,0.911,0.942l-0.066,3.848C26.881,6.564,26.758,6.809,26.562,6.977z"
			/>
		<path fill="#49CCDA" d="M21.571,8.223c-0.038,0.214-0.152,0.415-0.34,0.56c-0.4,0.316-0.985,0.247-1.303-0.156L17.551,5.6
			c-0.316-0.403-0.248-0.985,0.155-1.304c0.404-0.314,0.988-0.244,1.306,0.156l2.377,3.025C21.562,7.697,21.619,7.969,21.571,8.223z
			"/>
		<path fill="#49CCDA" d="M31.968,19.12c-0.037-0.214,0-0.443,0.124-0.645c0.271-0.437,0.841-0.571,1.277-0.302l3.276,2.018
			c0.436,0.272,0.571,0.844,0.304,1.279c-0.271,0.438-0.841,0.571-1.279,0.302l-3.276-2.018
			C32.157,19.608,32.008,19.373,31.968,19.12z"/>
		<path fill="#49CCDA" d="M33.435,14.002c-0.17-0.142-0.289-0.339-0.326-0.571c-0.082-0.507,0.264-0.982,0.771-1.063l3.8-0.608
			c0.506-0.079,0.983,0.266,1.063,0.772c0.082,0.507-0.265,0.982-0.769,1.063l-3.802,0.608
			C33.896,14.247,33.631,14.164,33.435,14.002z"/>
		<path fill="#49CCDA" d="M31.313,9.279c-0.22,0-0.438-0.075-0.614-0.231c-0.384-0.342-0.421-0.928-0.082-1.313l2.546-2.885
			c0.339-0.385,0.927-0.421,1.313-0.079c0.383,0.339,0.42,0.925,0.08,1.311l-2.548,2.885C31.826,9.172,31.569,9.279,31.313,9.279z"
			/>
	</g>
</g>
<g>
	<path fill="#BABABA" d="M23.825,26.225H4.746C2.13,26.225,0,24.097,0,21.48s2.13-4.745,4.746-4.745c0.479,0,0.95,0.07,1.4,0.211
		c0.708-3.56,3.875-6.265,7.622-6.265c3.083,0,5.829,1.816,7.072,4.546c0.897-0.527,1.923-0.809,2.984-0.809
		c3.253,0,5.899,2.646,5.899,5.901C29.726,23.578,27.078,26.225,23.825,26.225z M4.746,18.591c-1.594,0-2.888,1.298-2.888,2.889
		s1.294,2.886,2.888,2.886h19.079c2.229,0,4.045-1.813,4.045-4.046c0-2.229-1.816-4.046-4.045-4.046c-1.047,0-2.038,0.4-2.794,1.121
		c-0.236,0.229-0.577,0.314-0.896,0.224c-0.316-0.093-0.563-0.34-0.645-0.66c-0.678-2.603-3.031-4.421-5.724-4.421
		c-3.213,0-5.865,2.616-5.912,5.829c-0.005,0.345-0.198,0.655-0.506,0.812c-0.305,0.159-0.673,0.131-0.954-0.063
		C5.91,18.771,5.339,18.591,4.746,18.591z"/>
</g>
</svg>
