<?xml version="1.0" encoding="utf-8"?>
<!-- Generator: Adobe Illustrator 16.0.0, SVG Export Plug-In . SVG Version: 6.00 Build 0)  -->
<!DOCTYPE svg PUBLIC "-//W3C//DTD SVG 1.1//EN" "http://www.w3.org/Graphics/SVG/1.1/DTD/svg11.dtd">
<svg version="1.1" id="Layer_1" xmlns="http://www.w3.org/2000/svg" xmlns:xlink="http://www.w3.org/1999/xlink" x="0px" y="0px"
	 width="24.73px" height="27.225px" viewBox="0 0 24.73 27.225" enable-background="new 0 0 24.73 27.225" xml:space="preserve">
<g>
	<path fill="#BABABA" d="M19.866,15.683H3.896C1.748,15.683,0,13.934,0,11.787C0,9.639,1.748,7.89,3.896,7.89
		c0.423,0,0.836,0.068,1.229,0.199c0.556-2.983,3.192-5.265,6.323-5.265c2.579,0,4.872,1.536,5.887,3.836
		c0.756-0.46,1.627-0.707,2.531-0.707c2.684,0,4.864,2.181,4.864,4.864C24.731,13.499,22.55,15.683,19.866,15.683z M3.896,9.293
		c-1.375,0-2.492,1.117-2.492,2.493c0,1.374,1.117,2.492,2.492,2.492h15.972c1.905,0,3.461-1.552,3.461-3.461
		c0-1.908-1.556-3.464-3.461-3.464c-0.896,0-1.742,0.342-2.391,0.961c-0.183,0.171-0.438,0.234-0.679,0.166
		c-0.238-0.067-0.424-0.259-0.486-0.498c-0.576-2.211-2.576-3.756-4.862-3.756c-2.732,0-4.984,2.222-5.025,4.953
		C6.421,9.439,6.272,9.675,6.04,9.793C5.81,9.911,5.532,9.891,5.32,9.743C4.899,9.449,4.405,9.293,3.896,9.293z"/>
	<path fill="#BABABA" d="M5.387,23.916c-0.322,0.687-1.138,0.983-1.825,0.662c-0.687-0.319-0.981-1.138-0.664-1.824
		c0.32-0.685,1.568-1.186,2.791-2.737C5.353,21.969,5.708,23.229,5.387,23.916z"/>
	<path fill="#BABABA" d="M10.24,18.51c-0.232,0.495-0.825,0.712-1.323,0.48s-0.712-0.822-0.479-1.323
		c0.23-0.498,1.135-0.86,2.023-1.985C10.217,17.099,10.474,18.009,10.24,18.51z"/>
	<path fill="#BABABA" d="M19.013,18.51c-0.231,0.495-0.826,0.712-1.322,0.48c-0.5-0.231-0.715-0.822-0.481-1.323
		c0.23-0.498,1.137-0.86,2.021-1.985C18.987,17.099,19.243,18.009,19.013,18.51z"/>
	<path fill="#BABABA" d="M14.159,23.916c-0.32,0.687-1.139,0.983-1.826,0.662c-0.687-0.319-0.982-1.138-0.662-1.824
		c0.32-0.685,1.568-1.186,2.791-2.737C14.126,21.969,14.479,23.229,14.159,23.916z"/>
</g>
</svg>
