<?xml version="1.0" encoding="utf-8"?>
<!-- Generator: Adobe Illustrator 16.0.0, SVG Export Plug-In . SVG Version: 6.00 Build 0)  -->
<!DOCTYPE svg PUBLIC "-//W3C//DTD SVG 1.1//EN" "http://www.w3.org/Graphics/SVG/1.1/DTD/svg11.dtd">
<svg version="1.1" id="Layer_1" xmlns="http://www.w3.org/2000/svg" xmlns:xlink="http://www.w3.org/1999/xlink" x="0px" y="0px"
	 width="27.952px" height="27.788px" viewBox="0 0 27.952 27.788" enable-background="new 0 0 27.952 27.788" xml:space="preserve">
<g>
	<path fill="#F3C451" d="M13.854,20.385c-3.739,0-6.78-3.04-6.78-6.778c0-3.741,3.041-6.781,6.78-6.781l0,0
		c1.81,0,3.513,0.705,4.793,1.985s1.985,2.983,1.985,4.796C20.633,17.345,17.592,20.385,13.854,20.385z M13.854,8.535
		c-2.796,0-5.073,2.276-5.073,5.072c0,2.796,2.277,5.069,5.073,5.069c2.795,0,5.069-2.273,5.069-5.069
		c0-1.355-0.527-2.63-1.485-3.587C16.481,9.061,15.208,8.535,13.854,8.535z"/>
	<g>
		<path fill="#F3C451" d="M16.59,5.739c-0.084,0-0.171-0.012-0.254-0.039c-0.451-0.14-0.701-0.618-0.563-1.07l1.258-4.032
			c0.141-0.449,0.618-0.701,1.07-0.559c0.449,0.14,0.701,0.618,0.561,1.07l-1.258,4.029C17.291,5.504,16.953,5.739,16.59,5.739z"/>
		<path fill="#F3C451" d="M10.846,5.849c-0.064,0.054-0.138,0.098-0.22,0.134c-0.434,0.184-0.937-0.015-1.12-0.452L7.85,1.647
			c-0.187-0.434,0.018-0.936,0.451-1.12C8.734,0.34,9.235,0.545,9.422,0.979l1.654,3.884C11.227,5.216,11.122,5.614,10.846,5.849z"
			/>
		<path fill="#F3C451" d="M6.62,9.513C6.604,9.596,6.576,9.676,6.535,9.753c-0.219,0.419-0.736,0.579-1.152,0.359L1.645,8.146
			C1.228,7.929,1.065,7.412,1.285,6.993c0.223-0.419,0.738-0.576,1.154-0.359l3.738,1.967C6.517,8.779,6.686,9.153,6.62,9.513z"/>
		<path fill="#F3C451" d="M5.707,15.23c0.041,0.071,0.074,0.154,0.095,0.237c0.105,0.461-0.182,0.921-0.642,1.025l-4.113,0.951
			c-0.46,0.104-0.921-0.181-1.024-0.639c-0.106-0.463,0.18-0.921,0.64-1.028l4.115-0.948C5.15,14.742,5.523,14.915,5.707,15.23z"/>
		<path fill="#F3C451" d="M8.602,20.038c0.078,0.03,0.154,0.071,0.225,0.125c0.373,0.288,0.443,0.823,0.155,1.197l-2.573,3.349
			c-0.287,0.371-0.825,0.442-1.197,0.154c-0.375-0.285-0.444-0.823-0.156-1.198l2.574-3.346C7.861,20.017,8.26,19.913,8.602,20.038z
			"/>
		<path fill="#F3C451" d="M14.016,21.916c0.078-0.03,0.163-0.047,0.252-0.053c0.471-0.021,0.872,0.341,0.893,0.814l0.203,4.22
			c0.021,0.469-0.342,0.871-0.814,0.891c-0.47,0.024-0.869-0.339-0.893-0.811l-0.201-4.22
			C13.438,22.376,13.674,22.041,14.016,21.916z"/>
		<path fill="#F3C451" d="M19.314,19.883c0.042-0.075,0.096-0.143,0.158-0.202c0.348-0.321,0.889-0.3,1.207,0.047l2.867,3.105
			c0.318,0.344,0.297,0.885-0.05,1.206c-0.347,0.321-0.887,0.297-1.208-0.05l-2.863-3.103
			C19.164,20.608,19.131,20.198,19.314,19.883z"/>
		<path fill="#F3C451" d="M22.068,14.962c-0.014-0.083-0.014-0.169-0.005-0.259c0.063-0.466,0.493-0.796,0.96-0.731l4.188,0.556
			c0.469,0.063,0.797,0.49,0.732,0.957c-0.061,0.469-0.49,0.796-0.957,0.734l-4.188-0.553
			C22.418,15.613,22.131,15.322,22.068,14.962z"/>
		<path fill="#F3C451" d="M20.97,9.278c-0.065-0.053-0.123-0.119-0.173-0.193c-0.256-0.395-0.145-0.924,0.248-1.183l3.538-2.309
			c0.396-0.255,0.923-0.146,1.183,0.247c0.258,0.395,0.147,0.924-0.248,1.183L21.98,9.332C21.659,9.542,21.252,9.51,20.97,9.278z"/>
		<path fill="#F3C451" d="M16.59,5.739c-0.084,0-0.171-0.012-0.256-0.039c-0.449-0.14-0.702-0.618-0.561-1.07l1.26-4.032
			c0.139-0.449,0.616-0.701,1.068-0.559c0.449,0.14,0.701,0.618,0.561,1.07l-1.258,4.029C17.288,5.504,16.953,5.739,16.59,5.739z"/>
	</g>
</g>
</svg>
