<?xml version="1.0" encoding="utf-8"?>
<!-- Generator: Adobe Illustrator 16.0.0, SVG Export Plug-In . SVG Version: 6.00 Build 0)  -->
<!DOCTYPE svg PUBLIC "-//W3C//DTD SVG 1.1//EN" "http://www.w3.org/Graphics/SVG/1.1/DTD/svg11.dtd">
<svg version="1.1" id="Layer_1" xmlns="http://www.w3.org/2000/svg" xmlns:xlink="http://www.w3.org/1999/xlink" x="0px" y="0px"
	 width="32.591px" height="27.225px" viewBox="0 0 32.591 27.225" enable-background="new 0 0 32.591 27.225" xml:space="preserve">
<polygon fill="#00FF9B" points="3.405,23.421 7.112,23.421 7.112,17.621 3.405,20.542 "/>
<polygon fill="#00FF9B" points="22.321,13.718 22.321,23.421 26.028,23.421 26.028,10.796 "/>
<polygon fill="#00FF9B" points="17.647,17.459 17.592,17.503 17.592,23.421 21.3,23.421 21.3,14.522 17.619,17.422 "/>
<polygon fill="#00FF9B" points="14.478,19.897 14.477,19.898 12.862,17.851 12.862,23.421 16.571,23.421 16.571,18.3 14.494,19.919 
	"/>
<polygon fill="#00FF9B" points="8.134,16.816 8.134,23.421 11.842,23.421 11.842,16.52 10.573,14.894 "/>
<polygon fill="#00FF9B" points="27.208,0.814 21.825,1.628 23.976,4.322 22.321,5.625 21.3,6.43 17.592,9.351 16.571,10.155 
	15.158,11.268 13.716,9.418 13.768,9.377 12.862,8.229 11.842,6.933 11.292,6.235 8.134,8.724 7.112,9.528 3.405,12.449 0,15.132 
	2.476,18.273 3.405,17.542 7.112,14.621 8.134,13.816 10.573,11.894 11.842,13.52 12.017,13.744 12,13.756 12.862,14.851 
	14.477,16.898 14.478,16.897 14.494,16.919 16.571,15.3 17.592,14.503 17.647,14.459 17.619,14.422 21.3,11.522 22.321,10.718 
	26.028,7.796 26.471,7.449 28.616,10.137 30.603,5.068 32.591,0 "/>
</svg>
