<svg xmlns="http://www.w3.org/2000/svg" width="40" height="40" viewBox="0 0 40 40">
  <defs>
    <style>
      .cls-1 {
        fill: #666;
        fill-rule: evenodd;
      }
    </style>
  </defs>
  <path id="Access" class="cls-1" d="M3285.99,128.8c0.15-1.934-1.58-3.2-3.16-3.753a28.158,28.158,0,0,0-13.2-1V120h-2.72c-6.96,1.27-13.94,2.484-20.91,3.73v32.549c6.93,1.247,13.87,2.428,20.8,3.721h2.83v-5.009a28.261,28.261,0,0,0,13.14-.968c1.6-.548,3.38-1.8,3.22-3.763Q3286.005,139.531,3285.99,128.8Zm-26.2,18.6c-0.28-1.165-.57-2.326-0.88-3.484-1.39-.008-2.78-0.048-4.18-0.121-0.27,1.1-.54,2.2-0.82,3.3-0.88-.07-1.77-0.135-2.66-0.2,1.33-4.9,2.71-9.776,4.03-14.674,1.06-.079,2.11-0.154,3.18-0.237,1.52,5.209,2.96,10.446,4.47,15.66C3261.88,147.581,3260.83,147.5,3259.79,147.405Zm9.84-21.935a27.972,27.972,0,0,1,12.23.679c1.09,0.414,2.54.911,2.79,2.237-0.18,1.084-1.29,1.572-2.16,1.963a26.908,26.908,0,0,1-12.86.9V125.47Zm0,14.7a35.444,35.444,0,0,0,9.34-.023h0a11.3,11.3,0,0,0,5.67-2.069c-0.09,2,.15,4.009-0.12,5.99a6.118,6.118,0,0,1-3.25,1.689,31.914,31.914,0,0,1-11.64.446v-6.033Zm14.88,11.35c-1.29,1.432-3.33,1.7-5.1,2.065a32.653,32.653,0,0,1-9.8.037c0.03-2,.02-4,0.02-6.009a35.378,35.378,0,0,0,9.32-.024h0a11.32,11.32,0,0,0,5.69-2.069C3284.55,147.512,3284.79,149.535,3284.51,151.517Zm0-14.88a6.241,6.241,0,0,1-3.27,1.684,31.844,31.844,0,0,1-11.61.432v-6.027a35.69,35.69,0,0,0,9.31-.019,11.361,11.361,0,0,0,5.7-2.074A60.036,60.036,0,0,1,3284.51,136.637Zm-29.21,4.652c1,0.008,2,.013,3.01.018-0.52-2.177-1.15-4.325-1.56-6.53C3256.44,136.986,3255.76,139.111,3255.3,141.289Z" transform="translate(-3246 -120)"/>
</svg>
