<svg xmlns="http://www.w3.org/2000/svg" width="40" height="40" viewBox="0 0 40 40">
  <defs>
    <style>
      .cls-1 {
        fill: #666;
        fill-rule: evenodd;
      }
    </style>
  </defs>
  <path id="Android" class="cls-1" d="M3919.75,147.223a2.29,2.29,0,0,1-2.25-2.323v-9.937a2.251,2.251,0,1,1,4.5,0V144.9A2.29,2.29,0,0,1,3919.75,147.223Zm-6.13,4.9h-1.71a2.278,2.278,0,0,1,.09.644v4.9a2.251,2.251,0,1,1-4.5,0v-4.9a2.278,2.278,0,0,1,.09-0.644h-4.18a2.278,2.278,0,0,1,.09.644v4.9a2.251,2.251,0,1,1-4.5,0v-4.9a2.278,2.278,0,0,1,.09-0.644h-1.71a2.422,2.422,0,0,1-2.38-2.454V132.64h21v17.034A2.422,2.422,0,0,1,3913.62,152.128Zm-13.28-28.786-0.43-.654-0.41-.645-0.94-1.449a0.393,0.393,0,0,1,.11-0.536,0.369,0.369,0,0,1,.52.107l1,1.553,0.42,0.653,0.43,0.662a12.166,12.166,0,0,1,8.92,0l0.43-.662,0.42-.653,1-1.553a0.368,0.368,0,0,1,.52-0.107,0.393,0.393,0,0,1,.11.536l-0.94,1.449-0.41.645-0.43.654a8.785,8.785,0,0,1,5.34,7.749h-21A8.785,8.785,0,0,1,3900.34,123.342Zm9.66,4.652a1.162,1.162,0,1,0-1.12-1.162A1.141,1.141,0,0,0,3910,127.994Zm-9,0a1.162,1.162,0,1,0-1.12-1.162A1.149,1.149,0,0,0,3901,127.994Zm-9.75,19.229A2.29,2.29,0,0,1,3889,144.9v-9.937a2.251,2.251,0,1,1,4.5,0V144.9A2.29,2.29,0,0,1,3891.25,147.223Z" transform="translate(-3885.5 -120)"/>
</svg>
