<svg xmlns="http://www.w3.org/2000/svg" width="40" height="40" viewBox="0 0 40 40">
  <defs>
    <style>
      .cls-1 {
        fill: #666;
        fill-rule: evenodd;
      }
    </style>
  </defs>
  <path id="Apple" class="cls-1" d="M3837.23,141.25c0.05,6.051,5.7,8.063,5.76,8.091a21.378,21.378,0,0,1-2.97,5.69c-1.8,2.438-3.65,4.863-6.58,4.912-2.88.051-3.8-1.588-7.09-1.588s-4.32,1.539-7.04,1.639c-2.83.1-4.98-2.631-6.79-5.06-3.69-4.967-6.51-14.037-2.72-20.157a10.65,10.65,0,0,1,8.89-5.017c2.77-.046,5.4,1.742,7.09,1.742s4.88-2.15,8.23-1.834a10.32,10.32,0,0,1,7.86,3.962C3841.66,133.753,3837.17,136.182,3837.23,141.25Zm-11.79-12.038a8.064,8.064,0,0,1,2.28-6.19,9.883,9.883,0,0,1,6.33-3.029,8.447,8.447,0,0,1-2.23,6.388A8.237,8.237,0,0,1,3825.44,129.212Z" transform="translate(-3805.5 -120)"/>
</svg>
