<svg xmlns="http://www.w3.org/2000/svg" width="40" height="40" viewBox="0 0 40 40">
  <defs>
    <style>
      .cls-1 {
        fill: #666;
        fill-rule: evenodd;
      }
    </style>
  </defs>
  <path id="Behance" class="cls-1" d="M3672.24,130.428h9.96v2.485h-9.96v-2.485Zm13.73,14.716h-12.96c0.14,3.073,1.67,4.2,4.41,4.2,1.99,0,3.59-.618,3.9-1.712h3.95c-1.39,4.165-3.95,5.363-8.02,5.363-5.66,0-9.17-3.822-9.17-9.281a8.925,8.925,0,0,1,9.17-9.319C3683.37,134.4,3686.32,139.718,3685.97,145.144Zm-12.96-3.608h8.03c-0.45-2.456-1.53-3.483-3.93-3.483C3673.98,138.053,3673.08,140.173,3673.01,141.536Zm-6.23,3.919c0,4.95-4.28,7.068-8.76,7.068H3646V128h11.68c4.72,0,7.92,1.655,7.92,6.193a5.352,5.352,0,0,1-3.37,5.088A5.961,5.961,0,0,1,3666.78,145.455Zm-10.68-13.33h-5.11v5.7h5.52c1.91,0,3.34-.853,3.34-2.9C3659.85,132.6,3658.04,132.125,3656.1,132.125Zm0.83,9.35h-5.94v6.69h5.83c2.16,0,4.03-.681,4.03-3.208C3660.85,142.466,3659.26,141.475,3656.93,141.475Z" transform="translate(-3646 -120.5)"/>
</svg>
