<svg xmlns="http://www.w3.org/2000/svg" width="40" height="40" viewBox="0 0 40 40">
  <defs>
    <style>
      .cls-1 {
        fill: #666;
        fill-rule: evenodd;
      }
    </style>
  </defs>
  <path id="Excel" class="cls-1" d="M3121.42,133.023h-6.36v3.256h6.36v-3.256Zm0-5.116h-6.36v3.256h6.36v-3.256Zm4.55,22.814q-0.015-12.1.01-24.214a4.327,4.327,0,0,0-.45-2.354,4.1,4.1,0,0,0-2.28-.446c-4.54.023-9.09,0.014-13.64,0.014V120h-2.7c-6.96,1.261-13.94,2.484-20.91,3.726v32.553c6.93,1.242,13.87,2.432,20.79,3.721h2.82v-4.186c4.71-.009,9.42.014,14.13,0,0.76-.033,1.89-0.056,2.07-1.023A21.277,21.277,0,0,0,3125.97,150.721Zm-26.59-3.442a55.308,55.308,0,0,1-2.27-5.842c-0.62,1.888-1.5,3.67-2.21,5.521-0.99-.014-1.99-0.056-2.98-0.1,1.17-2.339,2.29-4.7,3.5-7.023-1.03-2.4-2.15-4.744-3.2-7.126q1.5-.09,3-0.176c0.67,1.818,1.41,3.613,1.97,5.479,0.6-1.977,1.5-3.837,2.26-5.749,1.03-.074,2.06-0.14,3.09-0.191q-1.815,3.82-3.66,7.623c1.25,2.6,2.52,5.191,3.78,7.8C3101.56,147.429,3100.47,147.357,3099.38,147.279Zm25.22,7.14h-14.99v-2.791h3.64v-3.256h-3.64v-1.86h3.64v-3.256h-3.64V141.4h3.64V138.14h-3.64v-1.861h3.64v-3.256h-3.64v-1.86h3.64v-3.256h-3.64v-2.791h14.99v29.3Zm-3.18-6.047h-6.36v3.256h6.36v-3.256Zm0-5.116h-6.36v3.256h6.36v-3.256Zm0-5.116h-6.36V141.4h6.36V138.14Z" transform="translate(-3086 -120)"/>
</svg>
