<svg xmlns="http://www.w3.org/2000/svg" width="40" height="40" viewBox="0 0 40 40">
  <defs>
    <style>
      .cls-1 {
        fill: #666;
        fill-rule: evenodd;
      }
    </style>
  </defs>
  <path id="Instagram" class="cls-1" d="M4162.47,156.474a11.939,11.939,0,0,1-8.51,3.526h-15.92A12.045,12.045,0,0,1,4126,147.961V132.039A12.045,12.045,0,0,1,4138.04,120h15.92A12.045,12.045,0,0,1,4166,132.039v15.922A11.939,11.939,0,0,1,4162.47,156.474Zm0.23-24.435a8.749,8.749,0,0,0-8.74-8.738h-15.92a8.749,8.749,0,0,0-8.74,8.738v15.922a8.749,8.749,0,0,0,8.74,8.738h15.92a8.749,8.749,0,0,0,8.74-8.738V132.039Zm-6.18-.595a1.96,1.96,0,1,1,1.96-1.96A1.955,1.955,0,0,1,4156.52,131.444ZM4146,150.206A10.206,10.206,0,1,1,4156.21,140,10.219,10.219,0,0,1,4146,150.206Zm0-17.111a6.905,6.905,0,1,0,6.91,6.905A6.916,6.916,0,0,0,4146,133.1Z" transform="translate(-4126 -120)"/>
</svg>
