<svg xmlns="http://www.w3.org/2000/svg" width="40" height="40" viewBox="0 0 40 40">
  <defs>
    <style>
      .cls-1 {
        fill: #666;
        fill-rule: evenodd;
      }
    </style>
  </defs>
  <path id="Messenger" class="cls-1" d="M4240.17,125.811a19.876,19.876,0,0,0-31.34,23.917L4206,160l10.56-2.757a19.979,19.979,0,0,0,9.52,2.413h0A19.9,19.9,0,0,0,4246,139.834,19.667,19.667,0,0,0,4240.17,125.811Zm-14.09,30.5h0a16.6,16.6,0,0,1-8.43-2.3l-0.6-.357-6.27,1.635,1.68-6.079-0.4-.623A16.571,16.571,0,1,1,4226.08,156.308Zm9.08-12.339c-0.49-.248-2.94-1.446-3.4-1.611a0.781,0.781,0,0,0-1.12.248c-0.33.5-1.28,1.611-1.57,1.942a0.766,0.766,0,0,1-1.08.124,13.573,13.573,0,0,1-4-2.458,14.966,14.966,0,0,1-2.77-3.431,0.72,0.72,0,0,1,.22-1.011c0.22-.222.5-0.579,0.75-0.868a3.444,3.444,0,0,0,.49-0.826,0.884,0.884,0,0,0-.04-0.868c-0.12-.248-1.12-2.686-1.53-3.677a1,1,0,0,0-1.12-.851c-0.29-.014-0.62-0.017-0.96-0.017a1.812,1.812,0,0,0-1.32.62,5.53,5.53,0,0,0-1.74,4.132,9.606,9.606,0,0,0,2.03,5.123c0.25,0.331,3.51,5.333,8.5,7.478a28.058,28.058,0,0,0,2.83,1.044,6.872,6.872,0,0,0,3.14.2c0.95-.142,2.94-1.2,3.36-2.355a4.208,4.208,0,0,0,.29-2.355A2.581,2.581,0,0,0,4235.16,143.969Z" transform="translate(-4206 -120)"/>
</svg>
