<svg xmlns="http://www.w3.org/2000/svg" width="40" height="40" viewBox="0 0 40 40">
  <defs>
    <style>
      .cls-1 {
        fill: #666;
        fill-rule: evenodd;
      }
    </style>
  </defs>
  <path id="microsoft_teams" data-name="microsoft teams" class="cls-1" d="M2926,155.909L2949.37,160V120L2926,124.091v31.818Zm6.29-22.972,10.79-.664V135l-4.05.182v11.933l-2.69-.16V135.288l-4.05.165v-2.516Zm20.69,1.126a3.423,3.423,0,0,0,1.39-.283,3.639,3.639,0,0,0,0-6.68,3.408,3.408,0,0,0-1.39-.284,3.328,3.328,0,0,0-1.38.284c-0.33.141-.43,0.324-0.88,0.545v5.589c0.45,0.223.55,0.405,0.88,0.546A3.344,3.344,0,0,0,2952.98,134.063ZM2966,145.786v-7.149h-7.19v10.908h1.8a10.147,10.147,0,0,0,1.84-.177,5.712,5.712,0,0,0,1.74-.615,4.033,4.033,0,0,0,1.3-1.158A3.121,3.121,0,0,0,2966,145.786Zm-6.14-10.51a3.465,3.465,0,0,0,1.14.778,3.549,3.549,0,0,0,2.78,0,3.64,3.64,0,0,0,0-6.68,3.558,3.558,0,0,0-2.78,0A3.641,3.641,0,0,0,2959.86,135.276Zm-2.4,1.088h-6.74V152.43h0c0.45,0.1.61,0.175,0.93,0.219a7.571,7.571,0,0,0,1.05.078,7.922,7.922,0,0,0,1.63-.177,4.71,4.71,0,0,0,1.53-.606,3.53,3.53,0,0,0,1.15-1.15,3.361,3.361,0,0,0,.45-1.808V136.364Z" transform="translate(-2926 -120)"/>
</svg>
