<svg xmlns="http://www.w3.org/2000/svg" width="39.97" height="23" viewBox="0 0 39.97 23">
  <defs>
    <style>
      .cls-1 {
        fill: #666;
        fill-rule: evenodd;
      }
    </style>
  </defs>
  <path id="onedrive" class="cls-1" d="M2698.97,150.859c-2.42-.588-3.77-2.458-3.78-5.233a4.379,4.379,0,0,1,.3-1.883,5.167,5.167,0,0,1,3.98-2.842c0.97-.193,1.27-0.4,1.27-0.881a4.468,4.468,0,0,1,.25-1,7,7,0,0,1,3.09-3.931,6.631,6.631,0,0,1,3.6-.782,5.95,5.95,0,0,1,5,2.113l0.87,0.891,0.78-.263c3.79-1.274,7.57.894,7.87,4.518l0.08,0.991,0.75,0.26a4.089,4.089,0,0,1,2.95,4.588,3.9,3.9,0,0,1-1.98,3.286l-0.54.279-11.92.022c-9.16.018-12.07-.014-12.57-0.136h0Zm-8.94-1.6a5.9,5.9,0,0,1-3.61-2.926,3.609,3.609,0,0,1-.42-2.295,3.829,3.829,0,0,1,.35-2.194,5.251,5.251,0,0,1,3.56-2.781,1.8,1.8,0,0,0,.71-0.294,3.786,3.786,0,0,0,.12-0.956,6.553,6.553,0,0,1,4.6-6,7.543,7.543,0,0,1,4.72.278c0.49,0.189.43,0.23,1.46-1.083a9.375,9.375,0,0,1,2.85-2.234,7.81,7.81,0,0,1,3.57-.772,8.616,8.616,0,0,1,8.24,5.814c0.39,1.121.37,1.435-.09,1.444a8.506,8.506,0,0,0-1.26.235l-0.9.229-0.82-.8a8.311,8.311,0,0,0-9.32-1.2,7.637,7.637,0,0,0-3.1,2.651,9.406,9.406,0,0,0-1.26,2.734c0,0.27-.23.405-1.19,0.71-2.97.948-4.71,3.136-4.7,5.936a7.332,7.332,0,0,0,.64,2.98,1.038,1.038,0,0,1,.18.569,27.579,27.579,0,0,1-4.33-.045h0Z" transform="translate(-2686 -128)"/>
</svg>
