<svg xmlns="http://www.w3.org/2000/svg" width="40" height="40" viewBox="0 0 40 40">
  <defs>
    <style>
      .cls-1 {
        fill: #666;
        fill-rule: evenodd;
      }
    </style>
  </defs>
  <path id="onenote" class="cls-1" d="M2612.3,127.747h3.7a0.384,0.384,0,0,0,.38-0.388s-0.04-3.219-.04-4.113v-0.011a4.226,4.226,0,0,1,.42-1.913l0.12-.241a0.1,0.1,0,0,0-.04.024l-7.19,7.233a0.05,0.05,0,0,0-.03.043c0.15-.075.35-0.177,0.38-0.19a5.5,5.5,0,0,1,2.3-.444h0Zm28.8-.787a3.31,3.31,0,0,0-2.08-2.693,27.059,27.059,0,0,0-5.09-.959,39.03,39.03,0,0,0-5.39-.164,3.251,3.251,0,0,0-1.79-2.47,13.642,13.642,0,0,0-6.71-.449,3.585,3.585,0,0,0-1.96,1.267,3.013,3.013,0,0,0-.5,1.752c0,0.436.02,1.463,0.03,2.376s0.02,1.734.02,1.739a1.467,1.467,0,0,1-1.46,1.479h-3.7a4.382,4.382,0,0,0-1.85.347,2.556,2.556,0,0,0-1.04.838,3.807,3.807,0,0,0-.58,2.352s0.01,0.692.17,2.034c0.14,1.037,1.25,8.285,2.3,10.489a2.675,2.675,0,0,0,1.49,1.593,39.324,39.324,0,0,0,7.78,1.889c1.92,0.248,3.12.769,3.83-.751,0,0,.14-0.378.34-0.929a15.246,15.246,0,0,0,.7-4.823,0.09,0.09,0,1,1,.18,0c0,0.864-.16,3.924,2.12,4.744a27.024,27.024,0,0,0,4.66.838c1.72,0.2,2.96.884,2.96,5.346,0,2.714-.56,3.086-3.5,3.086-2.38,0-3.29.062-3.29-1.856,0-1.552,1.51-1.389,2.64-1.389,0.5,0,.13-0.378.13-1.335s0.59-1.5.03-1.517c-3.87-.109-6.15-0.005-6.15,4.913,0,4.464,1.68,5.293,7.18,5.293,4.32,0,5.84-.143,7.62-5.749a52.254,52.254,0,0,0,1.72-10.154,112.864,112.864,0,0,0-.81-17.137h0Zm-7.52,11.96a7.781,7.781,0,0,0-1.52.094c0.13-1.1.58-2.455,2.17-2.4,1.76,0.061,2,1.747,2.01,2.889a7.154,7.154,0,0,0-2.66-.585h0Z" transform="translate(-2605.5 -120)"/>
</svg>
