<svg xmlns="http://www.w3.org/2000/svg" width="40" height="39.969" viewBox="0 0 40 39.969">
  <defs>
    <style>
      .cls-1 {
        fill: #666;
        fill-rule: evenodd;
      }
    </style>
  </defs>
  <path id="Pinterest" class="cls-1" d="M3583.48,145.976c-0.32,1.3-.65,2.661-0.98,3.991a30.857,30.857,0,0,1-1.1,3.85,19.572,19.572,0,0,1-3.13,5.49c-0.88,1.039-.69.623-0.96,0.568-0.2-.043-0.22-0.244-0.26-0.537a30.222,30.222,0,0,1,.02-5.206,28.5,28.5,0,0,1,.9-5.411c0.74-3.216,1.45-6.37,2.19-9.608a2.08,2.08,0,0,0,.14-0.694,10.254,10.254,0,0,1-.66-2.65,8.6,8.6,0,0,1,.22-3.029,4.981,4.981,0,0,1,2.9-3.645,3.263,3.263,0,0,1,2.65.206,2.906,2.906,0,0,1,1.33,1.94,7.084,7.084,0,0,1-.12,2.95c-0.41,1.9-.95,3.325-1.43,5.159a5.631,5.631,0,0,0-.29,2.824,3.243,3.243,0,0,0,1.29,1.988,3.745,3.745,0,0,0,2.49.71,5.418,5.418,0,0,0,4.06-2.446,14.665,14.665,0,0,0,2.57-7.3,18.925,18.925,0,0,0,.1-3.14,8.654,8.654,0,0,0-1.72-4.859,8.113,8.113,0,0,0-3.85-2.666,12.565,12.565,0,0,0-5.74-.363,10.159,10.159,0,0,0-7.52,5.506,11.11,11.11,0,0,0-1.29,5.317,7,7,0,0,0,1.04,3.9,10.665,10.665,0,0,1,.7.931,2.693,2.693,0,0,1-.18,1.815c-0.17.663-.18,1.578-0.94,1.593a2.281,2.281,0,0,1-.98-0.379,7.986,7.986,0,0,1-3.71-5.821,14.268,14.268,0,0,1,0-5.048,14.551,14.551,0,0,1,1.43-4.023,14.338,14.338,0,0,1,5.3-5.554,15.876,15.876,0,0,1,5.98-2.1c0.78-.115,1.59-0.163,2.46-0.2a14.532,14.532,0,0,1,6.63,1.262,13.651,13.651,0,0,1,4.56,3.345,12.727,12.727,0,0,1,2.81,5.159,12.56,12.56,0,0,1,.61,3.565,22.136,22.136,0,0,1-.47,3.691c-0.73,4.409-2.79,8.014-5.88,10.066a10.089,10.089,0,0,1-2.69,1.262,9.6,9.6,0,0,1-3.43.441,6.952,6.952,0,0,1-3.04-.9A5.023,5.023,0,0,1,3583.48,145.976Z" transform="translate(-3566 -120.031)"/>
</svg>
