<svg xmlns="http://www.w3.org/2000/svg" width="40" height="40" viewBox="0 0 40 40">
  <defs>
    <style>
      .cls-1 {
        fill: #666;
        fill-rule: evenodd;
      }
    </style>
  </defs>
  <path id="Powerpoint" class="cls-1" d="M3198.71,134.87a6.45,6.45,0,0,0-5.96-6.093q-0.015,3.048-.01,6.107C3194.73,134.884,3196.72,134.893,3198.71,134.87Zm7.15-8.861a1.587,1.587,0,0,0-1.75-1.8c-4.84-.074-9.69,0-14.54-0.023V120H3187c-7.01,1.223-14,2.489-21,3.73v32.549c6.92,1.247,13.84,2.428,20.75,3.721h2.82v-4.651c4.54,0,9.07-.01,13.61.014a3.979,3.979,0,0,0,2.29-.466,5.6,5.6,0,0,0,.44-2.813C3205.85,143.39,3205.94,134.7,3205.86,126.009Zm-26.56,15.536a6.545,6.545,0,0,1-3.33.427c0,1.819-.01,3.638,0,5.456q-1.35-.12-2.7-0.232c-0.04-4.968-.05-9.94,0-14.908h0c2.47,0.121,5.45-1,7.49.894C3182.71,135.614,3182.2,140.088,3179.3,141.545Zm25.23,12.409h-14.96v-3.721h10.88v-1.861h-10.88v-2.325h10.88v-1.861h-10.88c0-.911,0-1.823-0.01-2.735a6.233,6.233,0,0,0,5.45-.549,6.388,6.388,0,0,0,2.79-5.079c-1.99-.014-3.98-0.009-5.96-0.009-0.01-2.024.02-4.047-.04-6.065-0.75.148-1.49,0.307-2.23,0.469v-4.637h14.96v28.373Zm-28.56-19.149h0c-0.02,1.562-.03,3.121.07,4.679,0.9-.112,2.07-0.019,2.59-0.977a3.444,3.444,0,0,0-.06-3.051C3177.97,134.6,3176.86,134.763,3175.97,134.805Z" transform="translate(-3166 -120)"/>
</svg>
