<svg xmlns="http://www.w3.org/2000/svg" width="40" height="40" viewBox="0 0 40 40">
  <defs>
    <style>
      .cls-1 {
        fill: #666;
        fill-rule: evenodd;
      }
    </style>
  </defs>
  <path id="Publisher" class="cls-1" d="M3366,126.042a7.363,7.363,0,0,0-.24-2.1c-0.84-.981-2.26-0.6-3.37-0.7-2.81.121-5.65-.186-8.44,0.153-2.02.679-1.3,3.317-1.43,4.977h-3.16V120h-2.67c-6.89,1.261-13.79,2.484-20.69,3.726v32.553c6.86,1.247,13.73,2.432,20.58,3.721h2.78v-4.651c3.15-.009,6.3.014,9.45,0,0.91-.028,2.16.024,2.54-1.065a52.139,52.139,0,0,0,.14-6.377,14.293,14.293,0,0,0,4.23-.274,8.277,8.277,0,0,0,.28-2.53Q3365.955,135.576,3366,126.042Zm-26.82,15.5a6.336,6.336,0,0,1-3.3.423v5.475c-0.91-.093-1.82-0.186-2.72-0.289,0.05-4.948.01-9.892,0.02-14.842h0c2.45,0.079,5.43-1.023,7.46.88C3342.57,135.632,3342.05,140.088,3339.18,141.544Zm20.52,12.409h-10.34v-2.79H3357q-0.015-.93,0-1.861h-7.64v-2.325H3357q-0.015-.93,0-1.861h-7.64v-2.325H3357q-0.015-.93,0-1.861h-7.64V138.6H3357v-6.512h-7.64v-2.326h10.34v24.186Zm4.94-7.906h-3.15c-0.01-5.591.02-11.177-.01-16.768-2.11-1.73-4.94-2.451-6.78-4.488,3.3-.3,6.63-0.065,9.94-0.14v21.4Zm-28.76-11.238c0.89-.051,2-0.218,2.6.67a3.54,3.54,0,0,1,.04,3.033c-0.52.953-1.67,0.86-2.57,0.967-0.09-1.553-.08-3.112-0.07-4.67h0Z" transform="translate(-3326 -120)"/>
</svg>
