<svg xmlns="http://www.w3.org/2000/svg" width="40" height="40" viewBox="0 0 40 40">
  <defs>
    <style>
      .cls-1 {
        fill: #666;
        fill-rule: evenodd;
      }
    </style>
  </defs>
  <path id="skype" class="cls-1" d="M4073.71,147.005a6.823,6.823,0,0,1-3.04,2.217,12.6,12.6,0,0,1-4.67.79,11.794,11.794,0,0,1-5.35-1.081,6.942,6.942,0,0,1-2.46-2.1,4.5,4.5,0,0,1-.95-2.6,1.783,1.783,0,0,1,.62-1.357,2.256,2.256,0,0,1,1.56-.559,2.048,2.048,0,0,1,1.32.44,3.24,3.24,0,0,1,.87,1.233,7.605,7.605,0,0,0,.86,1.464,3.233,3.233,0,0,0,1.25.933,5.339,5.339,0,0,0,2.17.373,5.4,5.4,0,0,0,3.01-.755,2.089,2.089,0,0,0,1.11-1.795,1.734,1.734,0,0,0-.58-1.364,4.18,4.18,0,0,0-1.59-.847c-0.68-.2-1.6-0.424-2.74-0.654a22.719,22.719,0,0,1-3.92-1.127,6.531,6.531,0,0,1-2.57-1.809,4.383,4.383,0,0,1-.96-2.883,4.569,4.569,0,0,1,1.01-2.909,6.335,6.335,0,0,1,2.9-1.938,13.151,13.151,0,0,1,4.39-.666,12.263,12.263,0,0,1,3.48.442,7.737,7.737,0,0,1,2.47,1.184,5.2,5.2,0,0,1,1.45,1.572,3.362,3.362,0,0,1,.47,1.64,1.951,1.951,0,0,1-.61,1.389,2.105,2.105,0,0,1-1.54.617,1.975,1.975,0,0,1-1.29-.386,4.639,4.639,0,0,1-.89-1.143,4.739,4.739,0,0,0-1.34-1.6,4.319,4.319,0,0,0-2.49-.553,4.829,4.829,0,0,0-2.59.615,1.65,1.65,0,0,0-.93,1.378,1.239,1.239,0,0,0,.3.837,2.63,2.63,0,0,0,.89.652,6.745,6.745,0,0,0,1.2.448c0.42,0.112,1.12.276,2.07,0.488,1.21,0.251,2.32.53,3.3,0.834a10.718,10.718,0,0,1,2.56,1.124,4.69,4.69,0,0,1,2.29,4.244A5.331,5.331,0,0,1,4073.71,147.005Zm12.29,3a9.995,9.995,0,0,1-16.92,7.212,17.419,17.419,0,0,1-20.29-20.3,9.993,9.993,0,0,1,14.13-14.128,17.419,17.419,0,0,1,20.29,20.3A9.929,9.929,0,0,1,4086,150Z" transform="translate(-4046 -120)"/>
</svg>
