<svg xmlns="http://www.w3.org/2000/svg" width="40" height="40" viewBox="0 0 40 40">
  <defs>
    <style>
      .cls-1 {
        fill: #666;
        fill-rule: evenodd;
      }
    </style>
  </defs>
  <path id="slack" class="cls-1" d="M2791.94,122.463a3.564,3.564,0,0,0-6.78,2.2l9.22,28.348a3.561,3.561,0,0,0,6.77-2.2l-9.21-28.349m-14.28,4.639a3.56,3.56,0,1,0-6.77,2.2l9.21,28.348a3.557,3.557,0,0,0,4.33,2.208,3.52,3.52,0,0,0,2.44-4.41l-9.21-28.348m25.88,18.839a3.565,3.565,0,0,0-2.21-6.778l-28.34,9.214a3.563,3.563,0,0,0,2.2,6.774l28.35-9.21m-24.64,8.006,6.77-2.2-2.2-6.776-6.78,2.2,2.21,6.775m14.27-4.639c2.56-.832,4.94-1.6,6.78-2.2l-2.2-6.777-6.78,2.2,2.2,6.776m5.73-17.644a3.563,3.563,0,1,0-2.2-6.777l-28.35,9.214a3.563,3.563,0,0,0,2.2,6.774l28.35-9.211m-24.64,8.007c1.84-.6,4.22-1.373,6.77-2.2-0.83-2.561-1.6-4.942-2.2-6.775l-6.78,2.2,2.21,6.775m14.27-4.638,6.78-2.2q-1.11-3.388-2.2-6.778l-6.78,2.2,2.2,6.777" transform="translate(-2766 -120)"/>
</svg>
