<svg xmlns="http://www.w3.org/2000/svg" width="40" height="40" viewBox="0 0 40 40">
  <defs>
    <style>
      .cls-1 {
        fill: #666;
        fill-rule: evenodd;
      }
    </style>
  </defs>
  <path id="trello" class="cls-1" d="M2882.09,120h-32.18a3.908,3.908,0,0,0-3.91,3.906v32.188a3.908,3.908,0,0,0,3.91,3.906h32.18a3.908,3.908,0,0,0,3.91-3.906V123.906A3.908,3.908,0,0,0,2882.09,120Zm-18.69,30.825a1.874,1.874,0,0,1-1.87,1.875h-8.46a1.874,1.874,0,0,1-1.87-1.875v-23.75a1.874,1.874,0,0,1,1.87-1.875h8.46a1.874,1.874,0,0,1,1.87,1.875v23.75Zm17.4-10a1.876,1.876,0,0,1-1.88,1.875h-8.45a1.874,1.874,0,0,1-1.87-1.875v-13.75a1.874,1.874,0,0,1,1.87-1.875h8.45a1.876,1.876,0,0,1,1.88,1.875v13.75Z" transform="translate(-2846 -120)"/>
</svg>
