<svg xmlns="http://www.w3.org/2000/svg" width="40" height="40" viewBox="0 0 40 40">
  <defs>
    <style>
      .cls-1 {
        fill: #666;
        fill-rule: evenodd;
      }
    </style>
  </defs>
  <path id="twitter" class="cls-1" d="M3513.21,124.991a8.47,8.47,0,0,1,6.48,2.539,13.407,13.407,0,0,0,4.21-1.4l1.02-.551a8.091,8.091,0,0,1-2.66,3.8,4.145,4.145,0,0,1-.9.63v0.02c1.78-.018,3.24-0.811,4.64-1.24v0.019a13.029,13.029,0,0,1-2.78,3.15c-0.43.334-.86,0.669-1.28,1a23.193,23.193,0,0,1-.38,5.2c-2.05,9.083-7.48,15.25-16.08,17.891a24.9,24.9,0,0,1-11.61.472,30.091,30.091,0,0,1-4.83-1.555,19.693,19.693,0,0,1-2.32-1.18l-0.72-.433a13.642,13.642,0,0,0,2.62.1c0.81-.128,1.6-0.095,2.34-0.256a16.907,16.907,0,0,0,4.93-1.752,9.132,9.132,0,0,0,2.22-1.436,7.041,7.041,0,0,1-2.44-.433,8.193,8.193,0,0,1-5.21-5.177c0.81,0.087,3.13.294,3.67-.157a6.016,6.016,0,0,1-2.68-1.063,7.767,7.767,0,0,1-3.87-6.928l0.84,0.394a9.219,9.219,0,0,0,1.72.472,2.514,2.514,0,0,0,1.13.1h-0.04c-0.42-.474-1.09-0.79-1.51-1.3a8.194,8.194,0,0,1-1.84-7.342,9.411,9.411,0,0,1,.88-2.106,0.147,0.147,0,0,1,.04.02,5.232,5.232,0,0,0,.74.846,14.988,14.988,0,0,0,2.45,2.3,24.238,24.238,0,0,0,10.03,4.783,15.935,15.935,0,0,0,3.68.472,7.41,7.41,0,0,1,.04-3.8,8.024,8.024,0,0,1,4.64-5.432,10.181,10.181,0,0,1,1.83-.551C3512.54,125.07,3512.87,125.03,3513.21,124.991Z" transform="translate(-3486 -121)"/>
</svg>
