<svg xmlns="http://www.w3.org/2000/svg" width="40" height="40" viewBox="0 0 40 40">
  <defs>
    <style>
      .cls-1 {
        fill: #666;
        fill-rule: evenodd;
      }
    </style>
  </defs>
  <path id="Word" class="cls-1" d="M3045.86,125.526a1.577,1.577,0,0,0-1.75-1.777c-4.84-.079-9.69,0-14.54-0.028V120h-2.71c-6.95,1.27-13.91,2.484-20.86,3.73v32.549c6.92,1.242,13.84,2.428,20.74,3.721h2.83v-3.721c4.54,0,9.07-.009,13.61.013a4.032,4.032,0,0,0,2.29-.46,5.6,5.6,0,0,0,.44-2.814C3045.85,143.856,3045.94,134.688,3045.86,125.526Zm-24.73,20.8c-0.76.405-1.89-.019-2.79,0.046-0.61-3.078-1.31-6.139-1.85-9.232-0.53,3-1.22,5.981-1.82,8.968-0.87-.047-1.75-0.1-2.63-0.163-0.75-4.093-1.63-8.158-2.33-12.261,0.77-.037,1.55-0.07,2.33-0.1,0.46,2.963.99,5.912,1.4,8.879,0.64-3.041,1.29-6.083,1.93-9.125h0c0.86-.051,1.72-0.088,2.58-0.135,0.61,3.14,1.22,6.274,1.88,9.4,0.51-3.228,1.07-6.447,1.62-9.67,0.91-.032,1.82-0.083,2.72-0.139C3023.14,137.3,3022.25,141.842,3021.13,146.321Zm23.4,8.563h-14.96v-3.721h11.79V149.3h-11.79v-2.325h11.79v-1.861h-11.79v-2.325h11.79V140.93h-11.79V138.6h11.79v-1.861h-11.79v-2.325h11.79v-1.861h-11.79v-2.325h11.79v-1.861h-11.79v-3.256h14.96v29.768Z" transform="translate(-3006 -120)"/>
</svg>
