<svg xmlns="http://www.w3.org/2000/svg" width="40" height="40" viewBox="0 0 40 40">
  <defs>
    <style>
      .cls-1 {
        fill: #666;
        fill-rule: evenodd;
      }
    </style>
  </defs>
  <path id="z0g" class="cls-1" d="M4386,160a19.956,19.956,0,0,1-14.14-5.848l1.82-1.817a17.334,17.334,0,0,0,29.65-12.169q0-.739-0.06-1.464h2.68c0.03,0.44.05,0.884,0.05,1.331A19.98,19.98,0,0,1,4386,160Zm0-5.391a14.667,14.667,0,0,1-14.61-13.311h-5.34c-0.03-.44-0.05-0.884-0.05-1.331a20.005,20.005,0,0,1,34.14-14.119l-1.88,1.883a17.342,17.342,0,0,0-29.54,10.905h2.67a14.676,14.676,0,0,1,24.98-9.023l-1.88,1.883a11.976,11.976,0,1,0,3.44,9.8H4386v-2.662h14.61q0.06,0.657.06,1.331A14.658,14.658,0,0,1,4386,154.609Z" transform="translate(-4366 -120)"/>
</svg>
